{
.appVersion = "1342";
classes = (
{
automatic = 1;
code = "A Aacute Abreve Acircumflex Adieresis Agrave Amacron Aogonek Aring Atilde AE B C Cacute Ccaron Ccedilla Ccircumflex Cdotaccent D Eth Dcaron Dcroat E Eacute Ebreve Ecaron Ecircumflex Edieresis Edotaccent Egrave Emacron Eogonek F G Gbreve Gcircumflex Gcommaaccent Gdotaccent H Hbar Hcircumflex I IJ Iacute Icircumflex Idieresis Idotaccent Igrave Imacron Iogonek Itilde J Jcircumflex K Kcommaaccent L Lacute Lcaron Lcommaaccent Ldot Lslash M N Nacute Ncaron Ncommaaccent Ntilde O Oacute Obreve Ocircumflex Odieresis Ograve Ohungarumlaut Omacron Oslash Otilde OE P Thorn Q R Racute Rcaron Rcommaaccent S Sacute Scaron Scedilla Scircumflex Scommaaccent T Tbar Tcaron Tcedilla Tcommaaccent U Uacute Ubreve Ucircumflex Udieresis Ugrave Uhungarumlaut Umacron Uogonek Uring Utilde V W Wacute Wcircumflex Wdieresis Wgrave X Y Yacute Ycircumflex Ydieresis Z Zacute Zcaron Zdotaccent G.ss03 Gbreve.ss03 Gcircumflex.ss03 Gcommaaccent.ss03 Gdotaccent.ss03 IJ.ss04 J.ss04 Jcircumflex.ss04 Delta Omega";
name = Uppercase;
}
);
copyright = "Copyright 2019 The Mohave Project Authors (https://github.com/tokotype/Mohave-Typefaces)";
customParameters = (
{
name = description;
value = "Designed by Gumpita Rahayu from Tokotype in 2013.";
},
{
name = license;
value = "This Font Software is licensed under the SIL Open Font License, Version 1.1. This license is available with a FAQ at: http://scripts.sil.org/OFL";
},
{
name = licenseURL;
value = "http://scripts.sil.org/OFL";
},
{
name = vendorID;
value = TOKO;
},
{
name = glyphOrder;
value = (
.notdef,
space
);
},
{
name = fsType;
value = (
);
},
{
name = trademark;
value = "Mohave is a trademark of Tokotype.";
},
{
name = Axes;
value = (
{
Name = Weight;
Tag = wght;
}
);
},
{
name = "Use Typo Metrics";
value = 1;
}
);
date = "2020-01-08 19:56:05 +0000";
designer = "Gumpita Rahayu";
designerURL = "https://www.tokotypefaces.com";
disablesNiceNames = 1;
familyName = Mohave;
featurePrefixes = (
{

glyphs = (
{
glyphname = .notdef;
lastChange = "2019-11-13 16:16:42 +0000";
layers = (
{
layerId = "60B18B06-8123-4D0C-85E3-2DE7B5C03586";
paths = (
{
closed = 1;
nodes = (
"744 0 LINE",
"954 1500 LINE",
"274 1500 LINE",
"64 0 LINE"
);
},
{
closed = 1;
nodes = (
"420 1330 LINE",
"760 1330 LINE",
"598 170 LINE",
"258 170 LINE"
);
}
);
width = 962;
},
{
hints = (
{
horizontal = 1;
origin = "{0, 3}";
target = "{1, 3}";
type = Stem;
},
{
horizontal = 1;
origin = "{0, 2}";
target = "{1, 0}";
type = Stem;
}
);
layerId = "DDDB0B36-051A-43AE-9F30-611505482296";
paths = (
{
closed = 1;
nodes = (
"782 0 LINE",
"992 1500 LINE",
"312 1500 LINE",
"102 0 LINE"
);
},
{
closed = 1;
nodes = (
"406 1390 LINE",
"866 1390 LINE",
"688 110 LINE",
"228 110 LINE"
);
}
);
width = 1036;
}
);
note = .notdef;
},
{
glyphname = A;
lastChange = "2019-11-13 16:16:42 +0000";
layers = (
{
anchors = (
{
name = bottom;
position = "{380, 0}";
},
{
name = ogonek;
position = "{658, 0}";
},
{
name = top;
position = "{590, 1500}";
}
);
layerId = "60B18B06-8123-4D0C-85E3-2DE7B5C03586";
paths = (
{
closed = 1;
nodes = (
"228 0 LINE",
"296 234 LINE",
"528 234 LINE",
"530 0 LINE",
"806 0 LINE",
"738 1500 LINE",
"446 1500 LINE",
"-48 0 LINE"
);
},
{
closed = 1;
nodes = (
"558 1136 LINE",
"522 1136 LINE",
"526 504 LINE",
"374 504 LINE"
);
}
);
width = 914;
},
{
anchors = (
{
name = bottom;
position = "{384, 0}";
},
{
name = ogonek;
position = "{700, 0}";
},
{
name = top;
position = "{594, 1500}";
}
);
hints = (
{
horizontal = 1;
origin = "{0, 7}";
target = up;
type = BottomGhost;
},
{
horizontal = 1;
origin = "{0, 1}";
target = "{1, 3}";
type = Stem;
},
{
horizontal = 1;
origin = "{0, 6}";
target = down;
type = TopGhost;
}
);
layerId = "DDDB0B36-051A-43AE-9F30-611505482296";
paths = (
{
closed = 1;
nodes = (
"100 0 LINE",
"220 322 LINE",
"640 322 LINE",
"668 0 LINE",
"782 0 LINE",
"652 1500 LINE",
"536 1500 LINE",
"-14 0 LINE"
);
},
{
closed = 1;
nodes = (
"580 1334 LINE",
"560 1334 LINE",
"630 432 LINE",
"258 432 LINE"
);
}
);
width = 920;
},
{
associatedMasterId = "DDDB0B36-051A-43AE-9F30-611505482296";
layerId = "6669D1E1-3322-4A31-837A-101834F2C3CB";
name = "Apr 26 18, 09:50";
paths = (
{
closed = 1;
nodes = (
"200 0 LINE",
"542 1500 LINE",
"426 1500 LINE",
"86 0 LINE"
);
},
{
closed = 1;
nodes = (
"718 322 LINE",
"718 432 LINE",
"240 432 LINE",
"240 322 LINE"
);
},
{
closed = 1;
nodes = (
"542 1500 LINE",
"426 1500 LINE",
"768 0 LINE",
"882 0 LINE"
);
}
);
width = 1200;
}
);
leftKerningGroup = A;
note = A;
rightKerningGroup = A;
unicode = 0041;
},
{
glyphname = AE;
lastChange = "2019-11-13 16:16:42 +0000";
layers = (
{
hints = (
{
horizontal = 1;
origin = "{0, 15}";
target = "{0, 6}";
type = Stem;
},
{
horizontal = 1;
origin = "{0, 1}";
target = "{1, 3}";
type = Stem;
},
{
horizontal = 1;
origin = "{0, 7}";
target = "{0, 10}";
type = Stem;
},
{
horizontal = 1;
origin = "{0, 14}";
target = "{1, 0}";
type = Stem;
}
);
layerId = "DDDB0B36-051A-43AE-9F30-611505482296";
paths = (
{
closed = 1;
nodes = (
"100 0 LINE",
"220 322 LINE",
"568 322 LINE",
"522 0 LINE",
"1126 0 LINE",
"1142 110 LINE",
"648 110 LINE",
"728 680 LINE",
"1168 680 LINE",
"1182 790 LINE",
"742 790 LINE",
"826 1390 LINE",
"1320 1390 LINE",
"1336 1500 LINE",
"536 1500 LINE",
"-14 0 LINE"
);
},
{
closed = 1;
nodes = (
"600 1390 LINE",
"716 1390 LINE",
"582 432 LINE",
"258 432 LINE"
);
}
);
width = 1284;
},
{
layerId = "60B18B06-8123-4D0C-85E3-2DE7B5C03586";
paths = (
{
closed = 1;
nodes = (
"228 0 LINE",
"300 234 LINE",
"562 234 LINE",
"530 0 LINE",
"1152 0 LINE",
"1190 270 LINE",
"838 270 LINE",
"892 660 LINE",
"1190 660 LINE",
"1228 930 LINE",
"930 930 LINE",
"972 1230 LINE",
"1324 1230 LINE",
"1362 1500 LINE",
"446 1500 LINE",
"-48 0 LINE"
);
},
{
closed = 1;
nodes = (
"612 1230 LINE",
"702 1230 LINE",
"600 504 LINE",
"384 504 LINE"
);
}
);
width = 1318;
}
);
leftKerningGroup = A;
leftMetricsKey = A;
rightKerningGroup = E;
rightMetricsKey = E;
unicode = 00C6;
},
{
glyphname = B;
lastChange = "2019-11-13 16:17:00 +0000";
layers = (
{
layerId = "60B18B06-8123-4D0C-85E3-2DE7B5C03586";
paths = (
{
closed = 1;
nodes = (
"460 0 LINE SMOOTH",
"684 0 OFFCURVE",
"851 148 OFFCURVE",
"882 370 CURVE SMOOTH",
"900 500 LINE SMOOTH",
"918 630 OFFCURVE",
"880 734 OFFCURVE",
"806 798 CURVE",
"796 692 LINE",
"876 756 OFFCURVE",
"930 856 OFFCURVE",
"946 970 CURVE SMOOTH",
"968 1130 LINE SMOOTH",
"999 1356 OFFCURVE",
"872 1500 OFFCURVE",
"650 1500 CURVE SMOOTH",
"280 1500 LINE",
"70 0 LINE"
);
},
{
closed = 1;
nodes = (
"424 600 LINE",
"544 600 LINE SMOOTH",
"608 600 OFFCURVE",
"638 560 OFFCURVE",
"630 500 CURVE SMOOTH",
"612 370 LINE SMOOTH",
"604 310 OFFCURVE",
"559 270 OFFCURVE",
"498 270 CURVE SMOOTH",
"378 270 LINE"
);
},
{
closed = 1;
nodes = (
"512 1230 LINE",
"612 1230 LINE SMOOTH",
"676 1230 OFFCURVE",
"706 1190 OFFCURVE",
"698 1130 CURVE SMOOTH",
"676 970 LINE SMOOTH",
"668 910 OFFCURVE",
"623 870 OFFCURVE",
"562 870 CURVE SMOOTH",
"462 870 LINE"
);
}
);
width = 1008;
},
{
hints = (
{
horizontal = 1;
origin = "{0, 17}";
target = "{1, 9}";
type = Stem;
},
{
horizontal = 1;
origin = "{1, 0}";
target = "{2, 9}";
type = Stem;
},
{
horizontal = 1;
origin = "{0, 16}";
target = "{2, 0}";
type = Stem;
}
);
layerId = "DDDB0B36-051A-43AE-9F30-611505482296";
paths = (
{
closed = 1;
nodes = (
"500 0 LINE SMOOTH",
"684 0 OFFCURVE",
"827 132 OFFCURVE",
"856 330 CURVE SMOOTH",
"882 510 LINE SMOOTH",
"902 648 OFFCURVE",
"849 756 OFFCURVE",
"762 808 CURVE",
"758 774 LINE",
"852 830 OFFCURVE",
"919 932 OFFCURVE",
"938 1060 CURVE SMOOTH",
"954 1170 LINE SMOOTH",
"983 1368 OFFCURVE",
"875 1500 OFFCURVE",
"690 1500 CURVE SMOOTH",
"320 1500 LINE",
"110 0 LINE"
);
},
{
closed = 1;
nodes = (
"322 730 LINE",
"602 730 LINE SMOOTH",
"715 730 OFFCURVE",
"792 648 OFFCURVE",
"772 510 CURVE SMOOTH",
"746 330 LINE SMOOTH",
"726 194 OFFCURVE",
"632 110 OFFCURVE",
"516 110 CURVE SMOOTH",
"236 110 LINE"
);
},
{
closed = 1;
nodes = (
"414 1390 LINE",
"674 1390 LINE SMOOTH",
"793 1390 OFFCURVE",
"863 1302 OFFCURVE",
"844 1170 CURVE SMOOTH",
"828 1060 LINE SMOOTH",
"809 928 OFFCURVE",
"717 840 OFFCURVE",
"598 840 CURVE SMOOTH",
"338 840 LINE"
);
}
);
width = 1026;
}
);
leftKerningGroup = I;
note = B;
rightKerningGroup = B;
unicode = 0042;
},
{
glyphname = C;
lastChange = "2019-11-13 16:17:00 +0000";
layers = (
{
anchors = (
{
name = bottom;
position = "{416, 0}";
},
{
name = top;
position = "{626, 1500}";
}
);
layerId = "60B18B06-8123-4D0C-85E3-2DE7B5C03586";
paths = (
{
closed = 1;
nodes = (
"576 418 LINE",
"564 338 LINE SMOOTH",
"554 272 OFFCURVE",
"508 238 OFFCURVE",
"449 238 CURVE SMOOTH",
"385 238 OFFCURVE",
"356 278 OFFCURVE",
"364 338 CURVE SMOOTH",
"480 1162 LINE SMOOTH",
"488 1222 OFFCURVE",
"531 1262 OFFCURVE",
"593 1262 CURVE SMOOTH",
"652 1262 OFFCURVE",
"690 1226 OFFCURVE",
"680 1162 CURVE SMOOTH",
"668 1082 LINE",
"938 1082 LINE",
"950 1162 LINE SMOOTH",
"983 1384 OFFCURVE",
"854 1532 OFFCURVE",
"630 1532 CURVE SMOOTH",
"406 1532 OFFCURVE",
"241 1384 OFFCURVE",
"210 1162 CURVE SMOOTH",
"94 338 LINE SMOOTH",
"63 116 OFFCURVE",
"188 -32 OFFCURVE",
"412 -32 CURVE SMOOTH",
"638 -32 OFFCURVE",
"801 116 OFFCURVE",
"834 338 CURVE SMOOTH",
"846 418 LINE"
);
}
);
width = 932;
},
{
anchors = (
{
name = bottom;
position = "{438, 0}";
},
{
name = top;
position = "{648, 1500}";
}
);
hints = (
{
horizontal = 1;
origin = "{0, 27}";
target = "{0, 4}";
type = Stem;
},
{
horizontal = 1;
origin = "{0, 20}";
target = "{0, 11}";
type = Stem;
}
);
layerId = "DDDB0B36-051A-43AE-9F30-611505482296";
paths = (
{
closed = 1;
nodes = (
"732 378 LINE",
"726 338 LINE SMOOTH",
"703 182 OFFCURVE",
"594 78 OFFCURVE",
"450 78 CURVE SMOOTH",
"306 78 OFFCURVE",
"224 182 OFFCURVE",
"246 338 CURVE SMOOTH",
"362 1162 LINE SMOOTH",
"384 1318 OFFCURVE",
"494 1422 OFFCURVE",
"638 1422 CURVE SMOOTH",
"780 1422 OFFCURVE",
"865 1318 OFFCURVE",
"842 1162 CURVE SMOOTH",
"836 1122 LINE",
"946 1122 LINE",
"952 1162 LINE SMOOTH",
"985 1384 OFFCURVE",
"860 1532 OFFCURVE",
"652 1532 CURVE SMOOTH",
"444 1532 OFFCURVE",
"283 1384 OFFCURVE",
"252 1162 CURVE SMOOTH",
"136 338 LINE SMOOTH",
"105 116 OFFCURVE",
"226 -32 OFFCURVE",
"434 -32 CURVE SMOOTH",
"644 -32 OFFCURVE",
"803 116 OFFCURVE",
"836 338 CURVE SMOOTH",
"842 378 LINE"
);
}
);
width = 964;
}
);
leftKerningGroup = O;
note = C;
rightKerningGroup = C;
unicode = 0043;
},
{
glyphname = D;
lastChange = "2019-11-13 16:17:00 +0000";
layers = (
{
anchors = (
{
name = bottom;
position = "{424, 0}";
},
{
name = center;
position = "{314, 750}";
},
{
name = top;
position = "{634, 1500}";
}
);
layerId = "60B18B06-8123-4D0C-85E3-2DE7B5C03586";
paths = (
{
closed = 1;
nodes = (
"440 0 LINE SMOOTH",
"660 0 OFFCURVE",
"830 142 OFFCURVE",
"862 370 CURVE SMOOTH",
"968 1130 LINE SMOOTH",
"998 1348 OFFCURVE",
"880 1500 OFFCURVE",
"650 1500 CURVE SMOOTH",
"280 1500 LINE",
"70 0 LINE"
);
},
{
closed = 1;
nodes = (
"512 1230 LINE",
"612 1230 LINE SMOOTH",
"676 1230 OFFCURVE",
"706 1190 OFFCURVE",
"698 1130 CURVE SMOOTH",
"592 370 LINE SMOOTH",
"584 310 OFFCURVE",
"539 270 OFFCURVE",
"478 270 CURVE SMOOTH",
"378 270 LINE"
);
}
);
width = 1004;
},
{
anchors = (
{
name = bottom;
position = "{436, 0}";
},
{
name = center;
position = "{266, 750}";
},
{
name = top;
position = "{646, 1500}";
}
);
hints = (
{
horizontal = 1;
origin = "{0, 9}";
target = "{1, 9}";
type = Stem;
},
{
horizontal = 1;
origin = "{0, 8}";
target = "{1, 0}";
type = Stem;
}
);
layerId = "DDDB0B36-051A-43AE-9F30-611505482296";
paths = (
{
closed = 1;
nodes = (
"440 0 LINE SMOOTH",
"655 0 OFFCURVE",
"812 154 OFFCURVE",
"842 370 CURVE SMOOTH",
"948 1130 LINE SMOOTH",
"980 1360 OFFCURVE",
"852 1500 OFFCURVE",
"650 1500 CURVE SMOOTH",
"320 1500 LINE",
"110 0 LINE"
);
},
{
closed = 1;
nodes = (
"414 1390 LINE",
"634 1390 LINE SMOOTH",
"779 1390 OFFCURVE",
"860 1286 OFFCURVE",
"838 1130 CURVE SMOOTH",
"732 370 LINE SMOOTH",
"710 214 OFFCURVE",
"598 110 OFFCURVE",
"456 110 CURVE SMOOTH",
"236 110 LINE"
);
}
);
width = 1022;
}
);
leftKerningGroup = I;
note = D;
rightKerningGroup = O;
unicode = 0044;
},
{
glyphname = E;
lastChange = "2019-11-13 16:16:42 +0000";
layers = (
{
anchors = (
{
name = bottom;
position = "{380, 0}";
},
{
name = ogonek;
position = "{380, 0}";
},
{
name = top;
position = "{560, 1500}";
}
);
layerId = "60B18B06-8123-4D0C-85E3-2DE7B5C03586";
paths = (
{
closed = 1;
nodes = (
"280 1500 LINE",
"70 0 LINE",
"690 0 LINE",
"728 270 LINE",
"378 270 LINE",
"432 660 LINE",
"728 660 LINE",
"766 930 LINE",
"470 930 LINE",
"512 1230 LINE",
"862 1230 LINE",
"900 1500 LINE"
);
}
);
width = 856;
},
{
anchors = (
{
name = bottom;
position = "{410, 0}";
},
{
name = ogonek;
position = "{408, 0}";
},
{
name = top;
position = "{558, 1500}";
}
);
hints = (
{
horizontal = 1;
origin = "{0, 1}";
target = "{0, 4}";
type = Stem;
},
{
horizontal = 1;
origin = "{0, 5}";
target = "{0, 8}";
type = Stem;
},
{
horizontal = 1;
origin = "{0, 0}";
target = "{0, 9}";
type = Stem;
}
);
layerId = "DDDB0B36-051A-43AE-9F30-611505482296";
paths = (
{
closed = 1;
nodes = (
"320 1500 LINE",
"110 0 LINE",
"710 0 LINE",
"726 110 LINE",
"236 110 LINE",
"316 680 LINE",
"752 680 LINE",
"766 790 LINE",
"330 790 LINE",
"414 1390 LINE",
"904 1390 LINE",
"920 1500 LINE"
);
}
);
width = 868;
}
);
leftKerningGroup = I;
note = E;
rightKerningGroup = E;
unicode = 0045;
},
{
glyphname = F;
lastChange = "2019-11-13 16:16:42 +0000";
layers = (
{
layerId = "60B18B06-8123-4D0C-85E3-2DE7B5C03586";
paths = (
{
closed = 1;
nodes = (
"340 0 LINE",
"408 480 LINE",
"704 480 LINE",
"740 750 LINE",
"444 750 LINE",
"512 1230 LINE",
"862 1230 LINE",
"900 1500 LINE",
"280 1500 LINE",
"70 0 LINE"
);
}
);
width = 814;
},
{
hints = (
{
horizontal = 1;
origin = "{0, 9}";
target = up;
type = BottomGhost;
},
{
horizontal = 1;
origin = "{0, 1}";
target = "{0, 4}";
type = Stem;
},
{
horizontal = 1;
origin = "{0, 8}";
target = "{0, 5}";
type = Stem;
}
);
layerId = "DDDB0B36-051A-43AE-9F30-611505482296";
paths = (
{
closed = 1;
nodes = (
"220 0 LINE",
"306 620 LINE",
"742 620 LINE",
"758 730 LINE",
"322 730 LINE",
"414 1390 LINE",
"904 1390 LINE",
"920 1500 LINE",
"320 1500 LINE",
"110 0 LINE"
);
}
);
width = 846;
}
);
leftKerningGroup = I;
note = F;
unicode = 0046;
},
{
glyphname = G;
lastChange = "2019-11-13 16:17:00 +0000";
layers = (
{
anchors = (
{
name = bottom;
position = "{416, 0}";
},
{
name = top;
position = "{626, 1500}";
}
);
layerId = "60B18B06-8123-4D0C-85E3-2DE7B5C03586";
paths = (
{
closed = 1;
nodes = (
"638 -32 OFFCURVE",
"803 116 OFFCURVE",
"834 338 CURVE SMOOTH",
"892 750 LINE",
"496 750 LINE",
"458 480 LINE",
"584 480 LINE",
"564 338 LINE SMOOTH",
"556 278 OFFCURVE",
"512 238 OFFCURVE",
"449 238 CURVE SMOOTH",
"385 238 OFFCURVE",
"356 278 OFFCURVE",
"364 338 CURVE SMOOTH",
"480 1162 LINE SMOOTH",
"488 1222 OFFCURVE",
"531 1262 OFFCURVE",
"593 1262 CURVE SMOOTH",
"652 1262 OFFCURVE",
"690 1226 OFFCURVE",
"680 1162 CURVE SMOOTH",
"668 1082 LINE",
"938 1082 LINE",
"950 1162 LINE SMOOTH",
"983 1384 OFFCURVE",
"854 1532 OFFCURVE",
"630 1532 CURVE SMOOTH",
"406 1532 OFFCURVE",
"241 1384 OFFCURVE",
"210 1162 CURVE SMOOTH",
"94 338 LINE SMOOTH",
"63 116 OFFCURVE",
"188 -32 OFFCURVE",
"412 -32 CURVE SMOOTH"
);
}
);
width = 968;
},
{
anchors = (
{
name = bottom;
position = "{438, 0}";
},
{
name = top;
position = "{648, 1500}";
}
);
hints = (
{
horizontal = 1;
origin = "{0, 33}";
target = "{0, 10}";
type = Stem;
},
{
horizontal = 1;
origin = "{0, 5}";
target = "{0, 4}";
type = Stem;
},
{
horizontal = 1;
origin = "{0, 26}";
target = "{0, 17}";
type = Stem;
}
);
layerId = "DDDB0B36-051A-43AE-9F30-611505482296";
paths = (
{
closed = 1;
nodes = (
"639 -32 OFFCURVE",
"804 110 OFFCURVE",
"836 338 CURVE SMOOTH",
"888 710 LINE",
"552 710 LINE",
"536 600 LINE",
"762 600 LINE",
"726 338 LINE SMOOTH",
"705 184 OFFCURVE",
"596 78 OFFCURVE",
"450 78 CURVE SMOOTH",
"306 78 OFFCURVE",
"224 182 OFFCURVE",
"246 338 CURVE SMOOTH",
"362 1162 LINE SMOOTH",
"384 1318 OFFCURVE",
"494 1422 OFFCURVE",
"638 1422 CURVE SMOOTH",
"780 1422 OFFCURVE",
"865 1318 OFFCURVE",
"842 1162 CURVE SMOOTH",
"836 1122 LINE",
"946 1122 LINE",
"952 1162 LINE SMOOTH",
"985 1384 OFFCURVE",
"860 1532 OFFCURVE",
"652 1532 CURVE SMOOTH",
"444 1532 OFFCURVE",
"283 1384 OFFCURVE",
"252 1162 CURVE SMOOTH",
"136 338 LINE SMOOTH",
"105 116 OFFCURVE",
"226 -32 OFFCURVE",
"434 -32 CURVE SMOOTH"
);
}
);
width = 1000;
}
);
leftKerningGroup = O;
note = G;
rightKerningGroup = G;
unicode = 0047;
},
{
glyphname = H;
lastChange = "2019-11-13 16:16:42 +0000";
layers = (
{
anchors = (
{
name = bottom;
position = "{420, 0}";
},
{
name = center;
position = "{574, 1100}";
},
{
name = top;
position = "{630, 1500}";
}
);
layerId = "60B18B06-8123-4D0C-85E3-2DE7B5C03586";
paths = (
{
closed = 1;
nodes = (
"340 0 LINE",
"408 480 LINE",
"568 480 LINE",
"500 0 LINE",
"770 0 LINE",
"980 1500 LINE",
"710 1500 LINE",
"604 750 LINE",
"444 750 LINE",
"550 1500 LINE",
"280 1500 LINE",
"70 0 LINE"
);
}
);
width = 994;
},
{
anchors = (
{
name = bottom;
position = "{450, 0}";
},
{
name = center;
position = "{602, 1080}";
},
{
name = top;
position = "{660, 1500}";
}
);
hints = (
{
horizontal = 1;
origin = "{0, 11}";
target = up;
type = BottomGhost;
},
{
horizontal = 1;
origin = "{0, 1}";
target = "{0, 8}";
type = Stem;
},
{
horizontal = 1;
origin = "{0, 10}";
target = down;
type = TopGhost;
}
);
layerId = "DDDB0B36-051A-43AE-9F30-611505482296";
paths = (
{
closed = 1;
nodes = (
"220 0 LINE",
"306 620 LINE",
"766 620 LINE",
"680 0 LINE",
"790 0 LINE",
"1000 1500 LINE",
"890 1500 LINE",
"782 730 LINE",
"322 730 LINE",
"430 1500 LINE",
"320 1500 LINE",
"110 0 LINE"
);
}
);
width = 1052;
}
);
leftKerningGroup = I;
note = H;
rightKerningGroup = I;
unicode = 0048;
},
{
glyphname = I;
lastChange = "2019-11-13 16:16:42 +0000";
layers = (
{
anchors = (
{
name = bottom;
position = "{206, 0}";
},
{
name = ogonek;
position = "{156, 0}";
},
{
name = top;
position = "{416, 1500}";
},
{
name = topleft;
position = "{182, 1500}";
}
);
layerId = "60B18B06-8123-4D0C-85E3-2DE7B5C03586";
paths = (
{
closed = 1;
nodes = (
"550 1500 LINE",
"280 1500 LINE",
"70 0 LINE",
"340 0 LINE"
);
}
);
width = 564;
},
{
anchors = (
{
name = bottom;
position = "{166, 0}";
},
{
name = ogonek;
position = "{134, 0}";
},
{
name = top;
position = "{376, 1500}";
},
{
name = topleft;
position = "{178, 1500}";
}
);
hints = (
{
horizontal = 1;
origin = "{0, 2}";
target = up;
type = BottomGhost;
},
{
horizontal = 1;
origin = "{0, 1}";
target = down;
type = TopGhost;
}
);
layerId = "DDDB0B36-051A-43AE-9F30-611505482296";
paths = (
{
closed = 1;
nodes = (
"430 1500 LINE",
"320 1500 LINE",
"110 0 LINE",
"220 0 LINE"
);
}
);
width = 482;
}
);
leftKerningGroup = I;
note = I;
rightKerningGroup = I;
unicode = 0049;
},
{
glyphname = J;
lastChange = "2019-11-13 16:17:00 +0000";
layers = (
{
anchors = (
{
name = bottom;
position = "{270, 0}";
},
{
name = top;
position = "{516, 1500}";
}
);
layerId = "60B18B06-8123-4D0C-85E3-2DE7B5C03586";
paths = (
{
closed = 1;
nodes = (
"74 -14 LINE SMOOTH",
"294 -14 OFFCURVE",
"464 128 OFFCURVE",
"496 356 CURVE SMOOTH",
"656 1500 LINE",
"386 1500 LINE",
"226 356 LINE SMOOTH",
"218 296 OFFCURVE",
"173 256 OFFCURVE",
"112 256 CURVE SMOOTH",
"-24 256 LINE",
"-62 -14 LINE"
);
}
);
width = 658;
},
{
anchors = (
{
name = bottom;
position = "{276, 0}";
},
{
name = top;
position = "{558, 1500}";
}
);
hints = (
{
horizontal = 1;
origin = "{0, 11}";
target = "{0, 10}";
type = Stem;
},
{
horizontal = 1;
origin = "{0, 5}";
target = down;
type = TopGhost;
}
);
layerId = "DDDB0B36-051A-43AE-9F30-611505482296";
paths = (
{
closed = 1;
nodes = (
"54 -12 LINE SMOOTH",
"263 -12 OFFCURVE",
"425 136 OFFCURVE",
"456 358 CURVE SMOOTH",
"616 1500 LINE",
"506 1500 LINE",
"346 358 LINE SMOOTH",
"324 202 OFFCURVE",
"212 98 OFFCURVE",
"70 98 CURVE SMOOTH",
"-18 98 LINE",
"-34 -12 LINE"
);
}
);
width = 656;
}
);
leftKerningGroup = J;
note = J;
rightKerningGroup = J;
unicode = 004A;
},
{
glyphname = K;
lastChange = "2019-11-13 16:16:42 +0000";
layers = (
{
anchors = (
{
name = bottom;
position = "{412, 0}";
},
{
name = top;
position = "{622, 1500}";
}
);
layerId = "60B18B06-8123-4D0C-85E3-2DE7B5C03586";
paths = (
{
closed = 1;
nodes = (
"890 0 LINE",
"690 964 LINE",
"1120 1500 LINE",
"830 1500 LINE",
"466 1048 LINE",
"404 606 LINE",
"466 682 LINE",
"600 0 LINE"
);
},
{
closed = 1;
nodes = (
"340 0 LINE",
"550 1500 LINE",
"280 1500 LINE",
"70 0 LINE"
);
}
);
width = 1002;
},
{
anchors = (
{
name = bottom;
position = "{394, 0}";
},
{
name = top;
position = "{604, 1500}";
}
);
hints = (
{
horizontal = 1;
origin = "{1, 3}";
target = up;
type = BottomGhost;
},
{
horizontal = 1;
origin = "{1, 2}";
target = down;
type = TopGhost;
}
);
layerId = "DDDB0B36-051A-43AE-9F30-611505482296";
paths = (
{
closed = 1;
nodes = (
"850 0 LINE",
"520 922 LINE",
"1002 1500 LINE",
"882 1500 LINE",
"316 830 LINE",
"290 646 LINE",
"434 820 LINE",
"730 0 LINE"
);
},
{
closed = 1;
nodes = (
"220 0 LINE",
"430 1500 LINE",
"320 1500 LINE",
"110 0 LINE"
);
}
);
width = 974;
}
);
leftKerningGroup = I;
note = K;
rightKerningGroup = K;
unicode = 004B;
},
{
glyphname = L;
lastChange = "2019-11-13 16:16:42 +0000";
layers = (
{
anchors = (
{
name = bottom;
position = "{278, 0}";
},
{
name = center;
position = "{308, 750}";
},
{
name = top;
position = "{488, 1500}";
},
{
name = topright;
position = "{794, 1500}";
}
);
layerId = "60B18B06-8123-4D0C-85E3-2DE7B5C03586";
paths = (
{
closed = 1;
nodes = (
"280 1500 LINE",
"70 0 LINE",
"650 0 LINE",
"688 270 LINE",
"378 270 LINE",
"550 1500 LINE"
);
}
);
width = 758;
},
{
anchors = (
{
name = bottom;
position = "{298, 0}";
},
{
name = center;
position = "{270, 750}";
},
{
name = top;
position = "{508, 1500}";
},
{
name = topright;
position = "{836, 1500}";
}
);
hints = (
{
horizontal = 1;
origin = "{0, 1}";
target = "{0, 4}";
type = Stem;
},
{
horizontal = 1;
origin = "{0, 0}";
target = down;
type = TopGhost;
}
);
layerId = "DDDB0B36-051A-43AE-9F30-611505482296";
paths = (
{
closed = 1;
nodes = (
"320 1500 LINE",
"110 0 LINE",
"670 0 LINE",
"686 110 LINE",
"236 110 LINE",
"430 1500 LINE"
);
}
);
width = 790;
}
);
leftKerningGroup = I;
note = L;
rightKerningGroup = L;
unicode = 004C;
},
{
glyphname = M;
lastChange = "2019-11-13 16:16:42 +0000";
layers = (
{
layerId = "60B18B06-8123-4D0C-85E3-2DE7B5C03586";
paths = (
{
closed = 1;
nodes = (
"320 0 LINE",
"426 762 LINE",
"394 756 LINE",
"500 0 LINE",
"672 0 LINE",
"990 756 LINE",
"958 762 LINE",
"852 0 LINE",
"1102 0 LINE",
"1312 1500 LINE",
"1072 1500 LINE",
"602 338 LINE",
"666 338 LINE",
"520 1500 LINE",
"280 1500 LINE",
"70 0 LINE"
);
}
);
width = 1326;
},
{
hints = (
{
horizontal = 1;
origin = "{0, 15}";
target = up;
type = BottomGhost;
},
{
horizontal = 1;
origin = "{0, 14}";
target = down;
type = TopGhost;
}
);
layerId = "DDDB0B36-051A-43AE-9F30-611505482296";
paths = (
{
closed = 1;
nodes = (
"220 0 LINE",
"390 1210 LINE",
"376 1208 LINE",
"520 0 LINE",
"620 0 LINE",
"1100 1208 LINE",
"1090 1210 LINE",
"920 0 LINE",
"1030 0 LINE",
"1240 1500 LINE",
"1112 1500 LINE",
"582 172 LINE",
"606 172 LINE",
"448 1500 LINE",
"320 1500 LINE",
"110 0 LINE"
);
}
);
width = 1292;
}
);
leftKerningGroup = I;
note = M;
rightKerningGroup = I;
unicode = 004D;
},
{
glyphname = N;
lastChange = "2019-11-13 16:16:42 +0000";
layers = (
{
anchors = (
{
name = bottom;
position = "{430, 0}";
},
{
name = top;
position = "{640, 1500}";
}
);
layerId = "60B18B06-8123-4D0C-85E3-2DE7B5C03586";
paths = (
{
closed = 1;
nodes = (
"320 0 LINE",
"456 974 LINE",
"384 972 LINE",
"590 0 LINE",
"790 0 LINE",
"1000 1500 LINE",
"750 1500 LINE",
"614 526 LINE",
"686 528 LINE",
"480 1500 LINE",
"280 1500 LINE",
"70 0 LINE"
);
}
);
width = 1014;
},
{
anchors = (
{
name = bottom;
position = "{460, 0}";
},
{
name = top;
position = "{670, 1500}";
}
);
hints = (
{
horizontal = 1;
origin = "{0, 11}";
target = up;
type = BottomGhost;
},
{
horizontal = 1;
origin = "{0, 10}";
target = down;
type = TopGhost;
}
);
layerId = "DDDB0B36-051A-43AE-9F30-611505482296";
paths = (
{
closed = 1;
nodes = (
"220 0 LINE",
"404 1312 LINE",
"370 1306 LINE",
"700 0 LINE",
"810 0 LINE",
"1020 1500 LINE",
"910 1500 LINE",
"726 188 LINE",
"760 194 LINE",
"430 1500 LINE",
"320 1500 LINE",
"110 0 LINE"
);
}
);
width = 1072;
}
);
leftKerningGroup = I;
note = N;
rightKerningGroup = I;
unicode = 004E;
},
{
glyphname = O;
lastChange = "2019-11-13 16:17:00 +0000";
layers = (
{
anchors = (
{
name = bottom;
position = "{416, 0}";
},
{
name = center;
position = "{522, 750}";
},
{
name = ogonek;
position = "{462, 20}";
},
{
name = top;
position = "{626, 1500}";
}
);
layerId = "60B18B06-8123-4D0C-85E3-2DE7B5C03586";
paths = (
{
closed = 1;
nodes = (
"638 -32 OFFCURVE",
"803 116 OFFCURVE",
"834 338 CURVE SMOOTH",
"950 1162 LINE SMOOTH",
"981 1384 OFFCURVE",
"854 1532 OFFCURVE",
"630 1532 CURVE SMOOTH",
"407 1532 OFFCURVE",
"241 1384 OFFCURVE",
"210 1162 CURVE SMOOTH",
"94 338 LINE SMOOTH",
"63 116 OFFCURVE",
"188 -32 OFFCURVE",
"412 -32 CURVE SMOOTH"
);
},
{
closed = 1;
nodes = (
"385 238 OFFCURVE",
"356 278 OFFCURVE",
"364 338 CURVE SMOOTH",
"480 1162 LINE SMOOTH",
"488 1222 OFFCURVE",
"531 1262 OFFCURVE",
"594 1262 CURVE SMOOTH",
"656 1262 OFFCURVE",
"688 1222 OFFCURVE",
"680 1162 CURVE SMOOTH",
"564 338 LINE SMOOTH",
"556 278 OFFCURVE",
"512 238 OFFCURVE",
"449 238 CURVE SMOOTH"
);
}
);
width = 988;
},
{
anchors = (
{
name = bottom;
position = "{438, 0}";
},
{
name = center;
position = "{544, 750}";
},
{
name = ogonek;
position = "{504, 20}";
},
{
name = top;
position = "{648, 1500}";
}
);
hints = (
{
horizontal = 1;
origin = "{0, 13}";
target = "{1, 13}";
type = Stem;
},
{
horizontal = 1;
origin = "{0, 6}";
target = "{1, 6}";
type = Stem;
}
);
layerId = "DDDB0B36-051A-43AE-9F30-611505482296";
paths = (
{
closed = 1;
nodes = (
"644 -32 OFFCURVE",
"805 116 OFFCURVE",
"836 338 CURVE SMOOTH",
"952 1162 LINE SMOOTH",
"983 1384 OFFCURVE",
"860 1532 OFFCURVE",
"652 1532 CURVE SMOOTH",
"445 1532 OFFCURVE",
"283 1384 OFFCURVE",
"252 1162 CURVE SMOOTH",
"136 338 LINE SMOOTH",
"105 116 OFFCURVE",
"226 -32 OFFCURVE",
"434 -32 CURVE SMOOTH"
);
},
{
closed = 1;
nodes = (
"306 78 OFFCURVE",
"224 182 OFFCURVE",
"246 338 CURVE SMOOTH",
"362 1162 LINE SMOOTH",
"384 1318 OFFCURVE",
"494 1422 OFFCURVE",
"638 1422 CURVE SMOOTH",
"781 1422 OFFCURVE",
"864 1318 OFFCURVE",
"842 1162 CURVE SMOOTH",
"726 338 LINE SMOOTH",
"704 182 OFFCURVE",
"592 78 OFFCURVE",
"450 78 CURVE SMOOTH"
);
}
);
width = 1028;
}
);
leftKerningGroup = O;
note = O;
rightKerningGroup = O;
unicode = 004F;
},
{
glyphname = OE;
lastChange = "2019-11-13 16:17:00 +0000";
layers = (
{
anchors = (
{
name = bottom;
position = "{440, 0}";
},
{
name = center;
position = "{546, 750}";
},
{
name = ogonek;
position = "{506, 20}";
},
{
name = top;
position = "{650, 1500}";
}
);
hints = (
{
horizontal = 1;
origin = "{0, 25}";
target = "{1, 13}";
type = Stem;
},
{
horizontal = 1;
origin = "{0, 7}";
target = "{0, 10}";
type = Stem;
},
{
horizontal = 1;
origin = "{0, 14}";
target = "{0, 11}";
type = Stem;
},
{
horizontal = 1;
origin = "{0, 3}";
target = "{0, 6}";
type = Stem;
},
{
horizontal = 1;
origin = "{0, 18}";
target = "{1, 6}";
type = Stem;
}
);
layerId = "DDDB0B36-051A-43AE-9F30-611505482296";
paths = (
{
closed = 1;
nodes = (
"534 -32 OFFCURVE",
"618 0 OFFCURVE",
"686 56 CURVE",
"678 0 LINE",
"1278 0 LINE",
"1294 110 LINE",
"804 110 LINE",
"884 680 LINE",
"1320 680 LINE",
"1336 790 LINE",
"900 790 LINE",
"984 1390 LINE",
"1474 1390 LINE",
"1488 1500 LINE",
"888 1500 LINE",
"880 1444 LINE",
"828 1500 OFFCURVE",
"750 1532 OFFCURVE",
"652 1532 CURVE SMOOTH",
"444 1532 OFFCURVE",
"283 1384 OFFCURVE",
"252 1162 CURVE SMOOTH",
"136 338 LINE SMOOTH",
"105 116 OFFCURVE",
"225 -32 OFFCURVE",
"436 -32 CURVE SMOOTH"
);
},
{
closed = 1;
nodes = (
"306 78 OFFCURVE",
"224 182 OFFCURVE",
"246 338 CURVE SMOOTH",
"362 1162 LINE SMOOTH",
"384 1318 OFFCURVE",
"494 1422 OFFCURVE",
"638 1422 CURVE SMOOTH",
"781 1422 OFFCURVE",
"864 1318 OFFCURVE",
"842 1162 CURVE SMOOTH",
"726 338 LINE SMOOTH",
"704 182 OFFCURVE",
"592 78 OFFCURVE",
"450 78 CURVE SMOOTH"
);
}
);
width = 1437;
},
{
anchors = (
{
name = bottom;
position = "{416, 0}";
},
{
name = center;
position = "{522, 750}";
},
{
name = ogonek;
position = "{462, 20}";
},
{
name = top;
position = "{626, 1500}";
}
);
layerId = "60B18B06-8123-4D0C-85E3-2DE7B5C03586";
paths = (
{
closed = 1;
nodes = (
"532 -32 OFFCURVE",
"636 10 OFFCURVE",
"710 82 CURVE",
"698 0 LINE",
"1318 0 LINE",
"1356 270 LINE",
"1006 270 LINE",
"1062 660 LINE",
"1358 660 LINE",
"1394 930 LINE",
"1098 930 LINE",
"1140 1230 LINE",
"1490 1230 LINE",
"1528 1500 LINE",
"908 1500 LINE",
"898 1418 LINE",
"844 1490 OFFCURVE",
"748 1532 OFFCURVE",
"630 1532 CURVE SMOOTH",
"406 1532 OFFCURVE",
"241 1384 OFFCURVE",
"210 1162 CURVE SMOOTH",
"94 338 LINE SMOOTH",
"63 116 OFFCURVE",
"188 -32 OFFCURVE",
"412 -32 CURVE SMOOTH"
);
},
{
closed = 1;
nodes = (
"385 238 OFFCURVE",
"356 278 OFFCURVE",
"364 338 CURVE SMOOTH",
"480 1162 LINE SMOOTH",
"488 1222 OFFCURVE",
"531 1262 OFFCURVE",
"594 1262 CURVE SMOOTH",
"656 1262 OFFCURVE",
"688 1222 OFFCURVE",
"680 1162 CURVE SMOOTH",
"564 338 LINE SMOOTH",
"556 278 OFFCURVE",
"512 238 OFFCURVE",
"449 238 CURVE SMOOTH"
);
}
);
width = 1484;
}
);
leftKerningGroup = O;
leftMetricsKey = O;
rightKerningGroup = E;
rightMetricsKey = E;
unicode = 0152;
},
{
glyphname = P;
lastChange = "2019-11-13 16:17:00 +0000";
layers = (
{
anchors = (
{
name = bottom;
position = "{384, 0}";
},
{
name = top;
position = "{594, 1500}";
}
);
layerId = "60B18B06-8123-4D0C-85E3-2DE7B5C03586";
paths = (
{
closed = 1;
nodes = (
"340 0 LINE",
"418 560 LINE",
"518 560 LINE SMOOTH",
"738 560 OFFCURVE",
"908 702 OFFCURVE",
"940 930 CURVE SMOOTH",
"968 1130 LINE SMOOTH",
"1000 1360 OFFCURVE",
"868 1500 OFFCURVE",
"650 1500 CURVE SMOOTH",
"280 1500 LINE",
"70 0 LINE"
);
},
{
closed = 1;
nodes = (
"512 1230 LINE",
"612 1230 LINE SMOOTH",
"678 1230 OFFCURVE",
"706 1190 OFFCURVE",
"698 1130 CURVE SMOOTH",
"670 930 LINE SMOOTH",
"662 870 OFFCURVE",
"617 830 OFFCURVE",
"556 830 CURVE SMOOTH",
"456 830 LINE"
);
}
);
width = 940;
},
{
anchors = (
{
name = bottom;
position = "{388, 0}";
},
{
name = top;
position = "{598, 1500}";
}
);
hints = (
{
horizontal = 1;
origin = "{0, 11}";
target = up;
type = BottomGhost;
},
{
horizontal = 1;
origin = "{0, 1}";
target = "{1, 9}";
type = Stem;
},
{
horizontal = 1;
origin = "{0, 10}";
target = "{1, 0}";
type = Stem;
}
);
layerId = "DDDB0B36-051A-43AE-9F30-611505482296";
paths = (
{
closed = 1;
nodes = (
"220 0 LINE",
"316 690 LINE",
"576 690 LINE SMOOTH",
"756 690 OFFCURVE",
"902 816 OFFCURVE",
"932 1020 CURVE SMOOTH",
"954 1170 LINE SMOOTH",
"983 1368 OFFCURVE",
"874 1500 OFFCURVE",
"690 1500 CURVE SMOOTH",
"320 1500 LINE",
"110 0 LINE"
);
},
{
closed = 1;
nodes = (
"414 1390 LINE",
"674 1390 LINE SMOOTH",
"792 1390 OFFCURVE",
"863 1302 OFFCURVE",
"844 1170 CURVE SMOOTH",
"822 1020 LINE SMOOTH",
"803 888 OFFCURVE",
"711 800 OFFCURVE",
"592 800 CURVE SMOOTH",
"332 800 LINE"
);
}
);
width = 954;
},
{
associatedMasterId = "DDDB0B36-051A-43AE-9F30-611505482296";
layerId = "717232E1-C685-40E8-BA8C-325482597663";
name = "Apr 29 18, 11:00";
paths = (
{
closed = 1;
nodes = (
"556 690 LINE SMOOTH",
"742 690 OFFCURVE",
"866 822 OFFCURVE",
"866 1020 CURVE SMOOTH",
"866 1170 LINE SMOOTH",
"866 1368 OFFCURVE",
"742 1500 OFFCURVE",
"556 1500 CURVE SMOOTH",
"186 1500 LINE",
"186 690 LINE"
);
},
{
closed = 1;
nodes = (
"296 1390 LINE",
"556 1390 LINE SMOOTH",
"676 1390 OFFCURVE",
"756 1302 OFFCURVE",
"756 1170 CURVE SMOOTH",
"756 1020 LINE SMOOTH",
"756 888 OFFCURVE",
"676 800 OFFCURVE",
"556 800 CURVE SMOOTH",
"296 800 LINE"
);
},
{
closed = 1;
nodes = (
"296 1500 LINE",
"186 1500 LINE",
"186 0 LINE",
"296 0 LINE"
);
}
);
width = 954;
}
);
leftKerningGroup = I;
note = P;
rightKerningGroup = P;
unicode = 0050;
},
{
glyphname = Thorn;
lastChange = "2019-11-13 16:17:00 +0000";
layers = (
{
hints = (
{
horizontal = 1;
origin = "{0, 13}";
target = up;
type = BottomGhost;
},
{
horizontal = 1;
origin = "{0, 1}";
target = "{1, 9}";
type = Stem;
},
{
horizontal = 1;
origin = "{1, 0}";
target = "{0, 10}";
type = Stem;
}
);
layerId = "DDDB0B36-051A-43AE-9F30-611505482296";
paths = (
{
closed = 1;
nodes = (
"220 0 LINE",
"282 444 LINE",
"542 444 LINE SMOOTH",
"722 444 OFFCURVE",
"868 570 OFFCURVE",
"898 774 CURVE SMOOTH",
"920 924 LINE SMOOTH",
"948 1114 OFFCURVE",
"847 1254 OFFCURVE",
"656 1254 CURVE SMOOTH",
"396 1254 LINE",
"430 1500 LINE",
"320 1500 LINE",
"110 0 LINE"
);
},
{
closed = 1;
nodes = (
"380 1144 LINE",
"640 1144 LINE SMOOTH",
"758 1144 OFFCURVE",
"829 1056 OFFCURVE",
"810 924 CURVE SMOOTH",
"788 774 LINE SMOOTH",
"769 642 OFFCURVE",
"677 554 OFFCURVE",
"558 554 CURVE SMOOTH",
"298 554 LINE"
);
}
);
width = 955;
},
{
layerId = "60B18B06-8123-4D0C-85E3-2DE7B5C03586";
paths = (
{
closed = 1;
nodes = (
"340 0 LINE",
"392 378 LINE",
"492 378 LINE SMOOTH",
"723 378 OFFCURVE",
"884 532 OFFCURVE",
"914 748 CURVE SMOOTH",
"942 948 LINE SMOOTH",
"972 1162 OFFCURVE",
"857 1318 OFFCURVE",
"624 1318 CURVE SMOOTH",
"524 1318 LINE",
"550 1500 LINE",
"280 1500 LINE",
"70 0 LINE"
);
},
{
closed = 1;
nodes = (
"486 1048 LINE",
"586 1048 LINE SMOOTH",
"650 1048 OFFCURVE",
"680 1008 OFFCURVE",
"672 948 CURVE SMOOTH",
"644 748 LINE SMOOTH",
"636 688 OFFCURVE",
"591 648 OFFCURVE",
"530 648 CURVE SMOOTH",
"430 648 LINE"
);
}
);
width = 939;
}
);
leftKerningGroup = I;
leftMetricsKey = P;
rightKerningGroup = P;
rightMetricsKey = P;
unicode = 00DE;
},
{
glyphname = Q;
lastChange = "2019-11-13 16:17:00 +0000";
layers = (
{
layerId = "60B18B06-8123-4D0C-85E3-2DE7B5C03586";
paths = (
{
closed = 1;
nodes = (
"742 -184 LINE",
"684 438 LINE",
"406 438 LINE",
"468 -184 LINE"
);
},
{
closed = 1;
nodes = (
"638 -32 OFFCURVE",
"803 116 OFFCURVE",
"834 338 CURVE SMOOTH",
"950 1162 LINE SMOOTH",
"981 1384 OFFCURVE",
"854 1532 OFFCURVE",
"630 1532 CURVE SMOOTH",
"407 1532 OFFCURVE",
"241 1384 OFFCURVE",
"210 1162 CURVE SMOOTH",
"94 338 LINE SMOOTH",
"63 116 OFFCURVE",
"188 -32 OFFCURVE",
"412 -32 CURVE SMOOTH"
);
},
{
closed = 1;
nodes = (
"385 238 OFFCURVE",
"356 278 OFFCURVE",
"364 338 CURVE SMOOTH",
"480 1162 LINE SMOOTH",
"488 1222 OFFCURVE",
"531 1262 OFFCURVE",
"594 1262 CURVE SMOOTH",
"656 1262 OFFCURVE",
"688 1222 OFFCURVE",
"680 1162 CURVE SMOOTH",
"564 338 LINE SMOOTH",
"556 278 OFFCURVE",
"512 238 OFFCURVE",
"449 238 CURVE SMOOTH"
);
}
);
width = 988;
},
{
hints = (
{
horizontal = 1;
origin = "{1, 13}";
target = "{2, 13}";
type = Stem;
},
{
horizontal = 1;
origin = "{1, 6}";
target = "{2, 6}";
type = Stem;
}
);
layerId = "DDDB0B36-051A-43AE-9F30-611505482296";
paths = (
{
closed = 1;
nodes = (
"680 -180 LINE",
"554 438 LINE",
"442 438 LINE",
"568 -180 LINE"
);
},
{
closed = 1;
nodes = (
"644 -32 OFFCURVE",
"805 116 OFFCURVE",
"836 338 CURVE SMOOTH",
"952 1162 LINE SMOOTH",
"983 1384 OFFCURVE",
"860 1532 OFFCURVE",
"652 1532 CURVE SMOOTH",
"445 1532 OFFCURVE",
"283 1384 OFFCURVE",
"252 1162 CURVE SMOOTH",
"136 338 LINE SMOOTH",
"105 116 OFFCURVE",
"226 -32 OFFCURVE",
"434 -32 CURVE SMOOTH"
);
},
{
closed = 1;
nodes = (
"306 78 OFFCURVE",
"224 182 OFFCURVE",
"246 338 CURVE SMOOTH",
"362 1162 LINE SMOOTH",
"384 1318 OFFCURVE",
"494 1422 OFFCURVE",
"638 1422 CURVE SMOOTH",
"781 1422 OFFCURVE",
"864 1318 OFFCURVE",
"842 1162 CURVE SMOOTH",
"726 338 LINE SMOOTH",
"704 182 OFFCURVE",
"592 78 OFFCURVE",
"450 78 CURVE SMOOTH"
);
}
);
width = 1028;
}
);
leftKerningGroup = O;
note = Q;
rightKerningGroup = O;
unicode = 0051;
},
{
glyphname = R;
lastChange = "2019-11-13 16:17:00 +0000";
layers = (
{
anchors = (
{
name = bottom;
position = "{428, 0}";
},
{
name = top;
position = "{638, 1500}";
}
);
layerId = "60B18B06-8123-4D0C-85E3-2DE7B5C03586";
paths = (
{
closed = 1;
nodes = (
"340 0 LINE",
"412 520 LINE",
"512 520 LINE SMOOTH",
"576 520 OFFCURVE",
"606 480 OFFCURVE",
"598 420 CURVE SMOOTH",
"540 0 LINE",
"810 0 LINE",
"868 420 LINE SMOOTH",
"884 536 OFFCURVE",
"830 615 OFFCURVE",
"720 660 CURVE",
"728 572 LINE",
"842 638 OFFCURVE",
"914 750 OFFCURVE",
"934 890 CURVE SMOOTH",
"968 1130 LINE SMOOTH",
"999 1349 OFFCURVE",
"877 1500 OFFCURVE",
"650 1500 CURVE SMOOTH",
"280 1500 LINE",
"70 0 LINE"
);
},
{
closed = 1;
nodes = (
"512 1230 LINE",
"612 1230 LINE SMOOTH",
"678 1230 OFFCURVE",
"706 1188 OFFCURVE",
"698 1130 CURVE SMOOTH",
"664 890 LINE SMOOTH",
"655 827 OFFCURVE",
"609 790 OFFCURVE",
"550 790 CURVE SMOOTH",
"450 790 LINE"
);
}
);
width = 1010;
},
{
associatedMasterId = "60B18B06-8123-4D0C-85E3-2DE7B5C03586";
layerId = "39C2CA93-2650-459A-BE0E-7AE4DC651A2C";
name = "Apr 25 18, 16:34";
paths = (
{
closed = 1;
nodes = (
"298 562 LINE",
"462 562 LINE SMOOTH",
"548 562 OFFCURVE",
"622 488 OFFCURVE",
"622 400 CURVE SMOOTH",
"622 0 LINE",
"816 0 LINE",
"816 400 LINE SMOOTH",
"816 498 OFFCURVE",
"774 598 OFFCURVE",
"698 664 CURVE",
"760 728 OFFCURVE",
"802 818 OFFCURVE",
"802 908 CURVE SMOOTH",
"802 1152 LINE SMOOTH",
"802 1344 OFFCURVE",
"644 1500 OFFCURVE",
"452 1500 CURVE SMOOTH",
"104 1500 LINE",
"104 0 LINE",
"298 0 LINE"
);
},
{
closed = 1;
nodes = (
"452 1308 LINE SMOOTH",
"538 1308 OFFCURVE",
"606 1238 OFFCURVE",
"606 1152 CURVE SMOOTH",
"606 908 LINE SMOOTH",
"606 826 OFFCURVE",
"542 754 OFFCURVE",
"460 754 CURVE SMOOTH",
"298 754 LINE",
"298 1308 LINE"
);
}
);
width = 908;
},
{
anchors = (
{
name = bottom;
position = "{438, 0}";
},
{
name = top;
position = "{648, 1500}";
}
);
hints = (
{
horizontal = 1;
origin = "{0, 21}";
target = up;
type = BottomGhost;
},
{
horizontal = 1;
origin = "{0, 1}";
target = "{1, 9}";
type = Stem;
},
{
horizontal = 1;
origin = "{0, 20}";
target = "{1, 0}";
type = Stem;
}
);
layerId = "DDDB0B36-051A-43AE-9F30-611505482296";
paths = (
{
closed = 1;
nodes = (
"220 0 LINE",
"310 650 LINE",
"570 650 LINE SMOOTH",
"686 650 OFFCURVE",
"759 574 OFFCURVE",
"742 450 CURVE SMOOTH",
"680 0 LINE",
"790 0 LINE",
"852 450 LINE SMOOTH",
"870 580 OFFCURVE",
"815 672 OFFCURVE",
"724 712 CURVE",
"722 682 LINE",
"832 734 OFFCURVE",
"909 842 OFFCURVE",
"928 980 CURVE SMOOTH",
"954 1170 LINE SMOOTH",
"982 1376 OFFCURVE",
"868 1500 OFFCURVE",
"690 1500 CURVE SMOOTH",
"320 1500 LINE",
"110 0 LINE"
);
},
{
closed = 1;
nodes = (
"414 1390 LINE",
"674 1390 LINE SMOOTH",
"794 1390 OFFCURVE",
"862 1302 OFFCURVE",
"844 1170 CURVE SMOOTH",
"818 980 LINE SMOOTH",
"800 848 OFFCURVE",
"705 760 OFFCURVE",
"586 760 CURVE SMOOTH",
"326 760 LINE"
);
}
);
width = 1028;
}
);
leftKerningGroup = I;
note = R;
rightKerningGroup = R;
unicode = 0052;
},
{
glyphname = S;
lastChange = "2019-11-13 16:17:00 +0000";
layers = (
{
anchors = (
{
name = bottom;
position = "{388, 0}";
},
{
name = top;
position = "{598, 1500}";
}
);
layerId = "60B18B06-8123-4D0C-85E3-2DE7B5C03586";
paths = (
{
closed = 1;
nodes = (
"613 -32 OFFCURVE",
"776 116 OFFCURVE",
"808 338 CURVE SMOOTH",
"830 492 LINE SMOOTH",
"862 714 OFFCURVE",
"892 741 OFFCURVE",
"512 862 CURVE SMOOTH",
"416 892 OFFCURVE",
"416 893 OFFCURVE",
"426 962 CURVE SMOOTH",
"454 1162 LINE SMOOTH",
"462 1222 OFFCURVE",
"504 1262 OFFCURVE",
"568 1262 CURVE SMOOTH",
"626 1262 OFFCURVE",
"664 1226 OFFCURVE",
"654 1162 CURVE SMOOTH",
"642 1082 LINE",
"912 1082 LINE",
"924 1162 LINE SMOOTH",
"957 1384 OFFCURVE",
"828 1532 OFFCURVE",
"604 1532 CURVE SMOOTH",
"379 1532 OFFCURVE",
"215 1383 OFFCURVE",
"184 1162 CURVE SMOOTH",
"156 962 LINE SMOOTH",
"124 736 OFFCURVE",
"96 712 OFFCURVE",
"474 592 CURVE SMOOTH",
"570 562 OFFCURVE",
"570 561 OFFCURVE",
"560 492 CURVE SMOOTH",
"538 338 LINE SMOOTH",
"529 278 OFFCURVE",
"487 238 OFFCURVE",
"423 238 CURVE SMOOTH",
"354 238 OFFCURVE",
"330 284 OFFCURVE",
"338 338 CURVE SMOOTH",
"350 418 LINE",
"80 418 LINE",
"68 338 LINE SMOOTH",
"35 116 OFFCURVE",
"162 -32 OFFCURVE",
"387 -32 CURVE SMOOTH"
);
}
);
width = 930;
},
{
anchors = (
{
name = bottom;
position = "{398, 0}";
},
{
name = top;
position = "{608, 1500}";
}
);
hints = (
{
horizontal = 1;
origin = "{0, 45}";
target = "{0, 36}";
type = Stem;
},
{
horizontal = 1;
origin = "{0, 29}";
target = "{0, 6}";
type = Stem;
},
{
horizontal = 1;
origin = "{0, 22}";
target = "{0, 13}";
type = Stem;
}
);
layerId = "DDDB0B36-051A-43AE-9F30-611505482296";
paths = (
{
closed = 1;
nodes = (
"605 -32 OFFCURVE",
"764 116 OFFCURVE",
"796 338 CURVE SMOOTH",
"810 436 LINE SMOOTH",
"846 691 OFFCURVE",
"846 684 OFFCURVE",
"512 806 CURVE SMOOTH",
"283 890 OFFCURVE",
"282 888 OFFCURVE",
"308 1066 CURVE SMOOTH",
"322 1162 LINE SMOOTH",
"345 1318 OFFCURVE",
"456 1422 OFFCURVE",
"598 1422 CURVE SMOOTH",
"741 1422 OFFCURVE",
"825 1318 OFFCURVE",
"802 1162 CURVE SMOOTH",
"796 1122 LINE",
"906 1122 LINE",
"912 1162 LINE SMOOTH",
"945 1384 OFFCURVE",
"821 1532 OFFCURVE",
"612 1532 CURVE SMOOTH",
"404 1532 OFFCURVE",
"244 1384 OFFCURVE",
"212 1162 CURVE SMOOTH",
"198 1066 LINE SMOOTH",
"161 809 OFFCURVE",
"161 818 OFFCURVE",
"496 696 CURVE SMOOTH",
"725 612 OFFCURVE",
"725 614 OFFCURVE",
"700 436 CURVE SMOOTH",
"686 338 LINE SMOOTH",
"664 182 OFFCURVE",
"552 78 OFFCURVE",
"410 78 CURVE SMOOTH",
"267 78 OFFCURVE",
"183 182 OFFCURVE",
"206 338 CURVE SMOOTH",
"212 378 LINE",
"102 378 LINE",
"96 338 LINE SMOOTH",
"63 116 OFFCURVE",
"186 -32 OFFCURVE",
"395 -32 CURVE SMOOTH"
);
}
);
width = 948;
}
);
leftKerningGroup = S;
note = S;
rightKerningGroup = S;
unicode = 0053;
},
{
glyphname = T;
lastChange = "2019-11-13 16:16:42 +0000";
layers = (
{
anchors = (
{
name = bottom;
position = "{286, 0}";
},
{
name = center;
position = "{404, 750}";
},
{
name = top;
position = "{510, 1500}";
}
);
layerId = "60B18B06-8123-4D0C-85E3-2DE7B5C03586";
paths = (
{
closed = 1;
nodes = (
"434 0 LINE",
"606 1230 LINE",
"826 1230 LINE",
"864 1500 LINE",
"154 1500 LINE",
"116 1230 LINE",
"336 1230 LINE",
"164 0 LINE"
);
}
);
width = 750;
},
{
anchors = (
{
name = bottom;
position = "{294, 0}";
},
{
name = center;
position = "{400, 750}";
},
{
name = top;
position = "{506, 1500}";
}
);
hints = (
{
horizontal = 1;
origin = "{0, 7}";
target = up;
type = BottomGhost;
},
{
horizontal = 1;
origin = "{0, 4}";
target = "{0, 5}";
type = Stem;
}
);
layerId = "DDDB0B36-051A-43AE-9F30-611505482296";
paths = (
{
closed = 1;
nodes = (
"350 0 LINE",
"544 1390 LINE",
"814 1390 LINE",
"830 1500 LINE",
"180 1500 LINE",
"164 1390 LINE",
"434 1390 LINE",
"240 0 LINE"
);
}
);
width = 740;
}
);
leftKerningGroup = T;
note = T;
rightKerningGroup = T;
unicode = 0054;
},
{
glyphname = U;
lastChange = "2019-11-13 16:17:00 +0000";
layers = (
{
anchors = (
{
name = bottom;
position = "{430, 0}";
},
{
name = ogonek;
position = "{430, 0}";
},
{
name = top;
position = "{640, 1500}";
}
);
layerId = "60B18B06-8123-4D0C-85E3-2DE7B5C03586";
paths = (
{
closed = 1;
nodes = (
"740 1500 LINE",
"578 338 LINE SMOOTH",
"570 278 OFFCURVE",
"526 238 OFFCURVE",
"463 238 CURVE SMOOTH",
"399 238 OFFCURVE",
"370 278 OFFCURVE",
"378 338 CURVE SMOOTH",
"540 1500 LINE",
"270 1500 LINE",
"108 338 LINE SMOOTH",
"76 108 OFFCURVE",
"208 -32 OFFCURVE",
"426 -32 CURVE SMOOTH",
"647 -32 OFFCURVE",
"816 110 OFFCURVE",
"848 338 CURVE SMOOTH",
"1010 1500 LINE"
);
}
);
width = 1014;
},
{
anchors = (
{
name = bottom;
position = "{452, 0}";
},
{
name = ogonek;
position = "{450, 0}";
},
{
name = top;
position = "{662, 1500}";
}
);
hints = (
{
horizontal = 1;
origin = "{0, 13}";
target = "{0, 4}";
type = Stem;
},
{
horizontal = 1;
origin = "{0, 9}";
target = down;
type = TopGhost;
}
);
layerId = "DDDB0B36-051A-43AE-9F30-611505482296";
paths = (
{
closed = 1;
nodes = (
"900 1500 LINE",
"738 338 LINE SMOOTH",
"716 182 OFFCURVE",
"606 78 OFFCURVE",
"462 78 CURVE SMOOTH",
"319 78 OFFCURVE",
"236 182 OFFCURVE",
"258 338 CURVE SMOOTH",
"420 1500 LINE",
"310 1500 LINE",
"148 338 LINE SMOOTH",
"116 108 OFFCURVE",
"244 -32 OFFCURVE",
"446 -32 CURVE SMOOTH",
"651 -32 OFFCURVE",
"816 110 OFFCURVE",
"848 338 CURVE SMOOTH",
"1010 1500 LINE"
);
}
);
width = 1052;
}
);
leftKerningGroup = U;
note = U;
rightKerningGroup = U;
unicode = 0055;
},
{
glyphname = V;
lastChange = "2019-11-13 16:16:42 +0000";
layers = (
{
layerId = "60B18B06-8123-4D0C-85E3-2DE7B5C03586";
paths = (
{
closed = 1;
nodes = (
"530 0 LINE",
"1018 1500 LINE",
"742 1500 LINE",
"420 382 LINE",
"456 382 LINE",
"440 1500 LINE",
"164 1500 LINE",
"238 0 LINE"
);
}
);
width = 914;
},
{
hints = (
{
horizontal = 1;
origin = "{0, 7}";
target = up;
type = BottomGhost;
},
{
horizontal = 1;
origin = "{0, 6}";
target = down;
type = TopGhost;
}
);
layerId = "DDDB0B36-051A-43AE-9F30-611505482296";
paths = (
{
closed = 1;
nodes = (
"442 0 LINE",
"992 1500 LINE",
"878 1500 LINE",
"402 206 LINE",
"426 206 LINE",
"310 1500 LINE",
"196 1500 LINE",
"326 0 LINE"
);
}
);
width = 920;
}
);
note = V;
unicode = 0056;
},
{
glyphname = W;
lastChange = "2019-11-13 16:16:42 +0000";
layers = (
{
anchors = (
{
name = bottom;
position = "{606, 0}";
},
{
name = top;
position = "{816, 1500}";
}
);
layerId = "60B18B06-8123-4D0C-85E3-2DE7B5C03586";
paths = (
{
closed = 1;
nodes = (
"456 0 LINE",
"754 902 LINE",
"710 902 LINE",
"754 0 LINE",
"1046 0 LINE",
"1440 1500 LINE",
"1164 1500 LINE",
"912 462 LINE",
"944 462 LINE",
"924 1500 LINE",
"706 1500 LINE",
"394 462 LINE",
"426 462 LINE",
"466 1500 LINE",
"190 1500 LINE",
"164 0 LINE"
);
}
);
width = 1362;
},
{
associatedMasterId = "60B18B06-8123-4D0C-85E3-2DE7B5C03586";
layerId = "7AC04416-80C8-4AEE-BAA9-DA417D64F7BF";
name = "Apr 25 18, 16:40";
paths = (
{
closed = 1;
nodes = (
"672 990 LINE",
"824 0 LINE",
"1030 0 LINE",
"1272 1500 LINE",
"1076 1500 LINE",
"926 646 LINE",
"776 1500 LINE",
"570 1500 LINE",
"420 646 LINE",
"270 1500 LINE",
"74 1500 LINE",
"316 0 LINE",
"522 0 LINE"
);
}
);
width = 1346;
},
{
anchors = (
{
name = bottom;
position = "{564, 0}";
},
{
name = top;
position = "{774, 1500}";
}
);
hints = (
{
horizontal = 1;
origin = "{0, 15}";
target = up;
type = BottomGhost;
},
{
horizontal = 1;
origin = "{0, 14}";
target = down;
type = TopGhost;
}
);
layerId = "DDDB0B36-051A-43AE-9F30-611505482296";
paths = (
{
closed = 1;
nodes = (
"344 0 LINE",
"746 1232 LINE",
"728 1232 LINE",
"782 0 LINE",
"898 0 LINE",
"1328 1500 LINE",
"1214 1500 LINE",
"858 224 LINE",
"872 226 LINE",
"826 1500 LINE",
"720 1500 LINE",
"318 226 LINE",
"332 224 LINE",
"332 1500 LINE",
"218 1500 LINE",
"228 0 LINE"
);
}
);
width = 1278;
},
{
associatedMasterId = "DDDB0B36-051A-43AE-9F30-611505482296";
layerId = "F3D4BCD6-DEEE-4411-B041-4C3F669BA026";
name = "Apr 26 18, 11:00";
paths = (
{
closed = 1;
nodes = (
"422 0 LINE",
"674 1500 LINE",
"568 1500 LINE",
"372 274 LINE",
"200 1500 LINE",
"86 1500 LINE",
"306 0 LINE"
);
},
{
closed = 1;
nodes = (
"1156 1500 LINE",
"1042 1500 LINE",
"870 274 LINE",
"674 1500 LINE",
"568 1500 LINE",
"820 0 LINE",
"936 0 LINE"
);
}
);
width = 1200;
}
);
leftKerningGroup = W;
note = W;
rightKerningGroup = W;
unicode = 0057;
},
{
glyphname = X;
lastChange = "2019-11-13 16:16:42 +0000";
layers = (
{
layerId = "60B18B06-8123-4D0C-85E3-2DE7B5C03586";
paths = (
{
closed = 1;
nodes = (
"230 0 LINE",
"490 498 LINE",
"404 498 LINE",
"520 0 LINE",
"796 0 LINE",
"618 750 LINE",
"1006 1500 LINE",
"730 1500 LINE",
"474 1002 LINE",
"560 1002 LINE",
"440 1500 LINE",
"164 1500 LINE",
"342 750 LINE",
"-46 0 LINE"
);
}
);
width = 904;
},
{
hints = (
{
horizontal = 1;
origin = "{0, 13}";
target = up;
type = BottomGhost;
},
{
horizontal = 1;
origin = "{0, 11}";
target = down;
type = TopGhost;
}
);
layerId = "DDDB0B36-051A-43AE-9F30-611505482296";
paths = (
{
closed = 1;
nodes = (
"100 0 LINE",
"498 670 LINE",
"458 670 LINE",
"668 0 LINE",
"782 0 LINE",
"548 752 LINE",
"992 1500 LINE",
"876 1500 LINE",
"480 832 LINE",
"520 832 LINE",
"312 1500 LINE",
"196 1500 LINE",
"432 752 LINE",
"-14 0 LINE"
);
}
);
width = 920;
},
{
associatedMasterId = "60B18B06-8123-4D0C-85E3-2DE7B5C03586";
layerId = "767CC648-F331-45EB-A0E3-CD7EA67E24E4";
name = "Apr 26 18, 11:01";
paths = (
{
closed = 1;
nodes = (
"596 1500 LINE",
"872 1500 LINE",
"306 0 LINE",
"30 0 LINE"
);
},
{
closed = 1;
nodes = (
"872 0 LINE",
"306 1500 LINE",
"30 1500 LINE",
"596 0 LINE"
);
}
);
width = 902;
},
{
associatedMasterId = "DDDB0B36-051A-43AE-9F30-611505482296";
layerId = "ACED6411-93E7-4B74-AFE3-083CFF28D3D2";
name = "Apr 26 18, 11:02";
paths = (
{
closed = 1;
nodes = (
"886 1500 LINE",
"1002 1500 LINE",
"320 0 LINE",
"206 0 LINE"
);
},
{
closed = 1;
nodes = (
"1002 0 LINE",
"322 1500 LINE",
"206 1500 LINE",
"888 0 LINE"
);
}
);
width = 1200;
}
);
note = X;
unicode = 0058;
},
{
glyphname = Y;
lastChange = "2019-11-13 16:16:42 +0000";
layers = (
{
anchors = (
{
name = bottom;
position = "{378, 0}";
},
{
name = top;
position = "{588, 1500}";
}
);
layerId = "60B18B06-8123-4D0C-85E3-2DE7B5C03586";
paths = (
{
closed = 1;
nodes = (
"514 0 LINE",
"610 680 LINE",
"1034 1500 LINE",
"758 1500 LINE",
"464 866 LINE",
"540 866 LINE",
"416 1500 LINE",
"140 1500 LINE",
"340 680 LINE",
"244 0 LINE"
);
}
);
width = 906;
},
{
anchors = (
{
name = bottom;
position = "{402, 0}";
},
{
name = top;
position = "{612, 1500}";
}
);
hints = (
{
horizontal = 1;
origin = "{0, 9}";
target = up;
type = BottomGhost;
},
{
horizontal = 1;
origin = "{0, 7}";
target = down;
type = TopGhost;
}
);
layerId = "DDDB0B36-051A-43AE-9F30-611505482296";
paths = (
{
closed = 1;
nodes = (
"458 0 LINE",
"570 800 LINE",
"1050 1500 LINE",
"936 1500 LINE",
"500 866 LINE",
"548 866 LINE",
"288 1500 LINE",
"174 1500 LINE",
"460 800 LINE",
"348 0 LINE"
);
}
);
width = 956;
}
);
leftKerningGroup = Y;
note = Y;
rightKerningGroup = Y;
unicode = 0059;
},
{
glyphname = Z;
lastChange = "2019-11-13 16:16:42 +0000";
layers = (
{
anchors = (
{
name = bottom;
position = "{362, 0}";
},
{
name = top;
position = "{572, 1500}";
}
);
layerId = "60B18B06-8123-4D0C-85E3-2DE7B5C03586";
paths = (
{
closed = 1;
nodes = (
"736 0 LINE",
"774 270 LINE",
"192 270 LINE",
"248 158 LINE",
"918 1304 LINE",
"946 1500 LINE",
"196 1500 LINE",
"158 1230 LINE",
"740 1230 LINE",
"684 1342 LINE",
"14 196 LINE",
"-14 0 LINE"
);
}
);
width = 876;
},
{
anchors = (
{
name = bottom;
position = "{338, 0}";
},
{
name = top;
position = "{548, 1500}";
}
);
hints = (
{
horizontal = 1;
origin = "{0, 11}";
target = "{0, 2}";
type = Stem;
},
{
horizontal = 1;
origin = "{0, 6}";
target = "{0, 7}";
type = Stem;
}
);
layerId = "DDDB0B36-051A-43AE-9F30-611505482296";
paths = (
{
closed = 1;
nodes = (
"678 0 LINE",
"694 110 LINE",
"84 110 LINE",
"106 64 LINE",
"876 1410 LINE",
"888 1500 LINE",
"210 1500 LINE",
"194 1390 LINE",
"802 1390 LINE",
"778 1436 LINE",
"10 90 LINE",
"0 0 LINE"
);
}
);
width = 828;
}
);
leftKerningGroup = Z;
note = Z;
rightKerningGroup = Z;
unicode = 005A;
},
{
glyphname = G.ss03;
lastChange = "2019-11-13 16:17:00 +0000";
layers = (
{
anchors = (
{
name = bottom;
position = "{416, 0}";
},
{
name = top;
position = "{626, 1500}";
}
);
layerId = "60B18B06-8123-4D0C-85E3-2DE7B5C03586";
paths = (
{
closed = 1;
nodes = (
"638 -32 OFFCURVE",
"803 116 OFFCURVE",
"834 338 CURVE SMOOTH",
"920 950 LINE",
"524 950 LINE",
"486 680 LINE",
"612 680 LINE",
"564 338 LINE SMOOTH",
"556 278 OFFCURVE",
"512 238 OFFCURVE",
"449 238 CURVE SMOOTH",
"385 238 OFFCURVE",
"356 278 OFFCURVE",
"364 338 CURVE SMOOTH",
"480 1162 LINE SMOOTH",
"488 1222 OFFCURVE",
"531 1262 OFFCURVE",
"593 1262 CURVE SMOOTH",
"652 1262 OFFCURVE",
"690 1226 OFFCURVE",
"680 1162 CURVE SMOOTH",
"668 1082 LINE",
"938 1082 LINE",
"950 1162 LINE SMOOTH",
"983 1384 OFFCURVE",
"854 1532 OFFCURVE",
"630 1532 CURVE SMOOTH",
"406 1532 OFFCURVE",
"241 1384 OFFCURVE",
"210 1162 CURVE SMOOTH",
"94 338 LINE SMOOTH",
"63 116 OFFCURVE",
"188 -32 OFFCURVE",
"412 -32 CURVE SMOOTH"
);
}
);
width = 968;
},
{
anchors = (
{
name = bottom;
position = "{438, 0}";
},
{
name = top;
position = "{648, 1500}";
}
);
hints = (
{
horizontal = 1;
origin = "{0, 33}";
target = "{0, 10}";
type = Stem;
},
{
horizontal = 1;
origin = "{0, 5}";
target = "{0, 4}";
type = Stem;
},
{
horizontal = 1;
origin = "{0, 26}";
target = "{0, 17}";
type = Stem;
}
);
layerId = "DDDB0B36-051A-43AE-9F30-611505482296";
paths = (
{
closed = 1;
nodes = (
"639 -32 OFFCURVE",
"804 110 OFFCURVE",
"836 338 CURVE SMOOTH",
"916 910 LINE",
"580 910 LINE",
"564 800 LINE",
"790 800 LINE",
"726 338 LINE SMOOTH",
"704 182 OFFCURVE",
"595 78 OFFCURVE",
"450 78 CURVE SMOOTH",
"306 78 OFFCURVE",
"224 182 OFFCURVE",
"246 338 CURVE SMOOTH",
"362 1162 LINE SMOOTH",
"384 1318 OFFCURVE",
"494 1422 OFFCURVE",
"638 1422 CURVE SMOOTH",
"780 1422 OFFCURVE",
"865 1318 OFFCURVE",
"842 1162 CURVE SMOOTH",
"836 1122 LINE",
"946 1122 LINE",
"952 1162 LINE SMOOTH",
"985 1384 OFFCURVE",
"860 1532 OFFCURVE",
"652 1532 CURVE SMOOTH",
"444 1532 OFFCURVE",
"283 1384 OFFCURVE",
"252 1162 CURVE SMOOTH",
"136 338 LINE SMOOTH",
"105 116 OFFCURVE",
"226 -32 OFFCURVE",
"434 -32 CURVE SMOOTH"
);
}
);
width = 1000;
}
);
leftKerningGroup = O;
note = G;
rightKerningGroup = G;
},
{
glyphname = J.ss04;
lastChange = "2019-11-13 16:17:00 +0000";
layers = (
{
anchors = (
{
name = bottom;
position = "{524, 0}";
},
{
name = top;
position = "{772, 1500}";
}
);
layerId = "60B18B06-8123-4D0C-85E3-2DE7B5C03586";
paths = (
{
closed = 1;
nodes = (
"548 -14 OFFCURVE",
"718 128 OFFCURVE",
"750 356 CURVE SMOOTH",
"910 1500 LINE",
"640 1500 LINE",
"480 356 LINE SMOOTH",
"472 296 OFFCURVE",
"428 256 OFFCURVE",
"366 256 CURVE SMOOTH",
"302 256 OFFCURVE",
"274 296 OFFCURVE",
"280 356 CURVE SMOOTH",
"282 376 LINE",
"12 376 LINE",
"10 356 LINE SMOOTH",
"-13 128 OFFCURVE",
"106 -14 OFFCURVE",
"328 -14 CURVE SMOOTH"
);
}
);
width = 912;
},
{
anchors = (
{
name = bottom;
position = "{532, 0}";
},
{
name = top;
position = "{816, 1500}";
}
);
hints = (
{
horizontal = 1;
origin = "{0, 17}";
target = "{0, 8}";
type = Stem;
},
{
horizontal = 1;
origin = "{0, 4}";
target = down;
type = TopGhost;
}
);
layerId = "DDDB0B36-051A-43AE-9F30-611505482296";
paths = (
{
closed = 1;
nodes = (
"520 -12 OFFCURVE",
"681 136 OFFCURVE",
"712 358 CURVE SMOOTH",
"872 1500 LINE",
"762 1500 LINE",
"602 358 LINE SMOOTH",
"580 202 OFFCURVE",
"468 98 OFFCURVE",
"326 98 CURVE SMOOTH",
"182 98 OFFCURVE",
"106 202 OFFCURVE",
"122 358 CURVE SMOOTH",
"124 378 LINE",
"14 378 LINE",
"12 358 LINE SMOOTH",
"-10 138 OFFCURVE",
"98 -12 OFFCURVE",
"310 -12 CURVE SMOOTH"
);
}
);
width = 912;
}
);
leftKerningGroup = J.ss04;
note = J;
rightKerningGroup = J;
},
{
glyphname = a;
lastChange = "2019-11-13 16:17:00 +0000";
layers = (
{
anchors = (
{
name = bottom;
position = "{380, 0}";
},
{
name = top;
position = "{534, 1100}";
}
);
layerId = "60B18B06-8123-4D0C-85E3-2DE7B5C03586";
paths = (
{
closed = 1;
nodes = (
"392 -26 OFFCURVE",
"476 24 OFFCURVE",
"530 110 CURVE",
"494 168 LINE",
"470 0 LINE",
"720 0 LINE",
"874 1100 LINE",
"624 1100 LINE",
"602 932 LINE",
"654 990 LINE",
"624 1076 OFFCURVE",
"552 1126 OFFCURVE",
"442 1126 CURVE SMOOTH",
"314 1126 OFFCURVE",
"170 1058 OFFCURVE",
"130 776 CURVE SMOOTH",
"66 324 LINE SMOOTH",
"26 42 OFFCURVE",
"152 -26 OFFCURVE",
"282 -26 CURVE SMOOTH"
);
},
{
closed = 1;
nodes = (
"336 224 OFFCURVE",
"308 266 OFFCURVE",
"316 324 CURVE SMOOTH",
"380 776 LINE SMOOTH",
"389 839 OFFCURVE",
"435 876 OFFCURVE",
"494 876 CURVE SMOOTH",
"558 876 OFFCURVE",
"588 834 OFFCURVE",
"580 776 CURVE SMOOTH",
"516 324 LINE SMOOTH",
"508 267 OFFCURVE",
"467 224 OFFCURVE",
"401 224 CURVE SMOOTH"
);
}
);
width = 916;
},
{
anchors = (
{
name = bottom;
position = "{402, 0}";
},
{
name = top;
position = "{554, 1080}";
}
);
hints = (
{
horizontal = 1;
origin = "{0, 19}";
target = "{1, 13}";
type = Stem;
},
{
horizontal = 1;
origin = "{0, 7}";
target = "{1, 6}";
type = Stem;
},
{
horizontal = 1;
origin = "{0, 12}";
target = "{1, 6}";
type = Stem;
},
{
horizontal = 1;
origin = "{1, 13}";
target = "{0, 4}";
type = Stem;
}
);
layerId = "DDDB0B36-051A-43AE-9F30-611505482296";
paths = (
{
closed = 1;
nodes = (
"491 -24 OFFCURVE",
"582 26 OFFCURVE",
"644 108 CURVE",
"630 132 LINE",
"610 0 LINE",
"720 0 LINE",
"872 1080 LINE",
"762 1080 LINE",
"744 948 LINE",
"764 972 LINE",
"724 1056 OFFCURVE",
"647 1104 OFFCURVE",
"534 1104 CURVE SMOOTH",
"342 1104 OFFCURVE",
"179 966 OFFCURVE",
"150 758 CURVE SMOOTH",
"90 324 LINE SMOOTH",
"61 116 OFFCURVE",
"182 -24 OFFCURVE",
"375 -24 CURVE SMOOTH"
);
},
{
closed = 1;
nodes = (
"255 86 OFFCURVE",
"180 182 OFFCURVE",
"200 324 CURVE SMOOTH",
"260 758 LINE SMOOTH",
"280 900 OFFCURVE",
"381 994 OFFCURVE",
"523 994 CURVE SMOOTH",
"669 994 OFFCURVE",
"735 896 OFFCURVE",
"716 758 CURVE SMOOTH",
"656 322 LINE SMOOTH",
"637 183 OFFCURVE",
"541 86 OFFCURVE",
"398 86 CURVE SMOOTH"
);
}
);
width = 946;
}
);
leftKerningGroup = o;
note = a;
rightKerningGroup = d;
unicode = 0061;
},
{
glyphname = ae;
lastChange = "2019-11-13 16:17:00 +0000";
layers = (
{
hints = (
{
horizontal = 1;
origin = "{0, 53}";
target = "{0, 15}";
type = Stem;
},
{
horizontal = 1;
origin = "{0, 19}";
target = "{2, 8}";
type = Stem;
},
{
horizontal = 1;
origin = "{0, 31}";
target = "{0, 40}";
type = Stem;
}
);
layerId = "DDDB0B36-051A-43AE-9F30-611505482296";
paths = (
{
closed = 1;
nodes = (
"465 -24 OFFCURVE",
"599 42 OFFCURVE",
"682 176 CURVE",
"650 174 LINE",
"684 52 OFFCURVE",
"790 -24 OFFCURVE",
"936 -24 CURVE SMOOTH",
"1132 -24 OFFCURVE",
"1303 110 OFFCURVE",
"1324 324 CURVE SMOOTH",
"1326 344 LINE",
"1216 344 LINE",
"1214 324 LINE SMOOTH",
"1200 182 OFFCURVE",
"1092 86 OFFCURVE",
"952 86 CURVE SMOOTH",
"814 86 OFFCURVE",
"735 182 OFFCURVE",
"754 324 CURVE SMOOTH",
"782 532 LINE",
"1352 532 LINE",
"1384 758 LINE SMOOTH",
"1413 964 OFFCURVE",
"1292 1104 OFFCURVE",
"1094 1104 CURVE SMOOTH",
"954 1104 OFFCURVE",
"836 1036 OFFCURVE",
"768 930 CURVE",
"800 930 LINE",
"758 1040 OFFCURVE",
"656 1104 OFFCURVE",
"520 1104 CURVE SMOOTH",
"322 1104 OFFCURVE",
"148 964 OFFCURVE",
"148 758 CURVE SMOOTH",
"148 738 LINE",
"252 738 LINE",
"252 758 LINE SMOOTH",
"252 900 OFFCURVE",
"366 994 OFFCURVE",
"505 994 CURVE SMOOTH",
"645 994 OFFCURVE",
"724 900 OFFCURVE",
"704 758 CURVE SMOOTH",
"700 730 LINE SMOOTH",
"679 582 OFFCURVE",
"456 592 OFFCURVE",
"294 536 CURVE SMOOTH",
"177 495 OFFCURVE",
"40 410 OFFCURVE",
"40 231 CURVE SMOOTH",
"40 75 OFFCURVE",
"144 -24 OFFCURVE",
"321 -24 CURVE SMOOTH"
);
},
{
closed = 1;
nodes = (
"224 84 OFFCURVE",
"152 146 OFFCURVE",
"152 250 CURVE SMOOTH",
"152 367 OFFCURVE",
"243 423 OFFCURVE",
"338 452 CURVE SMOOTH",
"444 484 OFFCURVE",
"570 488 OFFCURVE",
"674 546 CURVE",
"646 342 LINE SMOOTH",
"624 184 OFFCURVE",
"524 84 OFFCURVE",
"356 84 CURVE SMOOTH"
);
},
{
closed = 1;
nodes = (
"814 758 LINE SMOOTH",
"834 900 OFFCURVE",
"940 994 OFFCURVE",
"1078 994 CURVE SMOOTH",
"1218 994 OFFCURVE",
"1294 900 OFFCURVE",
"1274 758 CURVE SMOOTH",
"1258 642 LINE",
"798 642 LINE"
);
}
);
width = 1464;
},
{
layerId = "60B18B06-8123-4D0C-85E3-2DE7B5C03586";
paths = (
{
closed = 1;
nodes = (
"380 -26 OFFCURVE",
"522 38 OFFCURVE",
"578 206 CURVE",
"506 184 LINE",
"536 54 OFFCURVE",
"644 -26 OFFCURVE",
"798 -26 CURVE SMOOTH",
"1006 -26 OFFCURVE",
"1179 114 OFFCURVE",
"1202 344 CURVE SMOOTH",
"1204 364 LINE",
"954 364 LINE",
"948 324 LINE SMOOTH",
"938 260 OFFCURVE",
"894 224 OFFCURVE",
"834 224 CURVE SMOOTH",
"769 224 OFFCURVE",
"740 264 OFFCURVE",
"748 324 CURVE SMOOTH",
"770 486 LINE",
"1220 486 LINE",
"1258 756 LINE SMOOTH",
"1289 978 OFFCURVE",
"1172 1126 OFFCURVE",
"960 1126 CURVE SMOOTH",
"840 1126 OFFCURVE",
"738 1080 OFFCURVE",
"666 996 CURVE",
"772 996 LINE",
"720 1080 OFFCURVE",
"628 1126 OFFCURVE",
"510 1126 CURVE SMOOTH",
"296 1126 OFFCURVE",
"141 978 OFFCURVE",
"108 756 CURVE SMOOTH",
"102 716 LINE",
"352 716 LINE",
"360 776 LINE SMOOTH",
"368 836 OFFCURVE",
"412 876 OFFCURVE",
"474 876 CURVE SMOOTH",
"538 876 OFFCURVE",
"566 836 OFFCURVE",
"560 776 CURVE SMOOTH",
"558 756 LINE SMOOTH",
"546 636 OFFCURVE",
"360 620 OFFCURVE",
"220 548 CURVE SMOOTH",
"124 498 OFFCURVE",
"16 400 OFFCURVE",
"16 222 CURVE SMOOTH",
"16 69 OFFCURVE",
"96 -26 OFFCURVE",
"252 -26 CURVE SMOOTH"
);
},
{
closed = 1;
nodes = (
"304 204 OFFCURVE",
"274 243 OFFCURVE",
"274 291 CURVE SMOOTH",
"274 356 OFFCURVE",
"331 388 OFFCURVE",
"366 404 CURVE SMOOTH",
"416 427 OFFCURVE",
"477 440 OFFCURVE",
"518 472 CURVE",
"496 318 LINE SMOOTH",
"484 232 OFFCURVE",
"424 204 OFFCURVE",
"369 204 CURVE SMOOTH"
);
},
{
closed = 1;
nodes = (
"810 776 LINE SMOOTH",
"818 836 OFFCURVE",
"862 876 OFFCURVE",
"924 876 CURVE SMOOTH",
"988 876 OFFCURVE",
"1018 836 OFFCURVE",
"1010 776 CURVE SMOOTH",
"1002 716 LINE",
"802 716 LINE"
);
}
);
width = 1314;
}
);
leftKerningGroup = o;
rightKerningGroup = e;
unicode = 00E6;
},
{
glyphname = b;
lastChange = "2019-11-13 16:17:00 +0000";
layers = (
{
layerId = "60B18B06-8123-4D0C-85E3-2DE7B5C03586";
paths = (
{
closed = 1;
nodes = (
"602 -26 OFFCURVE",
"749 42 OFFCURVE",
"788 324 CURVE SMOOTH",
"850 776 LINE SMOOTH",
"889 1058 OFFCURVE",
"766 1126 OFFCURVE",
"636 1126 CURVE SMOOTH",
"526 1126 OFFCURVE",
"440 1076 OFFCURVE",
"386 990 CURVE",
"422 932 LINE",
"502 1500 LINE",
"252 1500 LINE",
"42 0 LINE",
"292 0 LINE",
"316 168 LINE",
"264 110 LINE",
"294 24 OFFCURVE",
"362 -26 OFFCURVE",
"474 -26 CURVE SMOOTH"
);
},
{
closed = 1;
nodes = (
"360 224 OFFCURVE",
"330 264 OFFCURVE",
"338 324 CURVE SMOOTH",
"400 776 LINE SMOOTH",
"408 836 OFFCURVE",
"452 876 OFFCURVE",
"514 876 CURVE SMOOTH",
"578 876 OFFCURVE",
"608 836 OFFCURVE",
"600 776 CURVE SMOOTH",
"538 324 LINE SMOOTH",
"530 264 OFFCURVE",
"486 224 OFFCURVE",
"424 224 CURVE SMOOTH"
);
}
);
width = 918;
},
{
hints = (
{
horizontal = 1;
origin = "{0, 19}";
target = "{1, 13}";
type = Stem;
},
{
horizontal = 1;
origin = "{0, 6}";
target = "{1, 6}";
type = Stem;
},
{
horizontal = 1;
origin = "{0, 12}";
target = down;
type = TopGhost;
},
{
horizontal = 1;
origin = "{1, 13}";
target = "{0, 13}";
type = Stem;
}
);
layerId = "DDDB0B36-051A-43AE-9F30-611505482296";
paths = (
{
closed = 1;
nodes = (
"605 -24 OFFCURVE",
"767 116 OFFCURVE",
"796 324 CURVE SMOOTH",
"856 758 LINE SMOOTH",
"884 960 OFFCURVE",
"768 1104 OFFCURVE",
"571 1104 CURVE SMOOTH",
"455 1104 OFFCURVE",
"364 1054 OFFCURVE",
"302 972 CURVE",
"316 948 LINE",
"394 1500 LINE",
"284 1500 LINE",
"74 0 LINE",
"184 0 LINE",
"202 132 LINE",
"182 108 LINE",
"222 24 OFFCURVE",
"299 -24 OFFCURVE",
"412 -24 CURVE SMOOTH"
);
},
{
closed = 1;
nodes = (
"278 86 OFFCURVE",
"211 183 OFFCURVE",
"230 322 CURVE SMOOTH",
"290 758 LINE SMOOTH",
"310 902 OFFCURVE",
"409 994 OFFCURVE",
"549 994 CURVE SMOOTH",
"691 994 OFFCURVE",
"766 900 OFFCURVE",
"746 758 CURVE SMOOTH",
"686 324 LINE SMOOTH",
"666 182 OFFCURVE",
"565 86 OFFCURVE",
"422 86 CURVE SMOOTH"
);
}
);
width = 946;
}
);
leftKerningGroup = h;
note = b;
rightKerningGroup = o;
unicode = 0062;
},
{
glyphname = c;
lastChange = "2019-11-13 16:17:00 +0000";
layers = (
{
anchors = (
{
name = bottom;
position = "{360, 0}";
},
{
name = top;
position = "{514, 1100}";
}
);
layerId = "60B18B06-8123-4D0C-85E3-2DE7B5C03586";
paths = (
{
closed = 1;
nodes = (
"510 364 LINE",
"504 324 LINE SMOOTH",
"496 268 OFFCURVE",
"458 224 OFFCURVE",
"391 224 CURVE SMOOTH",
"327 224 OFFCURVE",
"298 264 OFFCURVE",
"306 324 CURVE SMOOTH",
"368 776 LINE SMOOTH",
"376 836 OFFCURVE",
"420 876 OFFCURVE",
"482 876 CURVE SMOOTH",
"552 876 OFFCURVE",
"576 830 OFFCURVE",
"568 776 CURVE SMOOTH",
"562 736 LINE",
"812 736 LINE",
"814 756 LINE SMOOTH",
"836 976 OFFCURVE",
"734 1126 OFFCURVE",
"518 1126 CURVE SMOOTH",
"304 1126 OFFCURVE",
"147 978 OFFCURVE",
"116 756 CURVE SMOOTH",
"58 344 LINE SMOOTH",
"27 122 OFFCURVE",
"144 -26 OFFCURVE",
"356 -26 CURVE SMOOTH",
"564 -26 OFFCURVE",
"735 114 OFFCURVE",
"758 344 CURVE SMOOTH",
"760 364 LINE"
);
}
);
width = 842;
},
{
anchors = (
{
name = bottom;
position = "{384, 0}";
},
{
name = top;
position = "{536, 1080}";
}
);
hints = (
{
horizontal = 1;
origin = "{0, 27}";
target = "{0, 4}";
type = Stem;
},
{
horizontal = 1;
origin = "{0, 20}";
target = "{0, 11}";
type = Stem;
}
);
layerId = "DDDB0B36-051A-43AE-9F30-611505482296";
paths = (
{
closed = 1;
nodes = (
"660 344 LINE",
"658 324 LINE SMOOTH",
"644 182 OFFCURVE",
"536 86 OFFCURVE",
"396 86 CURVE SMOOTH",
"256 86 OFFCURVE",
"178 182 OFFCURVE",
"198 324 CURVE SMOOTH",
"258 758 LINE SMOOTH",
"278 900 OFFCURVE",
"383 994 OFFCURVE",
"524 994 CURVE SMOOTH",
"664 994 OFFCURVE",
"732 900 OFFCURVE",
"718 758 CURVE SMOOTH",
"716 738 LINE",
"826 738 LINE",
"828 758 LINE SMOOTH",
"848 962 OFFCURVE",
"743 1104 OFFCURVE",
"540 1104 CURVE SMOOTH",
"336 1104 OFFCURVE",
"176 960 OFFCURVE",
"148 758 CURVE SMOOTH",
"88 324 LINE SMOOTH",
"59 116 OFFCURVE",
"183 -24 OFFCURVE",
"383 -24 CURVE SMOOTH",
"588 -24 OFFCURVE",
"748 122 OFFCURVE",
"768 324 CURVE SMOOTH",
"770 344 LINE"
);
}
);
width = 880;
}
);
leftKerningGroup = o;
note = c;
rightKerningGroup = c;
unicode = 0063;
},
{
glyphname = d;
lastChange = "2019-11-13 16:17:00 +0000";
layers = (
{
anchors = (
{
name = bottom;
position = "{380, 0}";
},
{
name = center;
position = "{776, 1292}";
},
{
name = top;
position = "{534, 1100}";
}
);
layerId = "60B18B06-8123-4D0C-85E3-2DE7B5C03586";
paths = (
{
closed = 1;
nodes = (
"392 -26 OFFCURVE",
"476 24 OFFCURVE",
"530 110 CURVE",
"494 168 LINE",
"470 0 LINE",
"720 0 LINE",
"930 1500 LINE",
"680 1500 LINE",
"602 932 LINE",
"654 990 LINE",
"624 1076 OFFCURVE",
"552 1126 OFFCURVE",
"442 1126 CURVE SMOOTH",
"314 1126 OFFCURVE",
"170 1058 OFFCURVE",
"130 776 CURVE SMOOTH",
"66 324 LINE SMOOTH",
"26 42 OFFCURVE",
"152 -26 OFFCURVE",
"282 -26 CURVE SMOOTH"
);
},
{
closed = 1;
nodes = (
"336 224 OFFCURVE",
"308 266 OFFCURVE",
"316 324 CURVE SMOOTH",
"380 776 LINE SMOOTH",
"389 839 OFFCURVE",
"435 876 OFFCURVE",
"494 876 CURVE SMOOTH",
"558 876 OFFCURVE",
"588 834 OFFCURVE",
"580 776 CURVE SMOOTH",
"516 324 LINE SMOOTH",
"508 267 OFFCURVE",
"467 224 OFFCURVE",
"401 224 CURVE SMOOTH"
);
}
);
width = 916;
},
{
anchors = (
{
name = bottom;
position = "{402, 0}";
},
{
name = center;
position = "{846, 1284}";
},
{
name = top;
position = "{554, 1080}";
}
);
hints = (
{
horizontal = 1;
origin = "{0, 19}";
target = "{1, 13}";
type = Stem;
},
{
horizontal = 1;
origin = "{0, 12}";
target = "{1, 6}";
type = Stem;
},
{
horizontal = 1;
origin = "{0, 7}";
target = down;
type = TopGhost;
},
{
horizontal = 1;
origin = "{1, 13}";
target = "{0, 4}";
type = Stem;
}
);
layerId = "DDDB0B36-051A-43AE-9F30-611505482296";
paths = (
{
closed = 1;
nodes = (
"491 -24 OFFCURVE",
"582 26 OFFCURVE",
"644 108 CURVE",
"630 132 LINE",
"610 0 LINE",
"720 0 LINE",
"930 1500 LINE",
"820 1500 LINE",
"744 948 LINE",
"764 972 LINE",
"724 1056 OFFCURVE",
"647 1104 OFFCURVE",
"534 1104 CURVE SMOOTH",
"342 1104 OFFCURVE",
"179 966 OFFCURVE",
"150 758 CURVE SMOOTH",
"90 324 LINE SMOOTH",
"61 116 OFFCURVE",
"182 -24 OFFCURVE",
"375 -24 CURVE SMOOTH"
);
},
{
closed = 1;
nodes = (
"255 86 OFFCURVE",
"180 182 OFFCURVE",
"200 324 CURVE SMOOTH",
"260 758 LINE SMOOTH",
"280 900 OFFCURVE",
"381 994 OFFCURVE",
"523 994 CURVE SMOOTH",
"669 994 OFFCURVE",
"735 896 OFFCURVE",
"716 758 CURVE SMOOTH",
"656 322 LINE SMOOTH",
"637 183 OFFCURVE",
"541 86 OFFCURVE",
"398 86 CURVE SMOOTH"
);
}
);
width = 946;
}
);
leftKerningGroup = o;
note = d;
rightKerningGroup = d;
unicode = 0064;
},
{
glyphname = eth;
lastChange = "2019-11-13 16:17:00 +0000";
layers = (
{
hints = (
{
horizontal = 1;
origin = "{0, 17}";
target = "{1, 13}";
type = Stem;
},
{
horizontal = 1;
origin = "{0, 10}";
target = "{1, 6}";
type = Stem;
},
{
horizontal = 1;
origin = "{0, 0}";
target = "{0, 1}";
type = Stem;
},
{
horizontal = 1;
origin = "{1, 13}";
target = "{0, 22}";
type = Stem;
}
);
layerId = "DDDB0B36-051A-43AE-9F30-611505482296";
paths = (
{
closed = 1;
nodes = (
"552 1500 LINE",
"538 1390 LINE",
"578 1390 LINE SMOOTH",
"713 1390 OFFCURVE",
"792 1297 OFFCURVE",
"772 1152 CURVE SMOOTH",
"744 948 LINE",
"764 972 LINE",
"724 1056 OFFCURVE",
"647 1104 OFFCURVE",
"534 1104 CURVE SMOOTH",
"342 1104 OFFCURVE",
"179 966 OFFCURVE",
"150 758 CURVE SMOOTH",
"90 324 LINE SMOOTH",
"61 116 OFFCURVE",
"182 -24 OFFCURVE",
"375 -24 CURVE SMOOTH",
"491 -24 OFFCURVE",
"582 26 OFFCURVE",
"644 108 CURVE",
"630 132 LINE",
"610 0 LINE",
"720 0 LINE",
"882 1152 LINE SMOOTH",
"911 1360 OFFCURVE",
"790 1500 OFFCURVE",
"592 1500 CURVE SMOOTH"
);
},
{
closed = 1;
nodes = (
"255 86 OFFCURVE",
"180 182 OFFCURVE",
"200 324 CURVE SMOOTH",
"260 758 LINE SMOOTH",
"280 900 OFFCURVE",
"381 994 OFFCURVE",
"523 994 CURVE SMOOTH",
"669 994 OFFCURVE",
"735 896 OFFCURVE",
"716 758 CURVE SMOOTH",
"656 322 LINE SMOOTH",
"637 183 OFFCURVE",
"541 86 OFFCURVE",
"398 86 CURVE SMOOTH"
);
},
{
closed = 1;
nodes = (
"1028 1278 LINE",
"1042 1382 LINE",
"574 1258 LINE",
"560 1154 LINE"
);
}
);
width = 946;
},
{
layerId = "60B18B06-8123-4D0C-85E3-2DE7B5C03586";
paths = (
{
closed = 1;
nodes = (
"524 1500 LINE",
"500 1330 LINE",
"556 1330 LINE SMOOTH",
"617 1330 OFFCURVE",
"650 1290 OFFCURVE",
"642 1230 CURVE SMOOTH",
"602 932 LINE",
"654 990 LINE",
"624 1076 OFFCURVE",
"552 1126 OFFCURVE",
"442 1126 CURVE SMOOTH",
"314 1126 OFFCURVE",
"170 1058 OFFCURVE",
"130 776 CURVE SMOOTH",
"66 324 LINE SMOOTH",
"26 42 OFFCURVE",
"152 -26 OFFCURVE",
"282 -26 CURVE SMOOTH",
"392 -26 OFFCURVE",
"476 24 OFFCURVE",
"530 110 CURVE",
"494 168 LINE",
"470 0 LINE",
"720 0 LINE",
"892 1230 LINE SMOOTH",
"915 1392 OFFCURVE",
"830 1500 OFFCURVE",
"680 1500 CURVE SMOOTH"
);
},
{
closed = 1;
nodes = (
"336 224 OFFCURVE",
"308 266 OFFCURVE",
"316 324 CURVE SMOOTH",
"380 776 LINE SMOOTH",
"389 839 OFFCURVE",
"435 876 OFFCURVE",
"494 876 CURVE SMOOTH",
"558 876 OFFCURVE",
"588 834 OFFCURVE",
"580 776 CURVE SMOOTH",
"516 324 LINE SMOOTH",
"508 267 OFFCURVE",
"467 224 OFFCURVE",
"401 224 CURVE SMOOTH"
);
},
{
closed = 1;
nodes = (
"970 1234 LINE",
"988 1374 LINE",
"552 1264 LINE",
"532 1124 LINE"
);
}
);
width = 916;
}
);
leftKerningGroup = o;
rightKerningGroup = o;
unicode = 00F0;
},
{
glyphname = e;
lastChange = "2019-11-13 16:17:00 +0000";
layers = (
{
anchors = (
{
name = bottom;
position = "{360, 0}";
},
{
name = ogonek;
position = "{414, 0}";
},
{
name = top;
position = "{514, 1100}";
}
);
layerId = "60B18B06-8123-4D0C-85E3-2DE7B5C03586";
paths = (
{
closed = 1;
nodes = (
"564 -26 OFFCURVE",
"735 114 OFFCURVE",
"758 344 CURVE SMOOTH",
"760 364 LINE",
"510 364 LINE",
"504 324 LINE SMOOTH",
"496 268 OFFCURVE",
"458 224 OFFCURVE",
"391 224 CURVE SMOOTH",
"327 224 OFFCURVE",
"298 264 OFFCURVE",
"306 324 CURVE SMOOTH",
"368 776 LINE SMOOTH",
"376 836 OFFCURVE",
"420 876 OFFCURVE",
"482 876 CURVE SMOOTH",
"546 876 OFFCURVE",
"576 836 OFFCURVE",
"568 776 CURVE SMOOTH",
"560 716 LINE",
"328 716 LINE",
"296 486 LINE",
"778 486 LINE",
"816 756 LINE SMOOTH",
"847 978 OFFCURVE",
"730 1126 OFFCURVE",
"518 1126 CURVE SMOOTH",
"304 1126 OFFCURVE",
"147 978 OFFCURVE",
"116 756 CURVE SMOOTH",
"58 344 LINE SMOOTH",
"27 122 OFFCURVE",
"144 -26 OFFCURVE",
"356 -26 CURVE SMOOTH"
);
}
);
width = 870;
},
{
anchors = (
{
name = bottom;
position = "{384, 0}";
},
{
name = ogonek;
position = "{434, 0}";
},
{
name = top;
position = "{536, 1080}";
}
);
hints = (
{
horizontal = 1;
origin = "{0, 33}";
target = "{0, 8}";
type = Stem;
},
{
horizontal = 1;
origin = "{0, 21}";
target = "{0, 20}";
type = Stem;
},
{
horizontal = 1;
origin = "{0, 26}";
target = "{0, 15}";
type = Stem;
}
);
layerId = "DDDB0B36-051A-43AE-9F30-611505482296";
paths = (
{
closed = 1;
nodes = (
"588 -24 OFFCURVE",
"748 122 OFFCURVE",
"768 324 CURVE SMOOTH",
"770 344 LINE",
"660 344 LINE",
"658 324 LINE SMOOTH",
"644 182 OFFCURVE",
"536 86 OFFCURVE",
"396 86 CURVE SMOOTH",
"256 86 OFFCURVE",
"178 182 OFFCURVE",
"198 324 CURVE SMOOTH",
"258 758 LINE SMOOTH",
"278 900 OFFCURVE",
"383 994 OFFCURVE",
"523 994 CURVE SMOOTH",
"662 994 OFFCURVE",
"738 900 OFFCURVE",
"718 758 CURVE SMOOTH",
"702 642 LINE",
"214 642 LINE",
"200 532 LINE",
"798 532 LINE",
"830 758 LINE SMOOTH",
"859 964 OFFCURVE",
"736 1104 OFFCURVE",
"539 1104 CURVE SMOOTH",
"341 1104 OFFCURVE",
"176 964 OFFCURVE",
"148 758 CURVE SMOOTH",
"88 324 LINE SMOOTH",
"59 116 OFFCURVE",
"183 -24 OFFCURVE",
"383 -24 CURVE SMOOTH"
);
}
);
width = 910;
}
);
leftKerningGroup = o;
note = e;
rightKerningGroup = e;
unicode = 0065;
},
{
glyphname = f;
lastChange = "2019-11-13 16:17:00 +0000";
layers = (
{
layerId = "60B18B06-8123-4D0C-85E3-2DE7B5C03586";
paths = (
{
closed = 1;
nodes = (
"374 0 LINE",
"496 870 LINE",
"706 870 LINE",
"738 1100 LINE",
"528 1100 LINE",
"538 1170 LINE SMOOTH",
"547 1230 OFFCURVE",
"590 1270 OFFCURVE",
"652 1270 CURVE SMOOTH",
"762 1270 LINE",
"796 1520 LINE",
"686 1520 LINE SMOOTH",
"476 1520 OFFCURVE",
"317 1372 OFFCURVE",
"288 1170 CURVE SMOOTH",
"278 1100 LINE",
"78 1100 LINE",
"46 870 LINE",
"246 870 LINE",
"124 0 LINE"
);
}
);
width = 662;
},
{
hints = (
{
horizontal = 1;
origin = "{0, 19}";
target = up;
type = BottomGhost;
},
{
horizontal = 1;
origin = "{0, 16}";
target = "{0, 17}";
type = Stem;
},
{
horizontal = 1;
origin = "{0, 11}";
target = "{0, 8}";
type = Stem;
}
);
layerId = "DDDB0B36-051A-43AE-9F30-611505482296";
paths = (
{
closed = 1;
nodes = (
"252 0 LINE",
"388 974 LINE",
"684 974 LINE",
"698 1080 LINE",
"402 1080 LINE",
"412 1152 LINE SMOOTH",
"433 1306 OFFCURVE",
"541 1410 OFFCURVE",
"680 1410 CURVE SMOOTH",
"744 1410 LINE",
"760 1520 LINE",
"696 1520 LINE SMOOTH",
"493 1520 OFFCURVE",
"332 1370 OFFCURVE",
"302 1152 CURVE SMOOTH",
"292 1080 LINE",
"90 1080 LINE",
"76 974 LINE",
"278 974 LINE",
"142 0 LINE"
);
}
);
width = 638;
}
);
leftKerningGroup = f;
note = f;
rightKerningGroup = f;
unicode = 0066;
},
{
glyphname = g;
lastChange = "2019-11-13 16:17:00 +0000";
layers = (
{
anchors = (
{
name = bottom;
position = "{308, -366}";
},
{
name = top;
position = "{514, 1100}";
}
);
layerId = "60B18B06-8123-4D0C-85E3-2DE7B5C03586";
paths = (
{
closed = 1;
nodes = (
"518 -366 OFFCURVE",
"679 -220 OFFCURVE",
"710 0 CURVE SMOOTH",
"864 1100 LINE",
"614 1100 LINE",
"590 932 LINE",
"642 990 LINE",
"612 1076 OFFCURVE",
"542 1126 OFFCURVE",
"430 1126 CURVE SMOOTH",
"302 1126 OFFCURVE",
"158 1058 OFFCURVE",
"118 776 CURVE SMOOTH",
"74 464 LINE SMOOTH",
"34 182 OFFCURVE",
"160 114 OFFCURVE",
"290 114 CURVE SMOOTH",
"402 114 OFFCURVE",
"484 164 OFFCURVE",
"538 250 CURVE",
"502 308 LINE",
"458 -16 LINE SMOOTH",
"450 -76 OFFCURVE",
"406 -116 OFFCURVE",
"343 -116 CURVE SMOOTH",
"278 -116 OFFCURVE",
"251 -74 OFFCURVE",
"258 -16 CURVE SMOOTH",
"266 48 LINE",
"16 48 LINE",
"10 4 LINE SMOOTH",
"-20 -218 OFFCURVE",
"92 -366 OFFCURVE",
"308 -366 CURVE SMOOTH"
);
},
{
closed = 1;
nodes = (
"345 364 OFFCURVE",
"316 405 OFFCURVE",
"324 464 CURVE SMOOTH",
"368 776 LINE SMOOTH",
"376 833 OFFCURVE",
"417 876 OFFCURVE",
"483 876 CURVE SMOOTH",
"547 876 OFFCURVE",
"576 835 OFFCURVE",
"568 776 CURVE SMOOTH",
"524 464 LINE SMOOTH",
"516 407 OFFCURVE",
"475 364 OFFCURVE",
"409 364 CURVE SMOOTH"
);
}
);
width = 906;
},
{
anchors = (
{
name = bottom;
position = "{306, -366}";
},
{
name = top;
position = "{512, 1080}";
}
);
hints = (
{
horizontal = 1;
origin = "{0, 33}";
target = "{0, 24}";
type = Stem;
},
{
horizontal = 1;
origin = "{0, 16}";
target = "{1, 13}";
type = Stem;
},
{
horizontal = 1;
origin = "{0, 4}";
target = "{1, 6}";
type = Stem;
},
{
horizontal = 1;
origin = "{0, 9}";
target = "{1, 6}";
type = Stem;
}
);
layerId = "DDDB0B36-051A-43AE-9F30-611505482296";
paths = (
{
closed = 1;
nodes = (
"506 -366 OFFCURVE",
"667 -226 OFFCURVE",
"696 -18 CURVE SMOOTH",
"850 1080 LINE",
"740 1080 LINE",
"722 948 LINE",
"742 972 LINE",
"703 1055 OFFCURVE",
"625 1104 OFFCURVE",
"511 1104 CURVE SMOOTH",
"317 1104 OFFCURVE",
"156 964 OFFCURVE",
"128 758 CURVE SMOOTH",
"88 464 LINE SMOOTH",
"60 256 OFFCURVE",
"179 116 OFFCURVE",
"372 116 CURVE SMOOTH",
"487 116 OFFCURVE",
"580 166 OFFCURVE",
"642 248 CURVE",
"626 272 LINE",
"586 -18 LINE SMOOTH",
"566 -160 OFFCURVE",
"461 -256 OFFCURVE",
"320 -256 CURVE SMOOTH",
"180 -256 OFFCURVE",
"112 -160 OFFCURVE",
"126 -18 CURVE SMOOTH",
"128 2 LINE",
"18 2 LINE",
"16 -18 LINE SMOOTH",
"-5 -224 OFFCURVE",
"102 -366 OFFCURVE",
"306 -366 CURVE SMOOTH"
);
},
{
closed = 1;
nodes = (
"252 226 OFFCURVE",
"179 322 OFFCURVE",
"198 464 CURVE SMOOTH",
"238 758 LINE SMOOTH",
"257 900 OFFCURVE",
"360 994 OFFCURVE",
"500 994 CURVE SMOOTH",
"644 994 OFFCURVE",
"713 900 OFFCURVE",
"694 758 CURVE SMOOTH",
"654 462 LINE SMOOTH",
"635 320 OFFCURVE",
"537 226 OFFCURVE",
"395 226 CURVE SMOOTH"
);
}
);
width = 924;
}
);
leftKerningGroup = o;
note = g;
rightKerningGroup = g;
rightMetricsKey = "=|n";
unicode = 0067;
},
{
glyphname = h;
lastChange = "2019-11-13 16:16:54 +0000";
layers = (
{
anchors = (
{
name = bottom;
position = "{388, 0}";
},
{
name = center;
position = "{346, 1306}";
},
{
name = top;
position = "{374, 1500}";
}
);
layerId = "60B18B06-8123-4D0C-85E3-2DE7B5C03586";
paths = (
{
closed = 1;
nodes = (
"292 0 LINE",
"400 776 LINE SMOOTH",
"408 836 OFFCURVE",
"452 876 OFFCURVE",
"516 876 CURVE SMOOTH",
"579 876 OFFCURVE",
"608 836 OFFCURVE",
"600 776 CURVE SMOOTH",
"492 0 LINE",
"742 0 LINE",
"858 836 LINE SMOOTH",
"889 1058 OFFCURVE",
"766 1126 OFFCURVE",
"636 1126 CURVE SMOOTH",
"526 1126 OFFCURVE",
"440 1076 OFFCURVE",
"386 990 CURVE",
"422 932 LINE",
"502 1500 LINE",
"252 1500 LINE",
"42 0 LINE"
);
}
);
width = 930;
},
{
anchors = (
{
name = bottom;
position = "{400, 0}";
},
{
name = center;
position = "{310, 1304}";
},
{
name = top;
position = "{338, 1500}";
}
);
hints = (
{
horizontal = 1;
origin = "{0, 20}";
target = up;
type = BottomGhost;
},
{
horizontal = 1;
origin = "{0, 4}";
target = "{0, 13}";
type = Stem;
},
{
horizontal = 1;
origin = "{0, 19}";
target = down;
type = TopGhost;
}
);
layerId = "DDDB0B36-051A-43AE-9F30-611505482296";
paths = (
{
closed = 1;
nodes = (
"184 0 LINE",
"290 760 LINE SMOOTH",
"310 902 OFFCURVE",
"412 996 OFFCURVE",
"546 996 CURVE SMOOTH",
"674 996 OFFCURVE",
"750 902 OFFCURVE",
"730 760 CURVE SMOOTH",
"624 0 LINE",
"734 0 LINE",
"840 760 LINE SMOOTH",
"868 962 OFFCURVE",
"768 1106 OFFCURVE",
"572 1106 CURVE SMOOTH",
"460 1106 OFFCURVE",
"366 1056 OFFCURVE",
"302 968 CURVE",
"316 946 LINE",
"394 1500 LINE",
"284 1500 LINE",
"74 0 LINE"
);
}
);
width = 946;
}
);
leftKerningGroup = h;
note = h;
rightKerningGroup = n;
unicode = 0068;
},
{
glyphname = i;
lastChange = "2019-11-13 16:16:42 +0000";
layers = (
{
layerId = "60B18B06-8123-4D0C-85E3-2DE7B5C03586";
paths = (
{
closed = 1;
nodes = (
"292 0 LINE",
"446 1100 LINE",
"196 1100 LINE",
"42 0 LINE"
);
},
{
closed = 1;
nodes = (
"458 1180 LINE",
"494 1440 LINE",
"244 1440 LINE",
"208 1180 LINE"
);
}
);
width = 488;
},
{
hints = (
{
horizontal = 1;
origin = "{0, 3}";
target = up;
type = BottomGhost;
},
{
horizontal = 1;
origin = "{0, 2}";
target = down;
type = TopGhost;
},
{
horizontal = 1;
origin = "{1, 3}";
target = "{1, 2}";
type = Stem;
}
);
layerId = "DDDB0B36-051A-43AE-9F30-611505482296";
paths = (
{
closed = 1;
nodes = (
"184 0 LINE",
"336 1080 LINE",
"226 1080 LINE",
"74 0 LINE"
);
},
{
closed = 1;
nodes = (
"354 1214 LINE",
"386 1440 LINE",
"276 1440 LINE",
"244 1214 LINE"
);
}
);
width = 410;
}
);
leftKerningGroup = i;
note = i;
rightKerningGroup = i;
unicode = 0069;
},
{
glyphname = idotless;
lastChange = "2019-11-13 16:16:42 +0000";
layers = (
{
anchors = (
{
name = bottom;
position = "{130, 0}";
},
{
name = ogonek;
position = "{92, 0}";
},
{
name = top;
position = "{282, 1080}";
}
);
hints = (
{
horizontal = 1;
origin = "{0, 3}";
target = up;
type = BottomGhost;
},
{
horizontal = 1;
origin = "{0, 2}";
target = down;
type = TopGhost;
}
);
layerId = "DDDB0B36-051A-43AE-9F30-611505482296";
paths = (
{
closed = 1;
nodes = (
"184 0 LINE",
"336 1080 LINE",
"226 1080 LINE",
"74 0 LINE"
);
}
);
width = 410;
},
{
anchors = (
{
name = bottom;
position = "{168, 0}";
},
{
name = ogonek;
position = "{128, 0}";
},
{
name = top;
position = "{322, 1100}";
}
);
layerId = "60B18B06-8123-4D0C-85E3-2DE7B5C03586";
paths = (
{
closed = 1;
nodes = (
"292 0 LINE",
"446 1100 LINE",
"196 1100 LINE",
"42 0 LINE"
);
}
);
width = 488;
}
);
leftKerningGroup = i;
rightKerningGroup = i;
unicode = 0131;
},
{
glyphname = j;
lastChange = "2019-11-13 16:17:00 +0000";
layers = (
{
layerId = "60B18B06-8123-4D0C-85E3-2DE7B5C03586";
paths = (
{
closed = 1;
nodes = (
"-110 -366 LINE SMOOTH",
"103 -366 OFFCURVE",
"261 -218 OFFCURVE",
"292 4 CURVE SMOOTH",
"446 1100 LINE",
"196 1100 LINE",
"38 -16 LINE SMOOTH",
"29 -79 OFFCURVE",
"-15 -116 OFFCURVE",
"-76 -116 CURVE SMOOTH",
"-146 -116 LINE",
"-180 -366 LINE"
);
},
{
closed = 1;
nodes = (
"456 1180 LINE",
"492 1440 LINE",
"242 1440 LINE",
"206 1180 LINE"
);
}
);
width = 486;
},
{
hints = (
{
horizontal = 1;
origin = "{0, 11}";
target = "{0, 10}";
type = Stem;
},
{
horizontal = 1;
origin = "{0, 5}";
target = down;
type = TopGhost;
},
{
horizontal = 1;
origin = "{1, 3}";
target = "{1, 2}";
type = Stem;
}
);
layerId = "DDDB0B36-051A-43AE-9F30-611505482296";
paths = (
{
closed = 1;
nodes = (
"-208 -366 LINE SMOOTH",
"-10 -366 OFFCURVE",
"152 -224 OFFCURVE",
"184 4 CURVE SMOOTH",
"334 1080 LINE",
"224 1080 LINE",
"74 2 LINE SMOOTH",
"53 -152 OFFCURVE",
"-55 -256 OFFCURVE",
"-192 -256 CURVE SMOOTH",
"-252 -256 LINE",
"-268 -366 LINE"
);
},
{
closed = 1;
nodes = (
"352 1214 LINE",
"384 1440 LINE",
"274 1440 LINE",
"242 1214 LINE"
);
}
);
width = 410;
}
);
leftKerningGroup = j;
note = j;
rightKerningGroup = j;
unicode = 006A;
},
{
glyphname = jdotless;
lastChange = "2019-11-13 16:17:00 +0000";
layers = (
{
anchors = (
{
name = bottom;
position = "{130, 0}";
},
{
name = top;
position = "{280, 1080}";
}
);
hints = (
{
horizontal = 1;
origin = "{0, 11}";
target = "{0, 10}";
type = Stem;
},
{
horizontal = 1;
origin = "{0, 5}";
target = down;
type = TopGhost;
}
);
layerId = "DDDB0B36-051A-43AE-9F30-611505482296";
paths = (
{
closed = 1;
nodes = (
"-208 -366 LINE SMOOTH",
"-10 -366 OFFCURVE",
"152 -224 OFFCURVE",
"184 4 CURVE SMOOTH",
"334 1080 LINE",
"224 1080 LINE",
"74 2 LINE SMOOTH",
"53 -152 OFFCURVE",
"-55 -256 OFFCURVE",
"-192 -256 CURVE SMOOTH",
"-252 -256 LINE",
"-268 -366 LINE"
);
}
);
width = 410;
},
{
anchors = (
{
name = bottom;
position = "{168, 0}";
},
{
name = top;
position = "{322, 1100}";
}
);
layerId = "60B18B06-8123-4D0C-85E3-2DE7B5C03586";
paths = (
{
closed = 1;
nodes = (
"-110 -366 LINE SMOOTH",
"103 -366 OFFCURVE",
"261 -218 OFFCURVE",
"292 4 CURVE SMOOTH",
"446 1100 LINE",
"196 1100 LINE",
"38 -16 LINE SMOOTH",
"29 -79 OFFCURVE",
"-15 -116 OFFCURVE",
"-76 -116 CURVE SMOOTH",
"-146 -116 LINE",
"-180 -366 LINE"
);
}
);
width = 486;
}
);
leftKerningGroup = j;
leftMetricsKey = j;
rightKerningGroup = j;
rightMetricsKey = j;
unicode = 0237;
},
{
glyphname = k;
lastChange = "2019-11-13 16:16:42 +0000";
layers = (
{
anchors = (
{
name = bottom;
position = "{360, 0}";
},
{
name = top;
position = "{514, 1100}";
}
);
layerId = "60B18B06-8123-4D0C-85E3-2DE7B5C03586";
paths = (
{
closed = 1;
nodes = (
"824 0 LINE",
"636 768 LINE",
"920 1100 LINE",
"660 1100 LINE",
"382 778 LINE",
"332 416 LINE",
"440 540 LINE",
"564 0 LINE"
);
},
{
closed = 1;
nodes = (
"292 0 LINE",
"502 1500 LINE",
"252 1500 LINE",
"42 0 LINE"
);
}
);
width = 894;
},
{
anchors = (
{
name = bottom;
position = "{330, 0}";
},
{
name = top;
position = "{482, 1080}";
}
);
hints = (
{
horizontal = 1;
origin = "{1, 3}";
target = up;
type = BottomGhost;
},
{
horizontal = 1;
origin = "{0, 3}";
target = down;
type = TopGhost;
},
{
horizontal = 1;
origin = "{1, 2}";
target = down;
type = TopGhost;
}
);
layerId = "DDDB0B36-051A-43AE-9F30-611505482296";
paths = (
{
closed = 1;
nodes = (
"750 0 LINE",
"466 686 LINE",
"838 1082 LINE",
"718 1082 LINE",
"248 600 LINE",
"224 426 LINE",
"382 596 LINE",
"630 0 LINE"
);
},
{
closed = 1;
nodes = (
"184 0 LINE",
"394 1500 LINE",
"284 1500 LINE",
"74 0 LINE"
);
}
);
width = 840;
}
);
leftKerningGroup = h;
note = k;
rightKerningGroup = k;
unicode = 006B;
},
{
glyphname = kgreenlandic;
lastChange = "2019-11-13 16:16:42 +0000";
layers = (
{
hints = (
{
horizontal = 1;
origin = "{1, 3}";
target = up;
type = BottomGhost;
},
{
horizontal = 1;
origin = "{0, 3}";
target = down;
type = TopGhost;
},
{
horizontal = 1;
origin = "{1, 2}";
target = down;
type = TopGhost;
}
);
layerId = "DDDB0B36-051A-43AE-9F30-611505482296";
paths = (
{
closed = 1;
nodes = (
"750 0 LINE",
"388 626 LINE",
"838 1082 LINE",
"718 1082 LINE",
"270 634 LINE",
"630 0 LINE"
);
},
{
closed = 1;
nodes = (
"184 0 LINE",
"336 1080 LINE",
"226 1080 LINE",
"74 0 LINE"
);
}
);
width = 836;
},
{
layerId = "60B18B06-8123-4D0C-85E3-2DE7B5C03586";
paths = (
{
closed = 1;
nodes = (
"824 0 LINE",
"636 768 LINE",
"920 1100 LINE",
"660 1100 LINE",
"382 778 LINE",
"564 0 LINE"
);
},
{
closed = 1;
nodes = (
"292 0 LINE",
"446 1100 LINE",
"196 1100 LINE",
"42 0 LINE"
);
}
);
width = 894;
}
);
leftKerningGroup = n;
rightKerningGroup = k;
unicode = 0138;
},
{
glyphname = l;
lastChange = "2019-11-13 16:16:42 +0000";
layers = (
{
anchors = (
{
name = bottom;
position = "{168, 0}";
},
{
name = center;
position = "{274, 752}";
},
{
name = top;
position = "{378, 1500}";
}
);
layerId = "60B18B06-8123-4D0C-85E3-2DE7B5C03586";
paths = (
{
closed = 1;
nodes = (
"292 0 LINE",
"502 1500 LINE",
"252 1500 LINE",
"42 0 LINE"
);
}
);
width = 488;
},
{
anchors = (
{
name = bottom;
position = "{130, 0}";
},
{
name = center;
position = "{234, 750}";
},
{
name = top;
position = "{340, 1500}";
}
);
hints = (
{
horizontal = 1;
origin = "{0, 3}";
target = up;
type = BottomGhost;
},
{
horizontal = 1;
origin = "{0, 2}";
target = down;
type = TopGhost;
}
);
layerId = "DDDB0B36-051A-43AE-9F30-611505482296";
paths = (
{
closed = 1;
nodes = (
"184 0 LINE",
"394 1500 LINE",
"284 1500 LINE",
"74 0 LINE"
);
}
);
width = 410;
}
);
leftKerningGroup = l;
note = l;
rightKerningGroup = l;
unicode = 006C;
},
{
glyphname = m;
lastChange = "2019-11-13 16:17:00 +0000";
layers = (
{
layerId = "60B18B06-8123-4D0C-85E3-2DE7B5C03586";
paths = (
{
closed = 1;
nodes = (
"292 0 LINE",
"400 776 LINE SMOOTH",
"408 836 OFFCURVE",
"452 876 OFFCURVE",
"516 876 CURVE SMOOTH",
"579 876 OFFCURVE",
"608 836 OFFCURVE",
"600 776 CURVE SMOOTH",
"492 0 LINE",
"742 0 LINE",
"850 776 LINE SMOOTH",
"858 836 OFFCURVE",
"902 876 OFFCURVE",
"966 876 CURVE SMOOTH",
"1029 876 OFFCURVE",
"1058 836 OFFCURVE",
"1050 776 CURVE SMOOTH",
"942 0 LINE",
"1192 0 LINE",
"1308 836 LINE SMOOTH",
"1339 1058 OFFCURVE",
"1216 1126 OFFCURVE",
"1086 1126 CURVE SMOOTH",
"948 1126 OFFCURVE",
"858 1052 OFFCURVE",
"804 928 CURVE",
"868 912 LINE",
"860 1072 OFFCURVE",
"748 1126 OFFCURVE",
"636 1126 CURVE SMOOTH",
"526 1126 OFFCURVE",
"440 1076 OFFCURVE",
"386 990 CURVE",
"422 932 LINE",
"446 1100 LINE",
"196 1100 LINE",
"42 0 LINE"
);
}
);
width = 1380;
},
{
hints = (
{
horizontal = 1;
origin = "{0, 36}";
target = up;
type = BottomGhost;
},
{
horizontal = 1;
origin = "{0, 29}";
target = "{0, 4}";
type = Stem;
},
{
horizontal = 1;
origin = "{0, 35}";
target = "{0, 4}";
type = Stem;
}
);
layerId = "DDDB0B36-051A-43AE-9F30-611505482296";
paths = (
{
closed = 1;
nodes = (
"184 0 LINE",
"290 758 LINE SMOOTH",
"310 900 OFFCURVE",
"412 994 OFFCURVE",
"546 994 CURVE SMOOTH",
"674 994 OFFCURVE",
"750 900 OFFCURVE",
"730 758 CURVE SMOOTH",
"624 0 LINE",
"734 0 LINE",
"840 758 LINE SMOOTH",
"860 900 OFFCURVE",
"962 994 OFFCURVE",
"1096 994 CURVE SMOOTH",
"1224 994 OFFCURVE",
"1300 900 OFFCURVE",
"1280 758 CURVE SMOOTH",
"1174 0 LINE",
"1284 0 LINE",
"1390 758 LINE SMOOTH",
"1420 970 OFFCURVE",
"1307 1104 OFFCURVE",
"1124 1104 CURVE SMOOTH",
"984 1104 OFFCURVE",
"872 1026 OFFCURVE",
"812 902 CURVE",
"836 902 LINE",
"810 1028 OFFCURVE",
"714 1104 OFFCURVE",
"572 1104 CURVE SMOOTH",
"460 1104 OFFCURVE",
"366 1054 OFFCURVE",
"302 966 CURVE",
"316 944 LINE",
"336 1080 LINE",
"226 1080 LINE",
"74 0 LINE"
);
}
);
width = 1496;
}
);
leftKerningGroup = n;
note = m;
rightKerningGroup = n;
unicode = 006D;
},
{
glyphname = n;
lastChange = "2019-11-13 16:16:54 +0000";
layers = (
{
anchors = (
{
name = bottom;
position = "{392, 0}";
},
{
name = top;
position = "{546, 1100}";
}
);
layerId = "60B18B06-8123-4D0C-85E3-2DE7B5C03586";
paths = (
{
closed = 1;
nodes = (
"292 0 LINE",
"400 776 LINE SMOOTH",
"408 836 OFFCURVE",
"452 876 OFFCURVE",
"516 876 CURVE SMOOTH",
"579 876 OFFCURVE",
"608 836 OFFCURVE",
"600 776 CURVE SMOOTH",
"492 0 LINE",
"742 0 LINE",
"850 776 LINE SMOOTH",
"881 996 OFFCURVE",
"802 1126 OFFCURVE",
"636 1126 CURVE SMOOTH",
"532 1126 OFFCURVE",
"440 1076 OFFCURVE",
"382 976 CURVE",
"422 926 LINE",
"446 1100 LINE",
"196 1100 LINE",
"42 0 LINE"
);
}
);
width = 926;
},
{
anchors = (
{
name = bottom;
position = "{404, 0}";
},
{
name = top;
position = "{556, 1080}";
}
);
hints = (
{
horizontal = 1;
origin = "{0, 20}";
target = up;
type = BottomGhost;
},
{
horizontal = 1;
origin = "{0, 13}";
target = "{0, 4}";
type = Stem;
},
{
horizontal = 1;
origin = "{0, 19}";
target = "{0, 4}";
type = Stem;
}
);
layerId = "DDDB0B36-051A-43AE-9F30-611505482296";
paths = (
{
closed = 1;
nodes = (
"184 0 LINE",
"290 758 LINE SMOOTH",
"310 900 OFFCURVE",
"412 994 OFFCURVE",
"546 994 CURVE SMOOTH",
"674 994 OFFCURVE",
"750 900 OFFCURVE",
"730 758 CURVE SMOOTH",
"624 0 LINE",
"734 0 LINE",
"840 758 LINE SMOOTH",
"870 970 OFFCURVE",
"758 1104 OFFCURVE",
"572 1104 CURVE SMOOTH",
"460 1104 OFFCURVE",
"366 1054 OFFCURVE",
"302 966 CURVE",
"316 944 LINE",
"336 1080 LINE",
"226 1080 LINE",
"74 0 LINE"
);
}
);
width = 946;
}
);
leftKerningGroup = n;
note = n;
rightKerningGroup = n;
unicode = 006E;
},
{
glyphname = o;
lastChange = "2019-11-13 16:17:00 +0000";
layers = (
{
anchors = (
{
name = bottom;
position = "{360, 0}";
},
{
name = center;
position = "{436, 550}";
},
{
name = ogonek;
position = "{424, 0}";
},
{
name = top;
position = "{514, 1100}";
}
);
layerId = "60B18B06-8123-4D0C-85E3-2DE7B5C03586";
paths = (
{
closed = 1;
nodes = (
"570 -26 OFFCURVE",
"727 122 OFFCURVE",
"758 344 CURVE SMOOTH",
"816 756 LINE SMOOTH",
"847 978 OFFCURVE",
"730 1126 OFFCURVE",
"518 1126 CURVE SMOOTH",
"304 1126 OFFCURVE",
"147 978 OFFCURVE",
"116 756 CURVE SMOOTH",
"58 344 LINE SMOOTH",
"27 122 OFFCURVE",
"144 -26 OFFCURVE",
"356 -26 CURVE SMOOTH"
);
},
{
closed = 1;
nodes = (
"328 224 OFFCURVE",
"298 264 OFFCURVE",
"306 324 CURVE SMOOTH",
"368 776 LINE SMOOTH",
"376 836 OFFCURVE",
"420 876 OFFCURVE",
"482 876 CURVE SMOOTH",
"546 876 OFFCURVE",
"576 836 OFFCURVE",
"568 776 CURVE SMOOTH",
"506 324 LINE SMOOTH",
"498 264 OFFCURVE",
"454 224 OFFCURVE",
"392 224 CURVE SMOOTH"
);
}
);
width = 874;
},
{
anchors = (
{
name = bottom;
position = "{384, 0}";
},
{
name = center;
position = "{460, 540}";
},
{
name = ogonek;
position = "{460, 0}";
},
{
name = top;
position = "{536, 1080}";
}
);
hints = (
{
horizontal = 1;
origin = "{0, 13}";
target = "{1, 13}";
type = Stem;
},
{
horizontal = 1;
origin = "{0, 6}";
target = "{1, 6}";
type = Stem;
}
);
layerId = "DDDB0B36-051A-43AE-9F30-611505482296";
paths = (
{
closed = 1;
nodes = (
"580 -24 OFFCURVE",
"739 116 OFFCURVE",
"768 324 CURVE SMOOTH",
"828 758 LINE SMOOTH",
"856 961 OFFCURVE",
"741 1104 OFFCURVE",
"540 1104 CURVE SMOOTH",
"343 1104 OFFCURVE",
"177 967 OFFCURVE",
"148 758 CURVE SMOOTH",
"88 324 LINE SMOOTH",
"59 116 OFFCURVE",
"182 -24 OFFCURVE",
"382 -24 CURVE SMOOTH"
);
},
{
closed = 1;
nodes = (
"257 86 OFFCURVE",
"178 182 OFFCURVE",
"198 324 CURVE SMOOTH",
"258 758 LINE SMOOTH",
"278 900 OFFCURVE",
"383 994 OFFCURVE",
"523 994 CURVE SMOOTH",
"662 994 OFFCURVE",
"738 900 OFFCURVE",
"718 758 CURVE SMOOTH",
"658 324 LINE SMOOTH",
"638 182 OFFCURVE",
"536 86 OFFCURVE",
"396 86 CURVE SMOOTH"
);
}
);
width = 918;
}
);
leftKerningGroup = o;
note = o;
rightKerningGroup = o;
unicode = 006F;
},
{
glyphname = oe;
lastChange = "2019-11-13 16:17:00 +0000";
layers = (
{
hints = (
{
horizontal = 1;
origin = "{0, 38}";
target = "{1, 13}";
type = Stem;
},
{
horizontal = 1;
origin = "{0, 19}";
target = "{2, 8}";
type = Stem;
},
{
horizontal = 1;
origin = "{0, 31}";
target = "{1, 6}";
type = Stem;
}
);
layerId = "DDDB0B36-051A-43AE-9F30-611505482296";
paths = (
{
closed = 1;
nodes = (
"518 -24 OFFCURVE",
"636 42 OFFCURVE",
"706 150 CURVE",
"674 150 LINE",
"712 42 OFFCURVE",
"818 -24 OFFCURVE",
"952 -24 CURVE SMOOTH",
"1158 -24 OFFCURVE",
"1318 122 OFFCURVE",
"1338 324 CURVE SMOOTH",
"1340 344 LINE",
"1230 344 LINE",
"1228 324 LINE SMOOTH",
"1214 182 OFFCURVE",
"1106 86 OFFCURVE",
"966 86 CURVE SMOOTH",
"825 86 OFFCURVE",
"748 185 OFFCURVE",
"768 324 CURVE SMOOTH",
"798 532 LINE",
"1368 532 LINE",
"1400 758 LINE SMOOTH",
"1429 964 OFFCURVE",
"1306 1104 OFFCURVE",
"1110 1104 CURVE SMOOTH",
"974 1104 OFFCURVE",
"852 1038 OFFCURVE",
"782 930 CURVE",
"814 930 LINE",
"776 1038 OFFCURVE",
"674 1104 OFFCURVE",
"538 1104 CURVE SMOOTH",
"340 1104 OFFCURVE",
"176 963 OFFCURVE",
"148 758 CURVE SMOOTH",
"88 324 LINE SMOOTH",
"59 116 OFFCURVE",
"182 -24 OFFCURVE",
"382 -24 CURVE SMOOTH"
);
},
{
closed = 1;
nodes = (
"257 86 OFFCURVE",
"178 182 OFFCURVE",
"198 324 CURVE SMOOTH",
"258 758 LINE SMOOTH",
"278 900 OFFCURVE",
"383 994 OFFCURVE",
"523 994 CURVE SMOOTH",
"662 994 OFFCURVE",
"738 900 OFFCURVE",
"718 758 CURVE SMOOTH",
"658 324 LINE SMOOTH",
"638 182 OFFCURVE",
"536 86 OFFCURVE",
"396 86 CURVE SMOOTH"
);
},
{
closed = 1;
nodes = (
"828 758 LINE SMOOTH",
"848 900 OFFCURVE",
"953 994 OFFCURVE",
"1093 994 CURVE SMOOTH",
"1232 994 OFFCURVE",
"1308 900 OFFCURVE",
"1288 758 CURVE SMOOTH",
"1272 642 LINE",
"812 642 LINE"
);
}
);
width = 1480;
},
{
layerId = "60B18B06-8123-4D0C-85E3-2DE7B5C03586";
paths = (
{
closed = 1;
nodes = (
"476 -26 OFFCURVE",
"578 20 OFFCURVE",
"654 104 CURVE",
"548 104 LINE",
"596 20 OFFCURVE",
"688 -26 OFFCURVE",
"806 -26 CURVE SMOOTH",
"1014 -26 OFFCURVE",
"1185 114 OFFCURVE",
"1208 344 CURVE SMOOTH",
"1210 364 LINE",
"960 364 LINE",
"954 324 LINE SMOOTH",
"946 268 OFFCURVE",
"908 224 OFFCURVE",
"842 224 CURVE SMOOTH",
"778 224 OFFCURVE",
"748 264 OFFCURVE",
"756 324 CURVE SMOOTH",
"778 486 LINE",
"1228 486 LINE",
"1266 756 LINE SMOOTH",
"1297 978 OFFCURVE",
"1180 1126 OFFCURVE",
"968 1126 CURVE SMOOTH",
"854 1126 OFFCURVE",
"748 1084 OFFCURVE",
"674 996 CURVE",
"780 996 LINE",
"730 1076 OFFCURVE",
"642 1126 OFFCURVE",
"518 1126 CURVE SMOOTH",
"304 1126 OFFCURVE",
"147 978 OFFCURVE",
"116 756 CURVE SMOOTH",
"58 344 LINE SMOOTH",
"27 122 OFFCURVE",
"144 -26 OFFCURVE",
"356 -26 CURVE SMOOTH"
);
},
{
closed = 1;
nodes = (
"328 224 OFFCURVE",
"298 264 OFFCURVE",
"306 324 CURVE SMOOTH",
"368 776 LINE SMOOTH",
"376 836 OFFCURVE",
"420 876 OFFCURVE",
"482 876 CURVE SMOOTH",
"546 876 OFFCURVE",
"576 836 OFFCURVE",
"568 776 CURVE SMOOTH",
"506 324 LINE SMOOTH",
"498 264 OFFCURVE",
"454 224 OFFCURVE",
"392 224 CURVE SMOOTH"
);
},
{
closed = 1;
nodes = (
"818 776 LINE SMOOTH",
"826 836 OFFCURVE",
"870 876 OFFCURVE",
"932 876 CURVE SMOOTH",
"996 876 OFFCURVE",
"1026 836 OFFCURVE",
"1018 776 CURVE SMOOTH",
"1010 716 LINE",
"810 716 LINE"
);
}
);
width = 1320;
}
);
leftKerningGroup = o;
leftMetricsKey = o;
rightKerningGroup = e;
rightMetricsKey = e;
unicode = 0153;
},
{
glyphname = p;
lastChange = "2019-11-13 16:17:00 +0000";
layers = (
{
anchors = (
{
name = bottom;
position = "{392, 0}";
},
{
name = top;
position = "{546, 1100}";
}
);
layerId = "60B18B06-8123-4D0C-85E3-2DE7B5C03586";
paths = (
{
closed = 1;
nodes = (
"242 -360 LINE",
"316 168 LINE",
"264 110 LINE",
"294 24 OFFCURVE",
"364 -26 OFFCURVE",
"474 -26 CURVE SMOOTH",
"602 -26 OFFCURVE",
"749 42 OFFCURVE",
"788 324 CURVE SMOOTH",
"850 776 LINE SMOOTH",
"889 1058 OFFCURVE",
"766 1126 OFFCURVE",
"636 1126 CURVE SMOOTH",
"526 1126 OFFCURVE",
"440 1076 OFFCURVE",
"386 990 CURVE",
"422 932 LINE",
"446 1100 LINE",
"196 1100 LINE",
"-8 -360 LINE"
);
},
{
closed = 1;
nodes = (
"360 224 OFFCURVE",
"330 264 OFFCURVE",
"338 324 CURVE SMOOTH",
"400 776 LINE SMOOTH",
"408 836 OFFCURVE",
"452 876 OFFCURVE",
"514 876 CURVE SMOOTH",
"578 876 OFFCURVE",
"608 836 OFFCURVE",
"600 776 CURVE SMOOTH",
"538 324 LINE SMOOTH",
"530 264 OFFCURVE",
"486 224 OFFCURVE",
"424 224 CURVE SMOOTH"
);
}
);
width = 918;
},
{
anchors = (
{
name = bottom;
position = "{412, 0}";
},
{
name = top;
position = "{564, 1080}";
}
);
hints = (
{
horizontal = 1;
origin = "{0, 5}";
target = "{1, 13}";
type = Stem;
},
{
horizontal = 1;
origin = "{0, 12}";
target = "{1, 6}";
type = Stem;
},
{
horizontal = 1;
origin = "{0, 18}";
target = "{1, 6}";
type = Stem;
}
);
layerId = "DDDB0B36-051A-43AE-9F30-611505482296";
paths = (
{
closed = 1;
nodes = (
"134 -360 LINE",
"202 132 LINE",
"182 108 LINE",
"222 24 OFFCURVE",
"299 -24 OFFCURVE",
"412 -24 CURVE SMOOTH",
"606 -24 OFFCURVE",
"767 116 OFFCURVE",
"796 324 CURVE SMOOTH",
"856 758 LINE SMOOTH",
"884 958 OFFCURVE",
"769 1104 OFFCURVE",
"571 1104 CURVE SMOOTH",
"458 1104 OFFCURVE",
"367 1057 OFFCURVE",
"302 972 CURVE",
"316 948 LINE",
"336 1080 LINE",
"226 1080 LINE",
"24 -360 LINE"
);
},
{
closed = 1;
nodes = (
"274 86 OFFCURVE",
"211 186 OFFCURVE",
"230 322 CURVE SMOOTH",
"290 758 LINE SMOOTH",
"309 896 OFFCURVE",
"402 994 OFFCURVE",
"548 994 CURVE SMOOTH",
"691 994 OFFCURVE",
"766 900 OFFCURVE",
"746 758 CURVE SMOOTH",
"686 324 LINE SMOOTH",
"666 182 OFFCURVE",
"565 86 OFFCURVE",
"421 86 CURVE SMOOTH"
);
}
);
width = 944;
}
);
leftKerningGroup = n;
note = p;
rightKerningGroup = o;
unicode = 0070;
},
{
glyphname = thorn;
lastChange = "2019-11-13 16:17:00 +0000";
layers = (
{
anchors = (
{
name = bottom;
position = "{412, 0}";
},
{
name = top;
position = "{564, 1080}";
}
);
hints = (
{
horizontal = 1;
origin = "{0, 5}";
target = "{1, 13}";
type = Stem;
},
{
horizontal = 1;
origin = "{0, 12}";
target = "{1, 6}";
type = Stem;
},
{
horizontal = 1;
origin = "{0, 18}";
target = down;
type = TopGhost;
}
);
layerId = "DDDB0B36-051A-43AE-9F30-611505482296";
paths = (
{
closed = 1;
nodes = (
"134 -360 LINE",
"202 132 LINE",
"182 108 LINE",
"222 24 OFFCURVE",
"299 -24 OFFCURVE",
"412 -24 CURVE SMOOTH",
"606 -24 OFFCURVE",
"767 116 OFFCURVE",
"796 324 CURVE SMOOTH",
"856 758 LINE SMOOTH",
"884 958 OFFCURVE",
"769 1104 OFFCURVE",
"571 1104 CURVE SMOOTH",
"458 1104 OFFCURVE",
"367 1057 OFFCURVE",
"302 972 CURVE",
"316 948 LINE",
"394 1500 LINE",
"284 1500 LINE",
"24 -360 LINE"
);
},
{
closed = 1;
nodes = (
"274 86 OFFCURVE",
"211 186 OFFCURVE",
"230 322 CURVE SMOOTH",
"290 758 LINE SMOOTH",
"309 896 OFFCURVE",
"402 994 OFFCURVE",
"548 994 CURVE SMOOTH",
"691 994 OFFCURVE",
"766 900 OFFCURVE",
"746 758 CURVE SMOOTH",
"686 324 LINE SMOOTH",
"666 182 OFFCURVE",
"565 86 OFFCURVE",
"421 86 CURVE SMOOTH"
);
}
);
width = 944;
},
{
anchors = (
{
name = bottom;
position = "{392, 0}";
},
{
name = top;
position = "{546, 1100}";
}
);
layerId = "60B18B06-8123-4D0C-85E3-2DE7B5C03586";
paths = (
{
closed = 1;
nodes = (
"242 -360 LINE",
"316 168 LINE",
"264 110 LINE",
"294 24 OFFCURVE",
"364 -26 OFFCURVE",
"474 -26 CURVE SMOOTH",
"602 -26 OFFCURVE",
"749 42 OFFCURVE",
"788 324 CURVE SMOOTH",
"850 776 LINE SMOOTH",
"889 1058 OFFCURVE",
"766 1126 OFFCURVE",
"636 1126 CURVE SMOOTH",
"526 1126 OFFCURVE",
"440 1076 OFFCURVE",
"386 990 CURVE",
"422 932 LINE",
"502 1500 LINE",
"252 1500 LINE",
"-8 -360 LINE"
);
},
{
closed = 1;
nodes = (
"360 224 OFFCURVE",
"330 264 OFFCURVE",
"338 324 CURVE SMOOTH",
"400 776 LINE SMOOTH",
"408 836 OFFCURVE",
"452 876 OFFCURVE",
"514 876 CURVE SMOOTH",
"578 876 OFFCURVE",
"608 836 OFFCURVE",
"600 776 CURVE SMOOTH",
"538 324 LINE SMOOTH",
"530 264 OFFCURVE",
"486 224 OFFCURVE",
"424 224 CURVE SMOOTH"
);
}
);
width = 918;
}
);
leftKerningGroup = h;
rightKerningGroup = o;
unicode = 00FE;
},
{
glyphname = q;
lastChange = "2019-11-13 16:17:00 +0000";
layers = (
{
layerId = "60B18B06-8123-4D0C-85E3-2DE7B5C03586";
paths = (
{
closed = 1;
nodes = (
"674 -340 LINE",
"874 1100 LINE",
"624 1100 LINE",
"602 932 LINE",
"654 990 LINE",
"624 1076 OFFCURVE",
"552 1126 OFFCURVE",
"442 1126 CURVE SMOOTH",
"314 1126 OFFCURVE",
"170 1058 OFFCURVE",
"130 776 CURVE SMOOTH",
"66 324 LINE SMOOTH",
"26 42 OFFCURVE",
"152 -26 OFFCURVE",
"282 -26 CURVE SMOOTH",
"392 -26 OFFCURVE",
"476 24 OFFCURVE",
"530 110 CURVE",
"494 168 LINE",
"424 -340 LINE"
);
},
{
closed = 1;
nodes = (
"336 224 OFFCURVE",
"308 266 OFFCURVE",
"316 324 CURVE SMOOTH",
"380 776 LINE SMOOTH",
"389 839 OFFCURVE",
"435 876 OFFCURVE",
"494 876 CURVE SMOOTH",
"558 876 OFFCURVE",
"588 834 OFFCURVE",
"580 776 CURVE SMOOTH",
"516 324 LINE SMOOTH",
"508 267 OFFCURVE",
"467 224 OFFCURVE",
"401 224 CURVE SMOOTH"
);
}
);
width = 918;
},
{
hints = (
{
horizontal = 1;
origin = "{0, 14}";
target = "{1, 13}";
type = Stem;
},
{
horizontal = 1;
origin = "{0, 2}";
target = "{1, 6}";
type = Stem;
},
{
horizontal = 1;
origin = "{0, 7}";
target = "{1, 6}";
type = Stem;
}
);
layerId = "DDDB0B36-051A-43AE-9F30-611505482296";
paths = (
{
closed = 1;
nodes = (
"668 -360 LINE",
"870 1080 LINE",
"760 1080 LINE",
"742 948 LINE",
"762 972 LINE",
"722 1056 OFFCURVE",
"645 1104 OFFCURVE",
"532 1104 CURVE SMOOTH",
"340 1104 OFFCURVE",
"177 966 OFFCURVE",
"148 758 CURVE SMOOTH",
"88 324 LINE SMOOTH",
"59 116 OFFCURVE",
"180 -24 OFFCURVE",
"373 -24 CURVE SMOOTH",
"489 -24 OFFCURVE",
"580 26 OFFCURVE",
"642 108 CURVE",
"628 132 LINE",
"558 -360 LINE"
);
},
{
closed = 1;
nodes = (
"253 86 OFFCURVE",
"178 182 OFFCURVE",
"198 324 CURVE SMOOTH",
"258 758 LINE SMOOTH",
"278 900 OFFCURVE",
"379 994 OFFCURVE",
"521 994 CURVE SMOOTH",
"667 994 OFFCURVE",
"733 896 OFFCURVE",
"714 758 CURVE SMOOTH",
"654 322 LINE SMOOTH",
"635 183 OFFCURVE",
"539 86 OFFCURVE",
"396 86 CURVE SMOOTH"
);
}
);
width = 944;
}
);
leftKerningGroup = o;
note = q;
rightKerningGroup = u;
unicode = 0071;
},
{
glyphname = r;
lastChange = "2019-11-13 16:16:54 +0000";
layers = (
{
anchors = (
{
name = bottom;
position = "{166, 0}";
},
{
name = top;
position = "{446, 1100}";
}
);
layerId = "60B18B06-8123-4D0C-85E3-2DE7B5C03586";
paths = (
{
closed = 1;
nodes = (
"292 0 LINE",
"400 776 LINE SMOOTH",
"408 836 OFFCURVE",
"451 864 OFFCURVE",
"512 864 CURVE SMOOTH",
"648 864 LINE",
"684 1114 LINE",
"634 1114 LINE SMOOTH",
"528 1114 OFFCURVE",
"440 1068 OFFCURVE",
"382 974 CURVE",
"420 920 LINE",
"446 1100 LINE",
"196 1100 LINE",
"42 0 LINE"
);
}
);
width = 604;
},
{
anchors = (
{
name = bottom;
position = "{128, 0}";
},
{
name = top;
position = "{422, 1080}";
}
);
hints = (
{
horizontal = 1;
origin = "{0, 14}";
target = up;
type = BottomGhost;
},
{
horizontal = 1;
origin = "{0, 7}";
target = "{0, 4}";
type = Stem;
},
{
horizontal = 1;
origin = "{0, 13}";
target = down;
type = TopGhost;
}
);
layerId = "DDDB0B36-051A-43AE-9F30-611505482296";
paths = (
{
closed = 1;
nodes = (
"184 0 LINE",
"288 746 LINE SMOOTH",
"308 888 OFFCURVE",
"410 982 OFFCURVE",
"544 982 CURVE SMOOTH",
"602 982 LINE",
"616 1092 LINE",
"570 1092 LINE SMOOTH",
"460 1092 OFFCURVE",
"364 1042 OFFCURVE",
"300 954 CURVE",
"314 932 LINE",
"336 1080 LINE",
"226 1080 LINE",
"74 0 LINE"
);
}
);
width = 552;
}
);
leftKerningGroup = n;
note = r;
rightKerningGroup = r;
unicode = 0072;
},
{
glyphname = s;
lastChange = "2019-11-13 16:17:00 +0000";
layers = (
{
anchors = (
{
name = bottom;
position = "{344, 0}";
},
{
name = top;
position = "{498, 1100}";
}
);
layerId = "60B18B06-8123-4D0C-85E3-2DE7B5C03586";
paths = (
{
closed = 1;
nodes = (
"570 -26 OFFCURVE",
"744 144 OFFCURVE",
"744 396 CURVE SMOOTH",
"744 604 OFFCURVE",
"625 629 OFFCURVE",
"438 666 CURVE SMOOTH",
"384 677 OFFCURVE",
"352 688 OFFCURVE",
"352 751 CURVE SMOOTH",
"352 829 OFFCURVE",
"400 876 OFFCURVE",
"468 876 CURVE SMOOTH",
"536 876 OFFCURVE",
"560 830 OFFCURVE",
"552 776 CURVE SMOOTH",
"546 736 LINE",
"796 736 LINE",
"798 756 LINE SMOOTH",
"820 976 OFFCURVE",
"718 1126 OFFCURVE",
"501 1126 CURVE SMOOTH",
"272 1126 OFFCURVE",
"98 958 OFFCURVE",
"98 706 CURVE SMOOTH",
"98 495 OFFCURVE",
"221 473 OFFCURVE",
"404 436 CURVE SMOOTH",
"459 425 OFFCURVE",
"490 413 OFFCURVE",
"490 351 CURVE SMOOTH",
"490 273 OFFCURVE",
"440 224 OFFCURVE",
"374 224 CURVE SMOOTH",
"319 224 OFFCURVE",
"278 258 OFFCURVE",
"288 324 CURVE SMOOTH",
"294 364 LINE",
"44 364 LINE",
"42 344 LINE SMOOTH",
"20 124 OFFCURVE",
"124 -26 OFFCURVE",
"340 -26 CURVE SMOOTH"
);
}
);
width = 840;
},
{
anchors = (
{
name = bottom;
position = "{350, 0}";
},
{
name = top;
position = "{500, 1080}";
}
);
hints = (
{
horizontal = 1;
origin = "{0, 41}";
target = "{0, 32}";
type = Stem;
},
{
horizontal = 1;
origin = "{0, 26}";
target = "{0, 5}";
type = Stem;
},
{
horizontal = 1;
origin = "{0, 20}";
target = "{0, 11}";
type = Stem;
}
);
layerId = "DDDB0B36-051A-43AE-9F30-611505482296";
paths = (
{
closed = 1;
nodes = (
"566 -24 OFFCURVE",
"724 124 OFFCURVE",
"724 346 CURVE SMOOTH",
"724 534 OFFCURVE",
"611 562 OFFCURVE",
"434 594 CURVE SMOOTH",
"313 616 OFFCURVE",
"238 631 OFFCURVE",
"238 753 CURVE SMOOTH",
"238 899 OFFCURVE",
"346 994 OFFCURVE",
"489 994 CURVE SMOOTH",
"620 994 OFFCURVE",
"701 914 OFFCURVE",
"682 794 CURVE SMOOTH",
"676 756 LINE",
"786 756 LINE",
"792 794 LINE SMOOTH",
"821 978 OFFCURVE",
"702 1104 OFFCURVE",
"504 1104 CURVE SMOOTH",
"290 1104 OFFCURVE",
"128 957 OFFCURVE",
"128 731 CURVE SMOOTH",
"128 543 OFFCURVE",
"240 520 OFFCURVE",
"420 486 CURVE SMOOTH",
"538 464 OFFCURVE",
"612 447 OFFCURVE",
"612 325 CURVE SMOOTH",
"612 180 OFFCURVE",
"508 86 OFFCURVE",
"367 86 CURVE SMOOTH",
"237 86 OFFCURVE",
"153 166 OFFCURVE",
"170 286 CURVE SMOOTH",
"176 328 LINE",
"66 328 LINE",
"60 288 LINE SMOOTH",
"32 100 OFFCURVE",
"155 -24 OFFCURVE",
"351 -24 CURVE SMOOTH"
);
}
);
width = 852;
}
);
leftKerningGroup = s;
note = s;
rightKerningGroup = s;
unicode = 0073;
},
{
glyphname = germandbls;
lastChange = "2019-11-13 16:17:00 +0000";
layers = (
{
hints = (
{
horizontal = 1;
origin = "{0, 23}";
target = "{0, 22}";
type = Stem;
},
{
horizontal = 1;
origin = "{0, 13}";
target = "{0, 12}";
type = Stem;
},
{
horizontal = 1;
origin = "{0, 39}";
target = "{0, 4}";
type = Stem;
}
);
layerId = "DDDB0B36-051A-43AE-9F30-611505482296";
paths = (
{
closed = 1;
nodes = (
"152 -240 LINE",
"348 1162 LINE SMOOTH",
"370 1318 OFFCURVE",
"482 1422 OFFCURVE",
"624 1422 CURVE SMOOTH",
"767 1422 OFFCURVE",
"849 1318 OFFCURVE",
"828 1162 CURVE SMOOTH",
"814 1060 LINE SMOOTH",
"796 928 OFFCURVE",
"701 840 OFFCURVE",
"584 840 CURVE SMOOTH",
"480 840 LINE",
"464 730 LINE",
"588 730 LINE SMOOTH",
"705 730 OFFCURVE",
"774 642 OFFCURVE",
"756 510 CURVE SMOOTH",
"732 330 LINE SMOOTH",
"714 198 OFFCURVE",
"620 110 OFFCURVE",
"500 110 CURVE SMOOTH",
"376 110 LINE",
"362 0 LINE",
"486 0 LINE SMOOTH",
"671 0 OFFCURVE",
"816 132 OFFCURVE",
"842 330 CURVE SMOOTH",
"866 510 LINE SMOOTH",
"884 648 OFFCURVE",
"838 753 OFFCURVE",
"746 808 CURVE",
"744 774 LINE",
"836 828 OFFCURVE",
"906 932 OFFCURVE",
"924 1060 CURVE SMOOTH",
"938 1162 LINE SMOOTH",
"969 1388 OFFCURVE",
"846 1532 OFFCURVE",
"640 1532 CURVE SMOOTH",
"436 1532 OFFCURVE",
"270 1390 OFFCURVE",
"238 1162 CURVE SMOOTH",
"42 -240 LINE"
);
}
);
width = 982;
},
{
layerId = "60B18B06-8123-4D0C-85E3-2DE7B5C03586";
paths = (
{
closed = 1;
nodes = (
"278 -240 LINE",
"472 1142 LINE SMOOTH",
"482 1214 OFFCURVE",
"538 1262 OFFCURVE",
"608 1262 CURVE SMOOTH",
"680 1262 OFFCURVE",
"722 1214 OFFCURVE",
"712 1142 CURVE SMOOTH",
"688 970 LINE SMOOTH",
"680 910 OFFCURVE",
"635 870 OFFCURVE",
"574 870 CURVE SMOOTH",
"534 870 LINE",
"496 600 LINE",
"556 600 LINE SMOOTH",
"618 600 OFFCURVE",
"650 560 OFFCURVE",
"642 500 CURVE SMOOTH",
"620 340 LINE SMOOTH",
"612 280 OFFCURVE",
"567 240 OFFCURVE",
"506 240 CURVE SMOOTH",
"442 240 LINE",
"404 -30 LINE",
"468 -30 LINE SMOOTH",
"690 -30 OFFCURVE",
"859 116 OFFCURVE",
"890 340 CURVE SMOOTH",
"912 500 LINE SMOOTH",
"930 630 OFFCURVE",
"889 734 OFFCURVE",
"818 800 CURVE",
"808 692 LINE",
"888 756 OFFCURVE",
"942 856 OFFCURVE",
"958 970 CURVE SMOOTH",
"982 1142 LINE SMOOTH",
"1015 1376 OFFCURVE",
"880 1532 OFFCURVE",
"646 1532 CURVE SMOOTH",
"414 1532 OFFCURVE",
"235 1376 OFFCURVE",
"202 1142 CURVE SMOOTH",
"8 -240 LINE"
);
}
);
width = 1006;
}
);
leftKerningGroup = I;
rightKerningGroup = B;
unicode = 00DF;
},
{
glyphname = longs;
lastChange = "2019-11-13 16:17:00 +0000";
layers = (
{
hints = (
{
horizontal = 1;
origin = "{0, 15}";
target = up;
type = BottomGhost;
},
{
horizontal = 1;
origin = "{0, 12}";
target = "{0, 13}";
type = Stem;
},
{
horizontal = 1;
origin = "{0, 7}";
target = "{0, 4}";
type = Stem;
}
);
layerId = "DDDB0B36-051A-43AE-9F30-611505482296";
paths = (
{
closed = 1;
nodes = (
"252 0 LINE",
"412 1152 LINE SMOOTH",
"433 1306 OFFCURVE",
"541 1410 OFFCURVE",
"680 1410 CURVE SMOOTH",
"744 1410 LINE",
"760 1520 LINE",
"696 1520 LINE SMOOTH",
"493 1520 OFFCURVE",
"332 1370 OFFCURVE",
"302 1152 CURVE SMOOTH",
"292 1080 LINE",
"90 1080 LINE",
"76 974 LINE",
"278 974 LINE",
"142 0 LINE"
);
}
);
width = 536;
},
{
layerId = "60B18B06-8123-4D0C-85E3-2DE7B5C03586";
paths = (
{
closed = 1;
nodes = (
"374 0 LINE",
"538 1170 LINE SMOOTH",
"546 1230 OFFCURVE",
"591 1270 OFFCURVE",
"652 1270 CURVE SMOOTH",
"762 1270 LINE",
"796 1520 LINE",
"686 1520 LINE SMOOTH",
"476 1520 OFFCURVE",
"317 1372 OFFCURVE",
"288 1170 CURVE SMOOTH",
"278 1100 LINE",
"78 1100 LINE",
"46 870 LINE",
"246 870 LINE",
"124 0 LINE"
);
}
);
width = 608;
}
);
leftKerningGroup = f;
rightKerningGroup = f;
unicode = 017F;
},
{
glyphname = t;
lastChange = "2019-11-13 16:17:00 +0000";
layers = (
{
anchors = (
{
name = bottom;
position = "{410, 0}";
},
{
name = center;
position = "{332, 550}";
},
{
name = top;
position = "{408, 1100}";
}
);
layerId = "60B18B06-8123-4D0C-85E3-2DE7B5C03586";
paths = (
{
closed = 1;
nodes = (
"560 -14 LINE",
"596 236 LINE",
"486 236 LINE SMOOTH",
"422 236 OFFCURVE",
"392 276 OFFCURVE",
"400 336 CURVE SMOOTH",
"474 870 LINE",
"684 870 LINE",
"716 1100 LINE",
"506 1100 LINE",
"542 1360 LINE",
"292 1360 LINE",
"256 1100 LINE",
"76 1100 LINE",
"44 870 LINE",
"224 870 LINE",
"150 336 LINE SMOOTH",
"119 114 OFFCURVE",
"237 -14 OFFCURVE",
"450 -14 CURVE SMOOTH"
);
}
);
width = 686;
},
{
anchors = (
{
name = bottom;
position = "{406, 0}";
},
{
name = center;
position = "{334, 540}";
},
{
name = top;
position = "{408, 1080}";
}
);
hints = (
{
horizontal = 1;
origin = "{0, 19}";
target = "{0, 2}";
type = Stem;
},
{
horizontal = 1;
origin = "{0, 13}";
target = "{0, 14}";
type = Stem;
}
);
layerId = "DDDB0B36-051A-43AE-9F30-611505482296";
paths = (
{
closed = 1;
nodes = (
"540 -12 LINE",
"556 98 LINE",
"496 98 LINE SMOOTH",
"359 98 OFFCURVE",
"280 200 OFFCURVE",
"302 356 CURVE SMOOTH",
"388 976 LINE",
"678 976 LINE",
"692 1082 LINE",
"402 1082 LINE",
"442 1360 LINE",
"332 1360 LINE",
"292 1082 LINE",
"92 1082 LINE",
"78 976 LINE",
"278 976 LINE",
"192 356 LINE SMOOTH",
"161 134 OFFCURVE",
"277 -12 OFFCURVE",
"480 -12 CURVE SMOOTH"
);
}
);
width = 660;
}
);
leftKerningGroup = t;
note = t;
rightKerningGroup = t;
unicode = 0074;
},
{
glyphname = u;
lastChange = "2019-11-13 16:16:54 +0000";
layers = (
{
anchors = (
{
name = bottom;
position = "{388, 0}";
},
{
name = ogonek;
position = "{570, 0}";
},
{
name = top;
position = "{542, 1100}";
}
);
layerId = "60B18B06-8123-4D0C-85E3-2DE7B5C03586";
paths = (
{
closed = 1;
nodes = (
"406 -26 OFFCURVE",
"488 24 OFFCURVE",
"542 110 CURVE",
"506 168 LINE",
"482 0 LINE",
"732 0 LINE",
"886 1100 LINE",
"636 1100 LINE",
"528 324 LINE SMOOTH",
"520 264 OFFCURVE",
"476 224 OFFCURVE",
"413 224 CURVE SMOOTH",
"349 224 OFFCURVE",
"320 264 OFFCURVE",
"328 324 CURVE SMOOTH",
"436 1100 LINE",
"186 1100 LINE",
"78 324 LINE SMOOTH",
"39 42 OFFCURVE",
"166 -26 OFFCURVE",
"294 -26 CURVE SMOOTH"
);
}
);
width = 928;
},
{
anchors = (
{
name = bottom;
position = "{386, 0}";
},
{
name = ogonek;
position = "{620, 0}";
},
{
name = top;
position = "{538, 1080}";
}
);
hints = (
{
horizontal = 1;
origin = "{0, 20}";
target = "{0, 11}";
type = Stem;
},
{
horizontal = 1;
origin = "{0, 16}";
target = down;
type = TopGhost;
},
{
horizontal = 1;
origin = "{0, 11}";
target = "{0, 4}";
type = Stem;
}
);
layerId = "DDDB0B36-051A-43AE-9F30-611505482296";
paths = (
{
closed = 1;
nodes = (
"486 -24 OFFCURVE",
"580 26 OFFCURVE",
"644 114 CURVE",
"630 136 LINE",
"610 0 LINE",
"720 0 LINE",
"872 1080 LINE",
"762 1080 LINE",
"656 322 LINE SMOOTH",
"636 180 OFFCURVE",
"534 86 OFFCURVE",
"400 86 CURVE SMOOTH",
"272 86 OFFCURVE",
"196 180 OFFCURVE",
"216 322 CURVE SMOOTH",
"322 1080 LINE",
"212 1080 LINE",
"106 322 LINE SMOOTH",
"76 110 OFFCURVE",
"188 -24 OFFCURVE",
"374 -24 CURVE SMOOTH"
);
}
);
width = 946;
}
);
leftKerningGroup = u;
note = u;
rightKerningGroup = u;
unicode = 0075;
},
{
glyphname = v;
lastChange = "2019-11-13 16:16:42 +0000";
layers = (
{
layerId = "60B18B06-8123-4D0C-85E3-2DE7B5C03586";
paths = (
{
closed = 1;
nodes = (
"500 0 LINE",
"932 1100 LINE",
"660 1100 LINE",
"368 290 LINE",
"422 290 LINE",
"350 1100 LINE",
"78 1100 LINE",
"208 0 LINE"
);
}
);
width = 856;
},
{
hints = (
{
horizontal = 1;
origin = "{0, 7}";
target = up;
type = BottomGhost;
},
{
horizontal = 1;
origin = "{0, 6}";
target = down;
type = TopGhost;
}
);
layerId = "DDDB0B36-051A-43AE-9F30-611505482296";
paths = (
{
closed = 1;
nodes = (
"408 0 LINE",
"876 1080 LINE",
"760 1080 LINE",
"340 110 LINE",
"368 110 LINE",
"220 1080 LINE",
"104 1080 LINE",
"270 0 LINE"
);
}
);
width = 828;
}
);
leftKerningGroup = v;
note = v;
rightKerningGroup = v;
unicode = 0076;
},
{
glyphname = w;
lastChange = "2019-11-13 16:16:42 +0000";
layers = (
{
anchors = (
{
name = bottom;
position = "{526, 0}";
},
{
name = top;
position = "{680, 1100}";
}
);
layerId = "60B18B06-8123-4D0C-85E3-2DE7B5C03586";
paths = (
{
closed = 1;
nodes = (
"396 0 LINE",
"654 734 LINE",
"604 734 LINE",
"654 0 LINE",
"910 0 LINE",
"1258 1100 LINE",
"998 1100 LINE",
"786 306 LINE",
"824 306 LINE",
"788 1100 LINE",
"570 1100 LINE",
"310 306 LINE",
"348 306 LINE",
"360 1100 LINE",
"100 1100 LINE",
"140 0 LINE"
);
}
);
width = 1202;
},
{
anchors = (
{
name = bottom;
position = "{460, 0}";
},
{
name = top;
position = "{612, 1080}";
}
);
hints = (
{
horizontal = 1;
origin = "{0, 14}";
target = down;
type = TopGhost;
}
);
layerId = "DDDB0B36-051A-43AE-9F30-611505482296";
paths = (
{
closed = 1;
nodes = (
"290 0 LINE",
"592 870 LINE",
"572 870 LINE",
"628 0 LINE",
"762 0 LINE",
"1080 1080 LINE",
"964 1080 LINE",
"702 110 LINE",
"718 112 LINE",
"666 1080 LINE",
"556 1080 LINE",
"232 112 LINE",
"248 110 LINE",
"256 1080 LINE",
"142 1080 LINE",
"156 0 LINE"
);
}
);
width = 1070;
}
);
leftKerningGroup = w;
note = w;
rightKerningGroup = w;
unicode = 0077;
},
{
glyphname = x;
lastChange = "2019-11-13 16:16:42 +0000";
layers = (
{
layerId = "60B18B06-8123-4D0C-85E3-2DE7B5C03586";
paths = (
{
closed = 1;
nodes = (
"180 0 LINE",
"448 404 LINE",
"336 404 LINE",
"492 0 LINE",
"748 0 LINE",
"536 550 LINE",
"902 1100 LINE",
"646 1100 LINE",
"378 696 LINE",
"490 696 LINE",
"334 1100 LINE",
"78 1100 LINE",
"290 550 LINE",
"-76 0 LINE"
);
}
);
width = 826;
},
{
hints = (
{
horizontal = 1;
origin = "{0, 13}";
target = up;
type = BottomGhost;
},
{
horizontal = 1;
origin = "{0, 11}";
target = down;
type = TopGhost;
}
);
layerId = "DDDB0B36-051A-43AE-9F30-611505482296";
paths = (
{
closed = 1;
nodes = (
"78 0 LINE",
"400 464 LINE",
"352 464 LINE",
"544 0 LINE",
"668 0 LINE",
"444 542 LINE",
"820 1080 LINE",
"696 1080 LINE",
"374 620 LINE",
"422 620 LINE",
"230 1080 LINE",
"106 1080 LINE",
"330 542 LINE",
"-46 0 LINE"
);
}
);
width = 774;
}
);
note = x;
unicode = 0078;
},
{
glyphname = y;
lastChange = "2019-11-13 16:16:42 +0000";
layers = (
{
anchors = (
{
name = bottom;
position = "{350, 0}";
},
{
name = top;
position = "{504, 1100}";
}
);
layerId = "60B18B06-8123-4D0C-85E3-2DE7B5C03586";
paths = (
{
closed = 1;
nodes = (
"330 -360 LINE",
"930 1100 LINE",
"658 1100 LINE",
"370 310 LINE",
"424 310 LINE",
"348 1100 LINE",
"76 1100 LINE",
"224 0 LINE",
"78 -360 LINE"
);
}
);
width = 850;
},
{
anchors = (
{
name = bottom;
position = "{340, 0}";
},
{
name = top;
position = "{492, 1080}";
}
);
hints = (
{
horizontal = 1;
origin = "{0, 6}";
target = down;
type = TopGhost;
}
);
layerId = "DDDB0B36-051A-43AE-9F30-611505482296";
paths = (
{
closed = 1;
nodes = (
"250 -360 LINE",
"878 1080 LINE",
"756 1080 LINE",
"344 122 LINE",
"372 122 LINE",
"226 1080 LINE",
"106 1080 LINE",
"270 -30 LINE",
"126 -360 LINE"
);
}
);
width = 830;
}
);
leftKerningGroup = y;
note = y;
rightKerningGroup = v;
unicode = 0079;
},
{
glyphname = z;
lastChange = "2019-11-13 16:16:42 +0000";
layers = (
{
anchors = (
{
name = bottom;
position = "{328, 0}";
},
{
name = top;
position = "{482, 1100}";
}
);
layerId = "60B18B06-8123-4D0C-85E3-2DE7B5C03586";
paths = (
{
closed = 1;
nodes = (
"676 0 LINE",
"710 250 LINE",
"198 250 LINE",
"244 146 LINE",
"802 904 LINE",
"830 1100 LINE",
"130 1100 LINE",
"94 850 LINE",
"624 850 LINE",
"582 954 LINE",
"4 196 LINE",
"-24 0 LINE"
);
}
);
width = 806;
},
{
anchors = (
{
name = bottom;
position = "{296, 0}";
},
{
name = top;
position = "{448, 1080}";
}
);
hints = (
{
horizontal = 1;
origin = "{0, 11}";
target = "{0, 2}";
type = Stem;
},
{
horizontal = 1;
origin = "{0, 6}";
target = "{0, 7}";
type = Stem;
}
);
layerId = "DDDB0B36-051A-43AE-9F30-611505482296";
paths = (
{
closed = 1;
nodes = (
"602 0 LINE",
"618 110 LINE",
"80 110 LINE",
"100 66 LINE",
"758 994 LINE",
"770 1080 LINE",
"138 1080 LINE",
"122 970 LINE",
"662 970 LINE",
"642 1012 LINE",
"-18 86 LINE",
"-30 0 LINE"
);
}
);
width = 740;
}
);
leftKerningGroup = z;
note = z;
rightKerningGroup = z;
unicode = 007A;
},
{
glyphname = a.ss01;
lastChange = "2019-11-13 16:17:00 +0000";
layers = (
{
anchors = (
{
name = bottom;
position = "{260, 0}";
},
{
name = ogonek;
position = "{560, 0}";
},
{
name = top;
position = "{506, 1100}";
}
);
layerId = "60B18B06-8123-4D0C-85E3-2DE7B5C03586";
paths = (
{
closed = 1;
nodes = (
"364 -26 OFFCURVE",
"458 24 OFFCURVE",
"512 116 CURVE",
"476 172 LINE",
"452 0 LINE",
"702 0 LINE",
"808 756 LINE SMOOTH",
"839 978 OFFCURVE",
"722 1126 OFFCURVE",
"510 1126 CURVE SMOOTH",
"296 1126 OFFCURVE",
"141 978 OFFCURVE",
"108 756 CURVE SMOOTH",
"102 716 LINE",
"352 716 LINE",
"360 776 LINE SMOOTH",
"368 836 OFFCURVE",
"412 876 OFFCURVE",
"474 876 CURVE SMOOTH",
"538 876 OFFCURVE",
"566 836 OFFCURVE",
"560 776 CURVE SMOOTH",
"558 756 LINE SMOOTH",
"546 636 OFFCURVE",
"360 620 OFFCURVE",
"220 548 CURVE SMOOTH",
"124 498 OFFCURVE",
"16 400 OFFCURVE",
"16 223 CURVE SMOOTH",
"16 70 OFFCURVE",
"96 -26 OFFCURVE",
"252 -26 CURVE SMOOTH"
);
},
{
closed = 1;
nodes = (
"304 204 OFFCURVE",
"274 243 OFFCURVE",
"274 291 CURVE SMOOTH",
"274 356 OFFCURVE",
"331 388 OFFCURVE",
"366 404 CURVE SMOOTH",
"416 427 OFFCURVE",
"477 440 OFFCURVE",
"518 472 CURVE",
"496 318 LINE SMOOTH",
"484 232 OFFCURVE",
"424 204 OFFCURVE",
"369 204 CURVE SMOOTH"
);
}
);
width = 882;
},
{
anchors = (
{
name = bottom;
position = "{356, 0}";
},
{
name = ogonek;
position = "{622, 0}";
},
{
name = top;
position = "{516, 1080}";
}
);
hints = (
{
horizontal = 1;
origin = "{0, 31}";
target = "{1, 12}";
type = Stem;
},
{
horizontal = 1;
origin = "{0, 9}";
target = "{0, 18}";
type = Stem;
},
{
horizontal = 1;
origin = "{0, 4}";
target = up;
type = BottomGhost;
}
);
layerId = "DDDB0B36-051A-43AE-9F30-611505482296";
paths = (
{
closed = 1;
nodes = (
"462 -24 OFFCURVE",
"566 28 OFFCURVE",
"632 118 CURVE",
"618 142 LINE",
"598 0 LINE",
"708 0 LINE",
"814 758 LINE SMOOTH",
"843 964 OFFCURVE",
"720 1104 OFFCURVE",
"520 1104 CURVE SMOOTH",
"322 1104 OFFCURVE",
"148 964 OFFCURVE",
"148 758 CURVE SMOOTH",
"148 738 LINE",
"252 738 LINE",
"252 758 LINE SMOOTH",
"252 900 OFFCURVE",
"366 994 OFFCURVE",
"505 994 CURVE SMOOTH",
"645 994 OFFCURVE",
"724 900 OFFCURVE",
"704 758 CURVE SMOOTH",
"700 730 LINE SMOOTH",
"679 580 OFFCURVE",
"484 602 OFFCURVE",
"294 536 CURVE SMOOTH",
"177 495 OFFCURVE",
"40 411 OFFCURVE",
"40 230 CURVE SMOOTH",
"40 73 OFFCURVE",
"144 -24 OFFCURVE",
"328 -24 CURVE SMOOTH"
);
},
{
closed = 1;
nodes = (
"224 84 OFFCURVE",
"152 146 OFFCURVE",
"152 250 CURVE SMOOTH",
"152 367 OFFCURVE",
"243 423 OFFCURVE",
"338 452 CURVE SMOOTH",
"444 484 OFFCURVE",
"570 488 OFFCURVE",
"674 546 CURVE",
"646 342 LINE SMOOTH",
"624 184 OFFCURVE",
"524 84 OFFCURVE",
"356 84 CURVE SMOOTH"
);
}
);
width = 918;
}
);
leftKerningGroup = a;
note = a;
rightKerningGroup = a;
},
{
glyphname = y.ss02;
lastChange = "2019-11-13 16:17:00 +0000";
layers = (
{
anchors = (
{
name = bottom;
position = "{308, -366}";
},
{
name = top;
position = "{514, 1100}";
}
);
layerId = "60B18B06-8123-4D0C-85E3-2DE7B5C03586";
paths = (
{
closed = 1;
nodes = (
"518 -366 OFFCURVE",
"679 -220 OFFCURVE",
"710 0 CURVE SMOOTH",
"864 1100 LINE",
"614 1100 LINE",
"524 464 LINE SMOOTH",
"516 407 OFFCURVE",
"475 364 OFFCURVE",
"409 364 CURVE SMOOTH",
"344 364 OFFCURVE",
"316 406 OFFCURVE",
"324 464 CURVE SMOOTH",
"414 1100 LINE",
"164 1100 LINE",
"74 464 LINE SMOOTH",
"34 182 OFFCURVE",
"161 114 OFFCURVE",
"290 114 CURVE SMOOTH",
"402 114 OFFCURVE",
"484 164 OFFCURVE",
"538 250 CURVE",
"502 308 LINE",
"458 -16 LINE SMOOTH",
"450 -76 OFFCURVE",
"406 -116 OFFCURVE",
"343 -116 CURVE SMOOTH",
"278 -116 OFFCURVE",
"251 -74 OFFCURVE",
"258 -16 CURVE SMOOTH",
"266 48 LINE",
"16 48 LINE",
"10 4 LINE SMOOTH",
"-20 -218 OFFCURVE",
"92 -366 OFFCURVE",
"308 -366 CURVE SMOOTH"
);
}
);
width = 904;
},
{
anchors = (
{
name = bottom;
position = "{320, -366}";
},
{
name = top;
position = "{526, 1080}";
}
);
hints = (
{
horizontal = 1;
origin = "{0, 34}";
target = "{0, 25}";
type = Stem;
},
{
horizontal = 1;
origin = "{0, 17}";
target = "{0, 8}";
type = Stem;
},
{
horizontal = 1;
origin = "{0, 13}";
target = down;
type = TopGhost;
}
);
layerId = "DDDB0B36-051A-43AE-9F30-611505482296";
paths = (
{
closed = 1;
nodes = (
"520 -366 OFFCURVE",
"681 -226 OFFCURVE",
"710 -18 CURVE SMOOTH",
"864 1080 LINE",
"754 1080 LINE",
"668 462 LINE SMOOTH",
"648 320 OFFCURVE",
"551 226 OFFCURVE",
"410 226 CURVE SMOOTH",
"267 226 OFFCURVE",
"192 322 OFFCURVE",
"212 464 CURVE SMOOTH",
"298 1080 LINE",
"188 1080 LINE",
"102 464 LINE SMOOTH",
"73 254 OFFCURVE",
"195 116 OFFCURVE",
"386 116 CURVE SMOOTH",
"501 116 OFFCURVE",
"594 166 OFFCURVE",
"656 248 CURVE",
"640 272 LINE",
"600 -18 LINE SMOOTH",
"580 -160 OFFCURVE",
"475 -256 OFFCURVE",
"334 -256 CURVE SMOOTH",
"194 -256 OFFCURVE",
"126 -160 OFFCURVE",
"140 -18 CURVE SMOOTH",
"142 2 LINE",
"32 2 LINE",
"30 -18 LINE SMOOTH",
"9 -224 OFFCURVE",
"116 -366 OFFCURVE",
"320 -366 CURVE SMOOTH"
);
}
);
width = 939;
}
);
leftKerningGroup = u;
note = u;
rightKerningGroup = u;
rightMetricsKey = j;
},
{
glyphname = ordfeminine;
lastChange = "2019-11-13 16:17:00 +0000";
layers = (
{
hints = (
{
horizontal = 1;
origin = "{0, 31}";
target = "{1, 12}";
type = Stem;
},
{
horizontal = 1;
origin = "{0, 9}";
target = "{0, 18}";
type = Stem;
}
);
layerId = "DDDB0B36-051A-43AE-9F30-611505482296";
paths = (
{
closed = 1;
nodes = (
"470 840 OFFCURVE",
"534 868 OFFCURVE",
"574 924 CURVE",
"560 944 LINE",
"548 854 LINE",
"636 854 LINE",
"700 1308 LINE SMOOTH",
"718 1434 OFFCURVE",
"644 1520 OFFCURVE",
"522 1520 CURVE SMOOTH",
"402 1520 OFFCURVE",
"296 1434 OFFCURVE",
"296 1308 CURVE SMOOTH",
"296 1294 LINE",
"380 1294 LINE",
"380 1312 LINE SMOOTH",
"380 1382 OFFCURVE",
"438 1432 OFFCURVE",
"512 1432 CURVE SMOOTH",
"588 1432 OFFCURVE",
"620 1378 OFFCURVE",
"612 1312 CURVE SMOOTH",
"610 1296 LINE SMOOTH",
"599 1212 OFFCURVE",
"490 1219 OFFCURVE",
"379 1178 CURVE SMOOTH",
"326 1158 OFFCURVE",
"232 1110 OFFCURVE",
"232 992 CURVE SMOOTH",
"232 898 OFFCURVE",
"291 840 OFFCURVE",
"397 840 CURVE SMOOTH"
);
},
{
closed = 1;
nodes = (
"358 922 OFFCURVE",
"322 956 OFFCURVE",
"322 1010 CURVE SMOOTH",
"322 1070 OFFCURVE",
"368 1102 OFFCURVE",
"418 1118 CURVE SMOOTH",
"473 1136 OFFCURVE",
"540 1140 OFFCURVE",
"592 1170 CURVE",
"576 1056 LINE SMOOTH",
"564 972 OFFCURVE",
"511 922 OFFCURVE",
"427 922 CURVE SMOOTH"
);
}
);
width = 788;
},
{
layerId = "60B18B06-8123-4D0C-85E3-2DE7B5C03586";
paths = (
{
closed = 1;
nodes = (
"345 828 OFFCURVE",
"402 856 OFFCURVE",
"436 914 CURVE",
"412 948 LINE",
"398 844 LINE",
"554 844 LINE",
"618 1298 LINE SMOOTH",
"637 1430 OFFCURVE",
"568 1520 OFFCURVE",
"438 1520 CURVE SMOOTH",
"310 1520 OFFCURVE",
"219 1432 OFFCURVE",
"198 1298 CURVE SMOOTH",
"194 1272 LINE",
"350 1272 LINE",
"354 1310 LINE SMOOTH",
"357 1342 OFFCURVE",
"382 1364 OFFCURVE",
"416 1364 CURVE SMOOTH",
"450 1364 OFFCURVE",
"461 1342 OFFCURVE",
"460 1310 CURVE SMOOTH",
"460 1298 LINE SMOOTH",
"460 1229 OFFCURVE",
"350 1220 OFFCURVE",
"264 1174 CURVE SMOOTH",
"206 1143 OFFCURVE",
"142 1085 OFFCURVE",
"142 979 CURVE SMOOTH",
"142 887 OFFCURVE",
"190 828 OFFCURVE",
"282 828 CURVE SMOOTH"
);
},
{
closed = 1;
nodes = (
"321 972 OFFCURVE",
"304 995 OFFCURVE",
"304 1021 CURVE SMOOTH",
"304 1051 OFFCURVE",
"327 1070 OFFCURVE",
"354 1084 CURVE SMOOTH",
"387 1101 OFFCURVE",
"416 1106 OFFCURVE",
"436 1124 CURVE",
"424 1034 LINE SMOOTH",
"418 986 OFFCURVE",
"382 972 OFFCURVE",
"355 972 CURVE SMOOTH"
);
}
);
width = 618;
}
);
unicode = 00AA;
},
{
glyphname = ordmasculine;
lastChange = "2019-11-13 16:17:00 +0000";
layers = (
{
hints = (
{
horizontal = 1;
origin = "{0, 13}";
target = "{1, 13}";
type = Stem;
},
{
horizontal = 1;
origin = "{0, 6}";
target = "{1, 6}";
type = Stem;
}
);
layerId = "DDDB0B36-051A-43AE-9F30-611505482296";
paths = (
{
closed = 1;
nodes = (
"534 840 OFFCURVE",
"628 924 OFFCURVE",
"646 1052 CURVE SMOOTH",
"682 1308 LINE SMOOTH",
"700 1434 OFFCURVE",
"628 1520 OFFCURVE",
"507 1520 CURVE SMOOTH",
"385 1520 OFFCURVE",
"290 1434 OFFCURVE",
"272 1308 CURVE SMOOTH",
"236 1052 LINE SMOOTH",
"218 926 OFFCURVE",
"292 840 OFFCURVE",
"412 840 CURVE SMOOTH"
);
},
{
closed = 1;
nodes = (
"354 926 OFFCURVE",
"314 976 OFFCURVE",
"324 1048 CURVE SMOOTH",
"360 1312 LINE SMOOTH",
"370 1384 OFFCURVE",
"424 1432 OFFCURVE",
"496 1432 CURVE SMOOTH",
"566 1432 OFFCURVE",
"606 1384 OFFCURVE",
"596 1312 CURVE SMOOTH",
"560 1048 LINE SMOOTH",
"550 976 OFFCURVE",
"496 926 OFFCURVE",
"424 926 CURVE SMOOTH"
);
}
);
width = 738;
},
{
layerId = "60B18B06-8123-4D0C-85E3-2DE7B5C03586";
paths = (
{
closed = 1;
nodes = (
"474 828 OFFCURVE",
"570 920 OFFCURVE",
"588 1052 CURVE SMOOTH",
"622 1298 LINE SMOOTH",
"641 1436 OFFCURVE",
"566 1520 OFFCURVE",
"442 1520 CURVE SMOOTH",
"316 1520 OFFCURVE",
"219 1433 OFFCURVE",
"200 1298 CURVE SMOOTH",
"166 1052 LINE SMOOTH",
"148 923 OFFCURVE",
"212 828 OFFCURVE",
"344 828 CURVE SMOOTH"
);
},
{
closed = 1;
nodes = (
"334 986 OFFCURVE",
"318 1008 OFFCURVE",
"322 1038 CURVE SMOOTH",
"360 1310 LINE SMOOTH",
"364 1341 OFFCURVE",
"387 1364 OFFCURVE",
"422 1364 CURVE SMOOTH",
"458 1364 OFFCURVE",
"470 1339 OFFCURVE",
"466 1310 CURVE SMOOTH",
"428 1038 LINE SMOOTH",
"423 1005 OFFCURVE",
"399 986 OFFCURVE",
"368 986 CURVE SMOOTH"
);
}
);
width = 612;
}
);
unicode = 00BA;
},
{
glyphname = Delta;
lastChange = "2019-11-13 16:16:42 +0000";
layers = (
{
hints = (
{
horizontal = 1;
origin = "{0, 3}";
target = "{1, 2}";
type = Stem;
},
{
horizontal = 1;
origin = "{0, 2}";
target = down;
type = TopGhost;
}
);
layerId = "DDDB0B36-051A-43AE-9F30-611505482296";
paths = (
{
closed = 1;
nodes = (
"782 0 LINE",
"652 1500 LINE",
"536 1500 LINE",
"-14 0 LINE"
);
},
{
closed = 1;
nodes = (
"564 1288 LINE",
"660 110 LINE",
"140 110 LINE"
);
}
);
width = 920;
},
{
layerId = "60B18B06-8123-4D0C-85E3-2DE7B5C03586";
paths = (
{
closed = 1;
nodes = (
"806 0 LINE",
"738 1500 LINE",
"446 1500 LINE",
"-48 0 LINE"
);
},
{
closed = 1;
nodes = (
"522 998 LINE",
"528 270 LINE",
"308 270 LINE"
);
}
);
width = 914;
}
);
leftKerningGroup = A;
rightKerningGroup = A;
unicode = 0394;
},
{
glyphname = Omega;
lastChange = "2019-11-13 16:17:00 +0000";
layers = (
{
hints = (
{
horizontal = 1;
origin = "{0, 37}";
target = "{0, 36}";
type = Stem;
},
{
horizontal = 1;
origin = "{0, 27}";
target = "{0, 8}";
type = Stem;
}
);
layerId = "DDDB0B36-051A-43AE-9F30-611505482296";
paths = (
{
closed = 1;
nodes = (
"466 0 LINE",
"482 110 LINE",
"339 110 OFFCURVE",
"256 214 OFFCURVE",
"278 370 CURVE SMOOTH",
"380 1102 LINE SMOOTH",
"407 1294 OFFCURVE",
"546 1422 OFFCURVE",
"724 1422 CURVE SMOOTH",
"904 1422 OFFCURVE",
"1007 1294 OFFCURVE",
"980 1102 CURVE SMOOTH",
"878 370 LINE SMOOTH",
"856 214 OFFCURVE",
"744 110 OFFCURVE",
"602 110 CURVE",
"586 0 LINE",
"1056 0 LINE",
"1072 110 LINE",
"814 110 LINE",
"840 88 LINE",
"918 154 OFFCURVE",
"971 254 OFFCURVE",
"987 370 CURVE SMOOTH",
"1090 1102 LINE SMOOTH",
"1126 1360 OFFCURVE",
"987 1532 OFFCURVE",
"741 1532 CURVE SMOOTH",
"496 1532 OFFCURVE",
"306 1360 OFFCURVE",
"270 1102 CURVE SMOOTH",
"168 370 LINE SMOOTH",
"151 248 OFFCURVE",
"179 154 OFFCURVE",
"236 88 CURVE",
"270 110 LINE",
"12 110 LINE",
"-4 0 LINE"
);
}
);
width = 1204;
},
{
layerId = "60B18B06-8123-4D0C-85E3-2DE7B5C03586";
paths = (
{
closed = 1;
nodes = (
"450 0 LINE",
"488 270 LINE",
"424 270 OFFCURVE",
"394 310 OFFCURVE",
"402 370 CURVE SMOOTH",
"504 1102 LINE SMOOTH",
"517 1198 OFFCURVE",
"590 1262 OFFCURVE",
"686 1262 CURVE SMOOTH",
"780 1262 OFFCURVE",
"837 1198 OFFCURVE",
"824 1102 CURVE SMOOTH",
"722 370 LINE SMOOTH",
"714 310 OFFCURVE",
"669 270 OFFCURVE",
"608 270 CURVE",
"570 0 LINE",
"1040 0 LINE",
"1078 270 LINE",
"846 270 LINE",
"938 190 LINE",
"962 254 OFFCURVE",
"984 310 OFFCURVE",
"992 370 CURVE SMOOTH",
"1094 1102 LINE SMOOTH",
"1130 1360 OFFCURVE",
"981 1532 OFFCURVE",
"724 1532 CURVE SMOOTH",
"466 1532 OFFCURVE",
"270 1360 OFFCURVE",
"234 1102 CURVE SMOOTH",
"132 370 LINE SMOOTH",
"122 297 OFFCURVE",
"130 270 OFFCURVE",
"134 190 CURVE",
"250 270 LINE",
"18 270 LINE",
"-20 0 LINE"
);
}
);
width = 1176;
}
);
leftKerningGroup = O;
rightKerningGroup = O;
unicode = 03A9;
},
{
glyphname = pi;
lastChange = "2019-11-13 16:17:00 +0000";
layers = (
{
hints = (
{
horizontal = 1;
origin = "{0, 19}";
target = "{0, 2}";
type = Stem;
},
{
horizontal = 1;
origin = "{0, 9}";
target = "{0, 10}";
type = Stem;
},
{
horizontal = 1;
origin = "{0, 12}";
target = up;
type = BottomGhost;
}
);
layerId = "DDDB0B36-051A-43AE-9F30-611505482296";
paths = (
{
closed = 1;
nodes = (
"940 -12 LINE",
"956 98 LINE",
"896 98 LINE SMOOTH",
"756 98 OFFCURVE",
"680 200 OFFCURVE",
"702 356 CURVE SMOOTH",
"788 976 LINE",
"1078 976 LINE",
"1092 1082 LINE",
"92 1082 LINE",
"78 976 LINE",
"278 976 LINE",
"142 0 LINE",
"252 0 LINE",
"388 976 LINE",
"678 976 LINE",
"592 356 LINE SMOOTH",
"561 134 OFFCURVE",
"677 -12 OFFCURVE",
"880 -12 CURVE SMOOTH"
);
}
);
width = 1060;
},
{
layerId = "60B18B06-8123-4D0C-85E3-2DE7B5C03586";
paths = (
{
closed = 1;
nodes = (
"940 -14 LINE",
"976 236 LINE",
"906 236 LINE SMOOTH",
"842 236 OFFCURVE",
"812 276 OFFCURVE",
"820 336 CURVE SMOOTH",
"894 870 LINE",
"1064 870 LINE",
"1096 1100 LINE",
"76 1100 LINE",
"44 870 LINE",
"224 870 LINE",
"102 0 LINE",
"352 0 LINE",
"474 870 LINE",
"644 870 LINE",
"570 336 LINE SMOOTH",
"539 114 OFFCURVE",
"657 -14 OFFCURVE",
"870 -14 CURVE SMOOTH"
);
}
);
width = 1066;
}
);
leftKerningGroup = eta;
rightKerningGroup = iota;
unicode = 03C0;
},
{
glyphname = zero;
lastChange = "2019-11-13 16:17:00 +0000";
layers = (
{
layerId = "60B18B06-8123-4D0C-85E3-2DE7B5C03586";
paths = (
{
closed = 1;
nodes = (
"632 -32 OFFCURVE",
"797 116 OFFCURVE",
"828 338 CURVE SMOOTH",
"944 1162 LINE SMOOTH",
"975 1384 OFFCURVE",
"848 1532 OFFCURVE",
"624 1532 CURVE SMOOTH",
"401 1532 OFFCURVE",
"235 1384 OFFCURVE",
"204 1162 CURVE SMOOTH",
"88 338 LINE SMOOTH",
"57 116 OFFCURVE",
"182 -32 OFFCURVE",
"406 -32 CURVE SMOOTH"
);
},
{
closed = 1;
nodes = (
"379 238 OFFCURVE",
"350 278 OFFCURVE",
"358 338 CURVE SMOOTH",
"474 1162 LINE SMOOTH",
"482 1222 OFFCURVE",
"525 1262 OFFCURVE",
"588 1262 CURVE SMOOTH",
"650 1262 OFFCURVE",
"682 1222 OFFCURVE",
"674 1162 CURVE SMOOTH",
"558 338 LINE SMOOTH",
"550 278 OFFCURVE",
"506 238 OFFCURVE",
"443 238 CURVE SMOOTH"
);
},
{
closed = 1;
nodes = (
"230 238 LINE",
"380 238 LINE",
"804 1262 LINE",
"652 1262 LINE"
);
}
);
width = 976;
},
{
hints = (
{
horizontal = 1;
origin = "{0, 13}";
target = "{2, 0}";
type = Stem;
},
{
horizontal = 1;
origin = "{0, 6}";
target = "{1, 6}";
type = Stem;
}
);
layerId = "DDDB0B36-051A-43AE-9F30-611505482296";
paths = (
{
closed = 1;
nodes = (
"636 -32 OFFCURVE",
"797 116 OFFCURVE",
"828 338 CURVE SMOOTH",
"944 1162 LINE SMOOTH",
"975 1384 OFFCURVE",
"852 1532 OFFCURVE",
"644 1532 CURVE SMOOTH",
"437 1532 OFFCURVE",
"275 1384 OFFCURVE",
"244 1162 CURVE SMOOTH",
"128 338 LINE SMOOTH",
"97 116 OFFCURVE",
"218 -32 OFFCURVE",
"426 -32 CURVE SMOOTH"
);
},
{
closed = 1;
nodes = (
"298 78 OFFCURVE",
"216 182 OFFCURVE",
"238 338 CURVE SMOOTH",
"354 1162 LINE SMOOTH",
"376 1318 OFFCURVE",
"486 1422 OFFCURVE",
"630 1422 CURVE SMOOTH",
"773 1422 OFFCURVE",
"856 1318 OFFCURVE",
"834 1162 CURVE SMOOTH",
"718 338 LINE SMOOTH",
"696 182 OFFCURVE",
"584 78 OFFCURVE",
"442 78 CURVE SMOOTH"
);
},
{
closed = 1;
nodes = (
"218 78 LINE",
"298 78 LINE",
"854 1422 LINE",
"774 1422 LINE"
);
}
);
width = 1012;
}
);
note = zero;
unicode = 0030;
},
{
glyphname = one;
lastChange = "2019-11-13 16:17:00 +0000";
layers = (
{
layerId = "60B18B06-8123-4D0C-85E3-2DE7B5C03586";
paths = (
{
closed = 1;
nodes = (
"450 0 LINE",
"660 1500 LINE",
"390 1500 LINE",
"386 1478 LINE SMOOTH",
"370 1388 OFFCURVE",
"305 1328 OFFCURVE",
"198 1328 CURVE SMOOTH",
"132 1328 LINE",
"94 1058 LINE",
"328 1058 LINE",
"180 0 LINE"
);
}
);
width = 668;
},
{
hints = (
{
horizontal = 1;
origin = "{0, 10}";
target = up;
type = BottomGhost;
},
{
horizontal = 1;
origin = "{0, 8}";
target = "{0, 7}";
type = Stem;
}
);
layerId = "DDDB0B36-051A-43AE-9F30-611505482296";
paths = (
{
closed = 1;
nodes = (
"276 0 LINE",
"486 1500 LINE",
"376 1500 LINE",
"372 1478 LINE SMOOTH",
"356 1388 OFFCURVE",
"291 1328 OFFCURVE",
"184 1328 CURVE SMOOTH",
"158 1328 LINE",
"142 1218 LINE",
"336 1218 LINE",
"166 0 LINE"
);
}
);
width = 530;
}
);
note = one;
unicode = 0031;
},
{
glyphname = two;
lastChange = "2019-11-13 16:17:00 +0000";
layers = (
{
layerId = "60B18B06-8123-4D0C-85E3-2DE7B5C03586";
paths = (
{
closed = 1;
nodes = (
"740 0 LINE",
"778 270 LINE",
"202 270 LINE",
"306 148 LINE",
"328 300 LINE SMOOTH",
"368 576 OFFCURVE",
"822 590 OFFCURVE",
"874 962 CURVE SMOOTH",
"902 1162 LINE SMOOTH",
"934 1388 OFFCURVE",
"806 1532 OFFCURVE",
"582 1532 CURVE SMOOTH",
"355 1532 OFFCURVE",
"190 1384 OFFCURVE",
"162 1162 CURVE SMOOTH",
"152 1082 LINE",
"422 1082 LINE",
"432 1162 LINE SMOOTH",
"439 1219 OFFCURVE",
"479 1262 OFFCURVE",
"546 1262 CURVE SMOOTH",
"610 1262 OFFCURVE",
"640 1222 OFFCURVE",
"632 1162 CURVE SMOOTH",
"604 962 LINE SMOOTH",
"572 730 OFFCURVE",
"99 730 OFFCURVE",
"34 250 CURVE SMOOTH",
"0 0 LINE"
);
}
);
width = 904;
},
{
associatedMasterId = "60B18B06-8123-4D0C-85E3-2DE7B5C03586";
layerId = "F92B29A1-039B-46AC-99A0-1FE44ADB51CB";
name = "Apr 25 18, 17:35";
paths = (
{
closed = 1;
nodes = (
"300 1164 LINE SMOOTH",
"300 1242 OFFCURVE",
"372 1310 OFFCURVE",
"452 1310 CURVE SMOOTH",
"530 1310 OFFCURVE",
"602 1246 OFFCURVE",
"604 1164 CURVE SMOOTH",
"608 1000 LINE SMOOTH",
"618 644 OFFCURVE",
"82 588 OFFCURVE",
"82 142 CURVE SMOOTH",
"82 0 LINE",
"828 0 LINE",
"828 190 LINE",
"284 190 LINE",
"284 568 OFFCURVE",
"798 550 OFFCURVE",
"798 1006 CURVE",
"796 1164 LINE SMOOTH",
"794 1344 OFFCURVE",
"640 1500 OFFCURVE",
"452 1500 CURVE SMOOTH",
"268 1500 OFFCURVE",
"108 1352 OFFCURVE",
"108 1164 CURVE SMOOTH",
"108 1040 LINE",
"300 1040 LINE"
);
}
);
width = 912;
},
{
hints = (
{
horizontal = 1;
origin = "{0, 28}";
target = "{0, 2}";
type = Stem;
},
{
horizontal = 1;
origin = "{0, 11}";
target = "{0, 20}";
type = Stem;
}
);
layerId = "DDDB0B36-051A-43AE-9F30-611505482296";
paths = (
{
closed = 1;
nodes = (
"718 0 LINE",
"734 110 LINE",
"98 110 LINE",
"140 60 LINE",
"150 124 LINE SMOOTH",
"202 454 OFFCURVE",
"817 698 OFFCURVE",
"864 1044 CURVE SMOOTH",
"880 1162 LINE SMOOTH",
"910 1382 OFFCURVE",
"792 1532 OFFCURVE",
"582 1532 CURVE SMOOTH",
"372 1532 OFFCURVE",
"213 1384 OFFCURVE",
"180 1162 CURVE SMOOTH",
"174 1122 LINE",
"284 1122 LINE",
"290 1162 LINE SMOOTH",
"313 1318 OFFCURVE",
"424 1422 OFFCURVE",
"566 1422 CURVE SMOOTH",
"709 1422 OFFCURVE",
"791 1318 OFFCURVE",
"770 1162 CURVE SMOOTH",
"754 1044 LINE SMOOTH",
"710 722 OFFCURVE",
"93 522 OFFCURVE",
"30 84 CURVE SMOOTH",
"18 0 LINE"
);
}
);
width = 892;
}
);
note = two;
unicode = 0032;
},
{
glyphname = three;
lastChange = "2019-11-13 16:17:00 +0000";
layers = (
{
layerId = "60B18B06-8123-4D0C-85E3-2DE7B5C03586";
paths = (
{
closed = 1;
nodes = (
"571 -32 OFFCURVE",
"740 110 OFFCURVE",
"772 338 CURVE SMOOTH",
"800 538 LINE SMOOTH",
"817 662 OFFCURVE",
"784 761 OFFCURVE",
"718 828 CURVE",
"704 722 LINE",
"788 784 OFFCURVE",
"848 884 OFFCURVE",
"866 1008 CURVE SMOOTH",
"888 1162 LINE SMOOTH",
"920 1384 OFFCURVE",
"794 1532 OFFCURVE",
"568 1532 CURVE SMOOTH",
"344 1532 OFFCURVE",
"181 1384 OFFCURVE",
"148 1162 CURVE SMOOTH",
"136 1082 LINE",
"406 1082 LINE",
"418 1162 LINE SMOOTH",
"428 1228 OFFCURVE",
"474 1262 OFFCURVE",
"532 1262 CURVE SMOOTH",
"594 1262 OFFCURVE",
"627 1222 OFFCURVE",
"618 1162 CURVE SMOOTH",
"596 1008 LINE SMOOTH",
"587 948 OFFCURVE",
"544 908 OFFCURVE",
"482 908 CURVE SMOOTH",
"326 908 LINE",
"288 638 LINE",
"444 638 LINE SMOOTH",
"508 638 OFFCURVE",
"538 598 OFFCURVE",
"530 538 CURVE SMOOTH",
"502 338 LINE SMOOTH",
"494 278 OFFCURVE",
"450 238 OFFCURVE",
"388 238 CURVE SMOOTH",
"318 238 OFFCURVE",
"294 284 OFFCURVE",
"302 338 CURVE SMOOTH",
"314 418 LINE",
"44 418 LINE",
"32 338 LINE SMOOTH",
"-1 116 OFFCURVE",
"126 -32 OFFCURVE",
"350 -32 CURVE SMOOTH"
);
}
);
width = 914;
},
{
hints = (
{
horizontal = 1;
origin = "{0, 49}";
target = "{0, 40}";
type = Stem;
},
{
horizontal = 1;
origin = "{0, 32}";
target = "{0, 31}";
type = Stem;
},
{
horizontal = 1;
origin = "{0, 14}";
target = "{0, 23}";
type = Stem;
}
);
layerId = "DDDB0B36-051A-43AE-9F30-611505482296";
paths = (
{
closed = 1;
nodes = (
"577 -32 OFFCURVE",
"734 116 OFFCURVE",
"766 338 CURVE SMOOTH",
"782 450 LINE SMOOTH",
"804 604 OFFCURVE",
"752 722 OFFCURVE",
"650 782 CURVE",
"644 750 LINE",
"766 808 OFFCURVE",
"848 928 OFFCURVE",
"870 1080 CURVE SMOOTH",
"882 1162 LINE SMOOTH",
"914 1382 OFFCURVE",
"794 1532 OFFCURVE",
"582 1532 CURVE SMOOTH",
"372 1532 OFFCURVE",
"215 1384 OFFCURVE",
"182 1162 CURVE SMOOTH",
"176 1122 LINE",
"286 1122 LINE",
"292 1162 LINE SMOOTH",
"315 1318 OFFCURVE",
"424 1422 OFFCURVE",
"568 1422 CURVE SMOOTH",
"712 1422 OFFCURVE",
"795 1318 OFFCURVE",
"772 1162 CURVE SMOOTH",
"760 1080 LINE SMOOTH",
"737 924 OFFCURVE",
"626 820 OFFCURVE",
"484 820 CURVE SMOOTH",
"380 820 LINE",
"364 710 LINE",
"468 710 LINE SMOOTH",
"612 710 OFFCURVE",
"694 606 OFFCURVE",
"672 450 CURVE SMOOTH",
"656 338 LINE SMOOTH",
"634 182 OFFCURVE",
"522 78 OFFCURVE",
"380 78 CURVE SMOOTH",
"237 78 OFFCURVE",
"153 182 OFFCURVE",
"176 338 CURVE SMOOTH",
"182 378 LINE",
"72 378 LINE",
"66 338 LINE SMOOTH",
"33 116 OFFCURVE",
"156 -32 OFFCURVE",
"366 -32 CURVE SMOOTH"
);
}
);
width = 934;
}
);
note = three;
unicode = 0033;
},
{
glyphname = four;
lastChange = "2019-11-13 16:16:42 +0000";
layers = (
{
layerId = "60B18B06-8123-4D0C-85E3-2DE7B5C03586";
paths = (
{
closed = 1;
nodes = (
"718 0 LINE",
"754 256 LINE",
"868 256 LINE",
"906 526 LINE",
"792 526 LINE",
"928 1500 LINE",
"692 1500 LINE",
"20 488 LINE",
"-12 256 LINE",
"484 256 LINE",
"448 0 LINE"
);
},
{
closed = 1;
nodes = (
"582 962 LINE",
"522 526 LINE",
"186 526 LINE",
"238 416 LINE"
);
}
);
width = 966;
},
{
hints = (
{
horizontal = 1;
origin = "{0, 10}";
target = up;
type = BottomGhost;
},
{
horizontal = 1;
origin = "{0, 8}";
target = "{0, 7}";
type = Stem;
},
{
horizontal = 1;
origin = "{0, 6}";
target = down;
type = TopGhost;
}
);
layerId = "DDDB0B36-051A-43AE-9F30-611505482296";
paths = (
{
closed = 1;
nodes = (
"672 0 LINE",
"720 350 LINE",
"868 350 LINE",
"884 458 LINE",
"736 458 LINE",
"880 1500 LINE",
"760 1500 LINE",
"44 458 LINE",
"28 350 LINE",
"610 350 LINE",
"562 0 LINE"
);
},
{
closed = 1;
nodes = (
"746 1322 LINE",
"626 458 LINE",
"108 458 LINE",
"126 414 LINE"
);
}
);
width = 952;
}
);
note = four;
unicode = 0034;
},
{
glyphname = five;
lastChange = "2019-11-13 16:17:00 +0000";
layers = (
{
layerId = "60B18B06-8123-4D0C-85E3-2DE7B5C03586";
paths = (
{
closed = 1;
nodes = (
"641 -32 OFFCURVE",
"804 116 OFFCURVE",
"836 338 CURVE SMOOTH",
"876 618 LINE SMOOTH",
"908 840 OFFCURVE",
"780 988 OFFCURVE",
"582 988 CURVE SMOOTH",
"490 988 OFFCURVE",
"434 956 OFFCURVE",
"394 906 CURVE",
"436 836 LINE",
"508 1352 LINE",
"368 1230 LINE",
"900 1230 LINE",
"938 1500 LINE",
"258 1500 LINE",
"134 604 LINE",
"408 604 LINE",
"408 618 LINE SMOOTH",
"408 678 OFFCURVE",
"456 718 OFFCURVE",
"520 718 CURVE SMOOTH",
"582 718 OFFCURVE",
"615 678 OFFCURVE",
"606 618 CURVE SMOOTH",
"566 338 LINE SMOOTH",
"557 278 OFFCURVE",
"514 238 OFFCURVE",
"450 238 CURVE SMOOTH",
"383 238 OFFCURVE",
"358 282 OFFCURVE",
"366 338 CURVE SMOOTH",
"378 418 LINE",
"108 418 LINE",
"96 338 LINE SMOOTH",
"63 116 OFFCURVE",
"190 -32 OFFCURVE",
"415 -32 CURVE SMOOTH"
);
}
);
width = 946;
},
{
hints = (
{
horizontal = 1;
origin = "{0, 37}";
target = "{0, 28}";
type = Stem;
},
{
horizontal = 1;
origin = "{0, 21}";
target = "{0, 6}";
type = Stem;
},
{
horizontal = 1;
origin = "{0, 15}";
target = "{0, 12}";
type = Stem;
}
);
layerId = "DDDB0B36-051A-43AE-9F30-611505482296";
paths = (
{
closed = 1;
nodes = (
"640 -32 OFFCURVE",
"799 116 OFFCURVE",
"830 338 CURVE SMOOTH",
"872 636 LINE SMOOTH",
"903 858 OFFCURVE",
"783 1006 OFFCURVE",
"579 1006 CURVE SMOOTH",
"458 1006 OFFCURVE",
"360 954 OFFCURVE",
"296 862 CURVE",
"310 840 LINE",
"394 1440 LINE",
"338 1390 LINE",
"978 1390 LINE",
"992 1500 LINE",
"292 1500 LINE",
"168 614 LINE",
"278 614 LINE",
"282 638 LINE SMOOTH",
"308 794 OFFCURVE",
"407 896 OFFCURVE",
"551 896 CURVE SMOOTH",
"697 896 OFFCURVE",
"784 792 OFFCURVE",
"762 636 CURVE SMOOTH",
"720 338 LINE SMOOTH",
"698 182 OFFCURVE",
"586 78 OFFCURVE",
"444 78 CURVE SMOOTH",
"301 78 OFFCURVE",
"217 182 OFFCURVE",
"240 338 CURVE SMOOTH",
"246 378 LINE",
"136 378 LINE",
"130 338 LINE SMOOTH",
"97 116 OFFCURVE",
"218 -32 OFFCURVE",
"428 -32 CURVE SMOOTH"
);
}
);
width = 978;
},
{
associatedMasterId = "DDDB0B36-051A-43AE-9F30-611505482296";
layerId = "2F00CE1A-B26B-4236-88BB-68A23E01396B";
name = "Apr 26 18, 16:09";
paths = (
{
closed = 1;
nodes = (
"722 -24 OFFCURVE",
"862 124 OFFCURVE",
"862 346 CURVE SMOOTH",
"862 450 LINE SMOOTH",
"862 672 OFFCURVE",
"722 820 OFFCURVE",
"512 820 CURVE SMOOTH",
"512 820 LINE",
"500 710 LINE",
"656 710 OFFCURVE",
"752 606 OFFCURVE",
"752 450 CURVE SMOOTH",
"752 346 LINE SMOOTH",
"752 190 OFFCURVE",
"656 86 OFFCURVE",
"512 86 CURVE SMOOTH",
"368 86 OFFCURVE",
"272 190 OFFCURVE",
"272 346 CURVE SMOOTH",
"272 386 LINE",
"162 386 LINE",
"162 346 LINE SMOOTH",
"162 124 OFFCURVE",
"302 -24 OFFCURVE",
"512 -24 CURVE SMOOTH"
);
},
{
closed = 1;
nodes = (
"512 820 LINE",
"322 820 OFFCURVE",
"206 674 OFFCURVE",
"206 452 CURVE SMOOTH",
"206 428 LINE",
"278 428 LINE",
"278 452 LINE SMOOTH",
"278 608 OFFCURVE",
"362 710 OFFCURVE",
"500 710 CURVE"
);
}
);
width = 1200;
}
);
note = five;
unicode = 0035;
},
{
glyphname = six;
lastChange = "2019-11-13 16:17:00 +0000";
layers = (
{
layerId = "60B18B06-8123-4D0C-85E3-2DE7B5C03586";
paths = (
{
closed = 1;
nodes = (
"633 -32 OFFCURVE",
"796 116 OFFCURVE",
"828 338 CURVE SMOOTH",
"868 618 LINE SMOOTH",
"900 840 OFFCURVE",
"772 988 OFFCURVE",
"574 988 CURVE SMOOTH",
"482 988 OFFCURVE",
"426 956 OFFCURVE",
"386 906 CURVE",
"428 836 LINE",
"474 1162 LINE SMOOTH",
"483 1225 OFFCURVE",
"529 1262 OFFCURVE",
"588 1262 CURVE SMOOTH",
"646 1262 OFFCURVE",
"684 1226 OFFCURVE",
"674 1162 CURVE SMOOTH",
"662 1082 LINE",
"932 1082 LINE",
"944 1162 LINE SMOOTH",
"977 1384 OFFCURVE",
"848 1532 OFFCURVE",
"624 1532 CURVE SMOOTH",
"400 1532 OFFCURVE",
"235 1384 OFFCURVE",
"204 1162 CURVE SMOOTH",
"88 338 LINE SMOOTH",
"57 116 OFFCURVE",
"182 -32 OFFCURVE",
"407 -32 CURVE SMOOTH"
);
},
{
closed = 1;
nodes = (
"381 238 OFFCURVE",
"349 278 OFFCURVE",
"358 338 CURVE SMOOTH",
"398 618 LINE SMOOTH",
"407 678 OFFCURVE",
"450 718 OFFCURVE",
"512 718 CURVE SMOOTH",
"573 718 OFFCURVE",
"607 678 OFFCURVE",
"598 618 CURVE SMOOTH",
"558 338 LINE SMOOTH",
"549 278 OFFCURVE",
"506 238 OFFCURVE",
"444 238 CURVE SMOOTH"
);
}
);
width = 958;
},
{
hints = (
{
horizontal = 1;
origin = "{0, 30}";
target = "{1, 13}";
type = Stem;
},
{
horizontal = 1;
origin = "{1, 6}";
target = "{0, 6}";
type = Stem;
},
{
horizontal = 1;
origin = "{0, 23}";
target = "{0, 14}";
type = Stem;
}
);
layerId = "DDDB0B36-051A-43AE-9F30-611505482296";
paths = (
{
closed = 1;
nodes = (
"638 -32 OFFCURVE",
"797 116 OFFCURVE",
"828 338 CURVE SMOOTH",
"870 636 LINE SMOOTH",
"901 858 OFFCURVE",
"779 1006 OFFCURVE",
"577 1006 CURVE SMOOTH",
"457 1006 OFFCURVE",
"358 954 OFFCURVE",
"294 862 CURVE",
"308 840 LINE",
"354 1162 LINE SMOOTH",
"376 1318 OFFCURVE",
"488 1422 OFFCURVE",
"630 1422 CURVE SMOOTH",
"773 1422 OFFCURVE",
"857 1318 OFFCURVE",
"834 1162 CURVE SMOOTH",
"828 1122 LINE",
"938 1122 LINE",
"944 1162 LINE SMOOTH",
"977 1384 OFFCURVE",
"852 1532 OFFCURVE",
"644 1532 CURVE SMOOTH",
"436 1532 OFFCURVE",
"275 1384 OFFCURVE",
"244 1162 CURVE SMOOTH",
"128 338 LINE SMOOTH",
"97 116 OFFCURVE",
"218 -32 OFFCURVE",
"426 -32 CURVE SMOOTH"
);
},
{
closed = 1;
nodes = (
"296 78 OFFCURVE",
"216 182 OFFCURVE",
"238 338 CURVE SMOOTH",
"280 638 LINE SMOOTH",
"302 794 OFFCURVE",
"404 896 OFFCURVE",
"549 896 CURVE SMOOTH",
"696 896 OFFCURVE",
"782 792 OFFCURVE",
"760 636 CURVE SMOOTH",
"718 338 LINE SMOOTH",
"696 182 OFFCURVE",
"584 78 OFFCURVE",
"442 78 CURVE SMOOTH"
);
}
);
width = 994;
}
);
note = six;
unicode = 0036;
},
{
glyphname = seven;
lastChange = "2019-11-13 16:16:42 +0000";
layers = (
{
layerId = "60B18B06-8123-4D0C-85E3-2DE7B5C03586";
paths = (
{
closed = 1;
nodes = (
"312 0 LINE",
"850 1248 LINE",
"886 1500 LINE",
"156 1500 LINE",
"118 1230 LINE",
"704 1230 LINE",
"634 1346 LINE",
"32 0 LINE"
);
}
);
width = 786;
},
{
hints = (
{
horizontal = 1;
origin = "{0, 7}";
target = up;
type = BottomGhost;
},
{
horizontal = 1;
origin = "{0, 3}";
target = "{0, 4}";
type = Stem;
}
);
layerId = "DDDB0B36-051A-43AE-9F30-611505482296";
paths = (
{
closed = 1;
nodes = (
"260 0 LINE",
"840 1408 LINE",
"854 1500 LINE",
"174 1500 LINE",
"158 1390 LINE",
"764 1390 LINE",
"736 1438 LINE",
"140 0 LINE"
);
}
);
width = 778;
}
);
note = seven;
unicode = 0037;
},
{
glyphname = eight;
lastChange = "2019-11-13 16:17:00 +0000";
layers = (
{
layerId = "60B18B06-8123-4D0C-85E3-2DE7B5C03586";
paths = (
{
closed = 1;
nodes = (
"624 -32 OFFCURVE",
"788 116 OFFCURVE",
"820 338 CURVE SMOOTH",
"848 532 LINE SMOOTH",
"866 656 OFFCURVE",
"831 756 OFFCURVE",
"766 822 CURVE",
"750 716 LINE",
"836 778 OFFCURVE",
"895 880 OFFCURVE",
"912 1002 CURVE SMOOTH",
"934 1162 LINE SMOOTH",
"965 1389 OFFCURVE",
"837 1532 OFFCURVE",
"616 1532 CURVE SMOOTH",
"388 1532 OFFCURVE",
"226 1380 OFFCURVE",
"196 1162 CURVE SMOOTH",
"174 1002 LINE SMOOTH",
"158 884 OFFCURVE",
"184 783 OFFCURVE",
"254 716 CURVE",
"270 822 LINE",
"186 758 OFFCURVE",
"126 656 OFFCURVE",
"108 532 CURVE SMOOTH",
"80 338 LINE SMOOTH",
"48 116 OFFCURVE",
"174 -32 OFFCURVE",
"398 -32 CURVE SMOOTH"
);
},
{
closed = 1;
nodes = (
"372 238 OFFCURVE",
"341 278 OFFCURVE",
"350 338 CURVE SMOOTH",
"378 532 LINE SMOOTH",
"387 592 OFFCURVE",
"430 632 OFFCURVE",
"492 632 CURVE SMOOTH",
"553 632 OFFCURVE",
"587 592 OFFCURVE",
"578 532 CURVE SMOOTH",
"550 338 LINE SMOOTH",
"541 278 OFFCURVE",
"498 238 OFFCURVE",
"436 238 CURVE SMOOTH"
);
},
{
closed = 1;
nodes = (
"470 902 OFFCURVE",
"432 938 OFFCURVE",
"442 1002 CURVE SMOOTH",
"466 1162 LINE SMOOTH",
"476 1228 OFFCURVE",
"522 1262 OFFCURVE",
"580 1262 CURVE SMOOTH",
"638 1262 OFFCURVE",
"676 1226 OFFCURVE",
"666 1162 CURVE SMOOTH",
"642 1002 LINE SMOOTH",
"632 936 OFFCURVE",
"586 902 OFFCURVE",
"528 902 CURVE SMOOTH"
);
}
);
width = 960;
},
{
hints = (
{
horizontal = 1;
origin = "{0, 29}";
target = "{1, 13}";
type = Stem;
},
{
horizontal = 1;
origin = "{1, 6}";
target = "{2, 13}";
type = Stem;
},
{
horizontal = 1;
origin = "{0, 14}";
target = "{2, 6}";
type = Stem;
}
);
layerId = "DDDB0B36-051A-43AE-9F30-611505482296";
paths = (
{
closed = 1;
nodes = (
"622 -32 OFFCURVE",
"780 116 OFFCURVE",
"812 338 CURVE SMOOTH",
"828 450 LINE SMOOTH",
"850 604 OFFCURVE",
"798 722 OFFCURVE",
"696 782 CURVE",
"690 750 LINE",
"812 808 OFFCURVE",
"894 928 OFFCURVE",
"916 1080 CURVE SMOOTH",
"928 1162 LINE SMOOTH",
"961 1388 OFFCURVE",
"834 1532 OFFCURVE",
"628 1532 CURVE SMOOTH",
"421 1532 OFFCURVE",
"261 1387 OFFCURVE",
"228 1162 CURVE SMOOTH",
"216 1080 LINE SMOOTH",
"193 924 OFFCURVE",
"245 808 OFFCURVE",
"350 750 CURVE",
"352 782 LINE",
"232 722 OFFCURVE",
"152 604 OFFCURVE",
"129 450 CURVE SMOOTH",
"112 338 LINE SMOOTH",
"78 116 OFFCURVE",
"202 -32 OFFCURVE",
"410 -32 CURVE SMOOTH"
);
},
{
closed = 1;
nodes = (
"281 78 OFFCURVE",
"200 182 OFFCURVE",
"222 338 CURVE SMOOTH",
"238 450 LINE SMOOTH",
"260 606 OFFCURVE",
"372 710 OFFCURVE",
"515 710 CURVE SMOOTH",
"659 710 OFFCURVE",
"740 606 OFFCURVE",
"718 450 CURVE SMOOTH",
"702 338 LINE SMOOTH",
"680 182 OFFCURVE",
"568 78 OFFCURVE",
"425 78 CURVE SMOOTH"
);
},
{
closed = 1;
nodes = (
"386 820 OFFCURVE",
"303 924 OFFCURVE",
"326 1080 CURVE SMOOTH",
"338 1162 LINE SMOOTH",
"361 1318 OFFCURVE",
"469 1422 OFFCURVE",
"613 1422 CURVE SMOOTH",
"757 1422 OFFCURVE",
"841 1318 OFFCURVE",
"818 1162 CURVE SMOOTH",
"806 1080 LINE SMOOTH",
"783 924 OFFCURVE",
"672 820 OFFCURVE",
"530 820 CURVE SMOOTH"
);
}
);
width = 980;
}
);
note = eight;
unicode = 0038;
},
{
glyphname = nine;
lastChange = "2019-11-13 16:17:00 +0000";
layers = (
{
layerId = "60B18B06-8123-4D0C-85E3-2DE7B5C03586";
paths = (
{
closed = 1;
nodes = (
"616 -32 OFFCURVE",
"781 116 OFFCURVE",
"812 338 CURVE SMOOTH",
"928 1162 LINE SMOOTH",
"959 1384 OFFCURVE",
"833 1532 OFFCURVE",
"608 1532 CURVE SMOOTH",
"384 1532 OFFCURVE",
"220 1384 OFFCURVE",
"188 1162 CURVE SMOOTH",
"148 882 LINE SMOOTH",
"116 660 OFFCURVE",
"244 512 OFFCURVE",
"441 512 CURVE SMOOTH",
"527 512 OFFCURVE",
"586 540 OFFCURVE",
"630 594 CURVE",
"588 664 LINE",
"542 338 LINE SMOOTH",
"534 280 OFFCURVE",
"492 238 OFFCURVE",
"427 238 CURVE SMOOTH",
"360 238 OFFCURVE",
"334 282 OFFCURVE",
"342 338 CURVE SMOOTH",
"354 418 LINE",
"84 418 LINE",
"72 338 LINE SMOOTH",
"39 116 OFFCURVE",
"166 -32 OFFCURVE",
"390 -32 CURVE SMOOTH"
);
},
{
closed = 1;
nodes = (
"441 782 OFFCURVE",
"409 822 OFFCURVE",
"418 882 CURVE SMOOTH",
"458 1162 LINE SMOOTH",
"467 1222 OFFCURVE",
"510 1262 OFFCURVE",
"573 1262 CURVE SMOOTH",
"635 1262 OFFCURVE",
"667 1222 OFFCURVE",
"658 1162 CURVE SMOOTH",
"618 882 LINE SMOOTH",
"609 822 OFFCURVE",
"566 782 OFFCURVE",
"504 782 CURVE SMOOTH"
);
}
);
width = 960;
},
{
hints = (
{
horizontal = 1;
origin = "{0, 30}";
target = "{0, 21}";
type = Stem;
},
{
horizontal = 1;
origin = "{0, 13}";
target = "{1, 13}";
type = Stem;
},
{
horizontal = 1;
origin = "{0, 6}";
target = "{1, 6}";
type = Stem;
}
);
layerId = "DDDB0B36-051A-43AE-9F30-611505482296";
paths = (
{
closed = 1;
nodes = (
"618 -32 OFFCURVE",
"779 116 OFFCURVE",
"810 338 CURVE SMOOTH",
"926 1162 LINE SMOOTH",
"957 1384 OFFCURVE",
"835 1532 OFFCURVE",
"626 1532 CURVE SMOOTH",
"418 1532 OFFCURVE",
"257 1384 OFFCURVE",
"226 1162 CURVE SMOOTH",
"184 864 LINE SMOOTH",
"153 642 OFFCURVE",
"275 494 OFFCURVE",
"477 494 CURVE SMOOTH",
"601 494 OFFCURVE",
"698 550 OFFCURVE",
"760 638 CURVE",
"746 660 LINE",
"700 338 LINE SMOOTH",
"678 182 OFFCURVE",
"568 78 OFFCURVE",
"424 78 CURVE SMOOTH",
"282 78 OFFCURVE",
"197 182 OFFCURVE",
"220 338 CURVE SMOOTH",
"226 378 LINE",
"116 378 LINE",
"110 338 LINE SMOOTH",
"77 116 OFFCURVE",
"200 -32 OFFCURVE",
"408 -32 CURVE SMOOTH"
);
},
{
closed = 1;
nodes = (
"357 604 OFFCURVE",
"272 708 OFFCURVE",
"294 864 CURVE SMOOTH",
"336 1162 LINE SMOOTH",
"358 1318 OFFCURVE",
"468 1422 OFFCURVE",
"612 1422 CURVE SMOOTH",
"754 1422 OFFCURVE",
"838 1318 OFFCURVE",
"816 1162 CURVE SMOOTH",
"774 862 LINE SMOOTH",
"752 706 OFFCURVE",
"649 604 OFFCURVE",
"504 604 CURVE SMOOTH"
);
}
);
width = 994;
}
);
note = nine;
unicode = 0039;
},
{
glyphname = zero.tf;
lastChange = "2019-11-13 16:17:00 +0000";
layers = (
{
layerId = "60B18B06-8123-4D0C-85E3-2DE7B5C03586";
paths = (
{
closed = 1;
nodes = (
"620 -32 OFFCURVE",
"783 116 OFFCURVE",
"814 338 CURVE SMOOTH",
"930 1162 LINE SMOOTH",
"961 1384 OFFCURVE",
"837 1532 OFFCURVE",
"617 1532 CURVE SMOOTH",
"397 1532 OFFCURVE",
"231 1384 OFFCURVE",
"200 1162 CURVE SMOOTH",
"84 338 LINE SMOOTH",
"53 116 OFFCURVE",
"178 -32 OFFCURVE",
"398 -32 CURVE SMOOTH"
);
},
{
closed = 1;
nodes = (
"374 238 OFFCURVE",
"344 278 OFFCURVE",
"352 338 CURVE SMOOTH",
"468 1162 LINE SMOOTH",
"476 1222 OFFCURVE",
"519 1262 OFFCURVE",
"579 1262 CURVE SMOOTH",
"639 1262 OFFCURVE",
"670 1222 OFFCURVE",
"662 1162 CURVE SMOOTH",
"546 338 LINE SMOOTH",
"538 278 OFFCURVE",
"494 238 OFFCURVE",
"436 238 CURVE SMOOTH"
);
},
{
closed = 1;
nodes = (
"224 238 LINE",
"374 238 LINE",
"792 1262 LINE",
"642 1262 LINE"
);
}
);
width = 960;
},
{
hints = (
{
horizontal = 1;
origin = "{0, 13}";
target = "{2, 0}";
type = Stem;
},
{
horizontal = 1;
origin = "{0, 6}";
target = "{1, 6}";
type = Stem;
}
);
layerId = "DDDB0B36-051A-43AE-9F30-611505482296";
paths = (
{
closed = 1;
nodes = (
"601 -32 OFFCURVE",
"761 116 OFFCURVE",
"792 338 CURVE SMOOTH",
"908 1162 LINE SMOOTH",
"939 1384 OFFCURVE",
"818 1532 OFFCURVE",
"618 1532 CURVE SMOOTH",
"416 1532 OFFCURVE",
"259 1384 OFFCURVE",
"228 1162 CURVE SMOOTH",
"112 338 LINE SMOOTH",
"81 116 OFFCURVE",
"198 -32 OFFCURVE",
"400 -32 CURVE SMOOTH"
);
},
{
closed = 1;
nodes = (
"278 78 OFFCURVE",
"200 182 OFFCURVE",
"222 338 CURVE SMOOTH",
"338 1162 LINE SMOOTH",
"360 1318 OFFCURVE",
"466 1422 OFFCURVE",
"604 1422 CURVE SMOOTH",
"738 1422 OFFCURVE",
"820 1318 OFFCURVE",
"798 1162 CURVE SMOOTH",
"682 338 LINE SMOOTH",
"660 182 OFFCURVE",
"550 78 OFFCURVE",
"416 78 CURVE SMOOTH"
);
},
{
closed = 1;
nodes = (
"200 78 LINE",
"278 78 LINE",
"820 1422 LINE",
"742 1422 LINE"
);
}
);
width = 960;
}
);
note = zero;
},
{
glyphname = one.tf;
lastChange = "2019-11-13 16:17:00 +0000";
layers = (
{
layerId = "60B18B06-8123-4D0C-85E3-2DE7B5C03586";
paths = (
{
closed = 1;
nodes = (
"830 0 LINE",
"868 270 LINE",
"576 270 LINE",
"748 1500 LINE",
"478 1500 LINE",
"474 1478 LINE SMOOTH",
"457 1386 OFFCURVE",
"380 1328 OFFCURVE",
"258 1328 CURVE SMOOTH",
"192 1328 LINE",
"154 1058 LINE",
"416 1058 LINE",
"306 270 LINE",
"12 270 LINE",
"-26 0 LINE"
);
}
);
width = 960;
},
{
hints = (
{
horizontal = 1;
origin = "{0, 14}";
target = "{0, 13}";
type = Stem;
},
{
horizontal = 1;
origin = "{0, 10}";
target = "{0, 9}";
type = Stem;
}
);
layerId = "DDDB0B36-051A-43AE-9F30-611505482296";
paths = (
{
closed = 1;
nodes = (
"798 0 LINE",
"814 110 LINE",
"474 110 LINE",
"668 1500 LINE",
"558 1500 LINE",
"554 1478 LINE SMOOTH",
"537 1386 OFFCURVE",
"462 1328 OFFCURVE",
"340 1328 CURVE SMOOTH",
"314 1328 LINE",
"298 1218 LINE",
"518 1218 LINE",
"364 110 LINE",
"24 110 LINE",
"8 0 LINE"
);
}
);
width = 960;
}
);
note = one;
},
{
glyphname = two.tf;
lastChange = "2019-11-13 16:17:00 +0000";
layers = (
{
layerId = "60B18B06-8123-4D0C-85E3-2DE7B5C03586";
paths = (
{
closed = 1;
nodes = (
"786 0 LINE",
"824 270 LINE",
"214 270 LINE",
"318 148 LINE",
"340 300 LINE SMOOTH",
"380 576 OFFCURVE",
"868 590 OFFCURVE",
"920 962 CURVE SMOOTH",
"948 1162 LINE SMOOTH",
"980 1392 OFFCURVE",
"838 1532 OFFCURVE",
"613 1532 CURVE SMOOTH",
"381 1532 OFFCURVE",
"202 1384 OFFCURVE",
"174 1162 CURVE SMOOTH",
"164 1082 LINE",
"434 1082 LINE",
"444 1162 LINE SMOOTH",
"452 1224 OFFCURVE",
"508 1262 OFFCURVE",
"576 1262 CURVE SMOOTH",
"646 1262 OFFCURVE",
"686 1222 OFFCURVE",
"678 1162 CURVE SMOOTH",
"650 962 LINE SMOOTH",
"618 730 OFFCURVE",
"111 730 OFFCURVE",
"46 250 CURVE SMOOTH",
"12 0 LINE"
);
}
);
width = 962;
},
{
associatedMasterId = "60B18B06-8123-4D0C-85E3-2DE7B5C03586";
layerId = "F92B29A1-039B-46AC-99A0-1FE44ADB51CB";
name = "Apr 25 18, 17:35";
paths = (
{
closed = 1;
nodes = (
"300 1164 LINE SMOOTH",
"300 1242 OFFCURVE",
"372 1310 OFFCURVE",
"452 1310 CURVE SMOOTH",
"530 1310 OFFCURVE",
"602 1246 OFFCURVE",
"604 1164 CURVE SMOOTH",
"608 1000 LINE SMOOTH",
"618 644 OFFCURVE",
"82 588 OFFCURVE",
"82 142 CURVE SMOOTH",
"82 0 LINE",
"828 0 LINE",
"828 190 LINE",
"284 190 LINE",
"284 568 OFFCURVE",
"798 550 OFFCURVE",
"798 1006 CURVE",
"796 1164 LINE SMOOTH",
"794 1344 OFFCURVE",
"640 1500 OFFCURVE",
"452 1500 CURVE SMOOTH",
"268 1500 OFFCURVE",
"108 1352 OFFCURVE",
"108 1164 CURVE SMOOTH",
"108 1040 LINE",
"300 1040 LINE"
);
}
);
width = 912;
},
{
hints = (
{
horizontal = 1;
origin = "{0, 28}";
target = "{0, 2}";
type = Stem;
},
{
horizontal = 1;
origin = "{0, 11}";
target = "{0, 20}";
type = Stem;
}
);
layerId = "DDDB0B36-051A-43AE-9F30-611505482296";
paths = (
{
closed = 1;
nodes = (
"766 0 LINE",
"782 110 LINE",
"118 110 LINE",
"160 60 LINE",
"170 124 LINE SMOOTH",
"222 454 OFFCURVE",
"865 698 OFFCURVE",
"912 1044 CURVE SMOOTH",
"928 1162 LINE SMOOTH",
"958 1382 OFFCURVE",
"834 1532 OFFCURVE",
"616 1532 CURVE SMOOTH",
"398 1532 OFFCURVE",
"233 1384 OFFCURVE",
"200 1162 CURVE SMOOTH",
"194 1122 LINE",
"304 1122 LINE",
"310 1162 LINE SMOOTH",
"333 1318 OFFCURVE",
"450 1422 OFFCURVE",
"600 1422 CURVE SMOOTH",
"751 1422 OFFCURVE",
"839 1318 OFFCURVE",
"818 1162 CURVE SMOOTH",
"802 1044 LINE SMOOTH",
"758 722 OFFCURVE",
"113 522 OFFCURVE",
"50 84 CURVE SMOOTH",
"38 0 LINE"
);
}
);
width = 962;
}
);
note = two;
},
{
glyphname = three.tf;
lastChange = "2019-11-13 16:17:00 +0000";
layers = (
{
layerId = "60B18B06-8123-4D0C-85E3-2DE7B5C03586";
paths = (
{
closed = 1;
nodes = (
"610 -32 OFFCURVE",
"778 122 OFFCURVE",
"808 338 CURVE SMOOTH",
"836 538 LINE SMOOTH",
"853 662 OFFCURVE",
"816 761 OFFCURVE",
"744 828 CURVE",
"730 722 LINE",
"820 784 OFFCURVE",
"884 884 OFFCURVE",
"902 1008 CURVE SMOOTH",
"924 1162 LINE SMOOTH",
"956 1384 OFFCURVE",
"822 1532 OFFCURVE",
"590 1532 CURVE SMOOTH",
"356 1532 OFFCURVE",
"189 1384 OFFCURVE",
"156 1162 CURVE SMOOTH",
"144 1082 LINE",
"414 1082 LINE",
"426 1162 LINE SMOOTH",
"434 1218 OFFCURVE",
"479 1262 OFFCURVE",
"552 1262 CURVE SMOOTH",
"622 1262 OFFCURVE",
"663 1222 OFFCURVE",
"654 1162 CURVE SMOOTH",
"632 1008 LINE SMOOTH",
"623 948 OFFCURVE",
"572 908 OFFCURVE",
"504 908 CURVE SMOOTH",
"344 908 LINE",
"306 638 LINE",
"466 638 LINE SMOOTH",
"536 638 OFFCURVE",
"574 598 OFFCURVE",
"566 538 CURVE SMOOTH",
"538 338 LINE SMOOTH",
"530 278 OFFCURVE",
"478 238 OFFCURVE",
"410 238 CURVE SMOOTH",
"332 238 OFFCURVE",
"302 284 OFFCURVE",
"310 338 CURVE SMOOTH",
"322 418 LINE",
"52 418 LINE",
"40 338 LINE SMOOTH",
"7 116 OFFCURVE",
"140 -32 OFFCURVE",
"372 -32 CURVE SMOOTH"
);
}
);
width = 960;
},
{
hints = (
{
horizontal = 1;
origin = "{0, 49}";
target = "{0, 40}";
type = Stem;
},
{
horizontal = 1;
origin = "{0, 32}";
target = "{0, 31}";
type = Stem;
},
{
horizontal = 1;
origin = "{0, 14}";
target = "{0, 23}";
type = Stem;
}
);
layerId = "DDDB0B36-051A-43AE-9F30-611505482296";
paths = (
{
closed = 1;
nodes = (
"591 -32 OFFCURVE",
"752 116 OFFCURVE",
"784 338 CURVE SMOOTH",
"800 450 LINE SMOOTH",
"822 602 OFFCURVE",
"771 724 OFFCURVE",
"666 782 CURVE",
"658 750 LINE",
"784 808 OFFCURVE",
"865 930 OFFCURVE",
"887 1080 CURVE SMOOTH",
"899 1162 LINE SMOOTH",
"932 1387 OFFCURVE",
"805 1532 OFFCURVE",
"596 1532 CURVE SMOOTH",
"386 1532 OFFCURVE",
"223 1384 OFFCURVE",
"190 1162 CURVE SMOOTH",
"184 1122 LINE",
"294 1122 LINE",
"300 1162 LINE SMOOTH",
"323 1318 OFFCURVE",
"436 1422 OFFCURVE",
"582 1422 CURVE SMOOTH",
"728 1422 OFFCURVE",
"813 1318 OFFCURVE",
"790 1162 CURVE SMOOTH",
"778 1080 LINE SMOOTH",
"755 924 OFFCURVE",
"642 820 OFFCURVE",
"498 820 CURVE SMOOTH",
"392 820 LINE",
"376 710 LINE",
"482 710 LINE SMOOTH",
"628 710 OFFCURVE",
"712 606 OFFCURVE",
"690 450 CURVE SMOOTH",
"674 338 LINE SMOOTH",
"652 182 OFFCURVE",
"538 78 OFFCURVE",
"394 78 CURVE SMOOTH",
"249 78 OFFCURVE",
"161 182 OFFCURVE",
"184 338 CURVE SMOOTH",
"190 378 LINE",
"80 378 LINE",
"74 338 LINE SMOOTH",
"41 116 OFFCURVE",
"168 -32 OFFCURVE",
"379 -32 CURVE SMOOTH"
);
}
);
width = 960;
}
);
note = three;
},
{
glyphname = four.tf;
lastChange = "2019-11-13 16:16:42 +0000";
layers = (
{
layerId = "60B18B06-8123-4D0C-85E3-2DE7B5C03586";
paths = (
{
closed = 1;
nodes = (
"716 0 LINE",
"752 256 LINE",
"866 256 LINE",
"904 526 LINE",
"790 526 LINE",
"926 1500 LINE",
"690 1500 LINE",
"20 488 LINE",
"-12 256 LINE",
"482 256 LINE",
"446 0 LINE"
);
},
{
closed = 1;
nodes = (
"580 962 LINE",
"520 526 LINE",
"186 526 LINE",
"238 416 LINE"
);
}
);
width = 962;
},
{
hints = (
{
horizontal = 1;
origin = "{0, 10}";
target = up;
type = BottomGhost;
},
{
horizontal = 1;
origin = "{0, 8}";
target = "{0, 7}";
type = Stem;
},
{
horizontal = 1;
origin = "{0, 6}";
target = down;
type = TopGhost;
}
);
layerId = "DDDB0B36-051A-43AE-9F30-611505482296";
paths = (
{
closed = 1;
nodes = (
"680 0 LINE",
"728 350 LINE",
"876 350 LINE",
"892 458 LINE",
"744 458 LINE",
"888 1500 LINE",
"766 1500 LINE",
"48 458 LINE",
"32 350 LINE",
"618 350 LINE",
"570 0 LINE"
);
},
{
closed = 1;
nodes = (
"754 1322 LINE",
"634 458 LINE",
"112 458 LINE",
"130 414 LINE"
);
}
);
width = 962;
}
);
note = four;
},
{
glyphname = five.tf;
lastChange = "2019-11-13 16:17:00 +0000";
layers = (
{
layerId = "60B18B06-8123-4D0C-85E3-2DE7B5C03586";
paths = (
{
closed = 1;
nodes = (
"650 -32 OFFCURVE",
"818 116 OFFCURVE",
"850 338 CURVE SMOOTH",
"890 618 LINE SMOOTH",
"922 840 OFFCURVE",
"789 988 OFFCURVE",
"589 988 CURVE SMOOTH",
"496 988 OFFCURVE",
"439 956 OFFCURVE",
"398 906 CURVE",
"440 836 LINE",
"512 1352 LINE",
"372 1230 LINE",
"914 1230 LINE",
"952 1500 LINE",
"262 1500 LINE",
"138 604 LINE",
"412 604 LINE",
"412 618 LINE SMOOTH",
"412 678 OFFCURVE",
"462 718 OFFCURVE",
"528 718 CURVE SMOOTH",
"592 718 OFFCURVE",
"629 678 OFFCURVE",
"620 618 CURVE SMOOTH",
"580 338 LINE SMOOTH",
"571 278 OFFCURVE",
"525 238 OFFCURVE",
"459 238 CURVE SMOOTH",
"390 238 OFFCURVE",
"362 282 OFFCURVE",
"370 338 CURVE SMOOTH",
"382 418 LINE",
"112 418 LINE",
"100 338 LINE SMOOTH",
"67 116 OFFCURVE",
"193 -32 OFFCURVE",
"422 -32 CURVE SMOOTH"
);
}
);
width = 962;
},
{
hints = (
{
horizontal = 1;
origin = "{0, 37}";
target = "{0, 28}";
type = Stem;
},
{
horizontal = 1;
origin = "{0, 21}";
target = "{0, 6}";
type = Stem;
},
{
horizontal = 1;
origin = "{0, 15}";
target = "{0, 12}";
type = Stem;
}
);
layerId = "DDDB0B36-051A-43AE-9F30-611505482296";
paths = (
{
closed = 1;
nodes = (
"626 -32 OFFCURVE",
"785 116 OFFCURVE",
"816 338 CURVE SMOOTH",
"858 636 LINE SMOOTH",
"889 858 OFFCURVE",
"769 1006 OFFCURVE",
"569 1006 CURVE SMOOTH",
"450 1006 OFFCURVE",
"354 954 OFFCURVE",
"290 862 CURVE",
"304 840 LINE",
"388 1440 LINE",
"332 1390 LINE",
"964 1390 LINE",
"978 1500 LINE",
"286 1500 LINE",
"162 614 LINE",
"272 614 LINE",
"276 638 LINE SMOOTH",
"302 794 OFFCURVE",
"401 896 OFFCURVE",
"542 896 CURVE SMOOTH",
"685 896 OFFCURVE",
"770 792 OFFCURVE",
"748 636 CURVE SMOOTH",
"706 338 LINE SMOOTH",
"684 182 OFFCURVE",
"574 78 OFFCURVE",
"434 78 CURVE SMOOTH",
"296 78 OFFCURVE",
"211 182 OFFCURVE",
"234 338 CURVE SMOOTH",
"240 378 LINE",
"130 378 LINE",
"124 338 LINE SMOOTH",
"91 116 OFFCURVE",
"214 -32 OFFCURVE",
"418 -32 CURVE SMOOTH"
);
}
);
width = 960;
},
{
associatedMasterId = "DDDB0B36-051A-43AE-9F30-611505482296";
layerId = "2F00CE1A-B26B-4236-88BB-68A23E01396B";
name = "Apr 26 18, 16:09";
paths = (
{
closed = 1;
nodes = (
"722 -24 OFFCURVE",
"862 124 OFFCURVE",
"862 346 CURVE SMOOTH",
"862 450 LINE SMOOTH",
"862 672 OFFCURVE",
"722 820 OFFCURVE",
"512 820 CURVE SMOOTH",
"512 820 LINE",
"500 710 LINE",
"656 710 OFFCURVE",
"752 606 OFFCURVE",
"752 450 CURVE SMOOTH",
"752 346 LINE SMOOTH",
"752 190 OFFCURVE",
"656 86 OFFCURVE",
"512 86 CURVE SMOOTH",
"368 86 OFFCURVE",
"272 190 OFFCURVE",
"272 346 CURVE SMOOTH",
"272 386 LINE",
"162 386 LINE",
"162 346 LINE SMOOTH",
"162 124 OFFCURVE",
"302 -24 OFFCURVE",
"512 -24 CURVE SMOOTH"
);
},
{
closed = 1;
nodes = (
"512 820 LINE",
"322 820 OFFCURVE",
"206 674 OFFCURVE",
"206 452 CURVE SMOOTH",
"206 428 LINE",
"278 428 LINE",
"278 452 LINE SMOOTH",
"278 608 OFFCURVE",
"362 710 OFFCURVE",
"500 710 CURVE"
);
}
);
width = 1200;
}
);
note = five;
},
{
glyphname = six.tf;
lastChange = "2019-11-13 16:17:00 +0000";
layers = (
{
layerId = "60B18B06-8123-4D0C-85E3-2DE7B5C03586";
paths = (
{
closed = 1;
nodes = (
"633 -32 OFFCURVE",
"798 116 OFFCURVE",
"830 338 CURVE SMOOTH",
"870 618 LINE SMOOTH",
"902 840 OFFCURVE",
"771 988 OFFCURVE",
"574 988 CURVE SMOOTH",
"494 988 OFFCURVE",
"433 964 OFFCURVE",
"386 906 CURVE",
"428 836 LINE",
"474 1162 LINE SMOOTH",
"482 1218 OFFCURVE",
"524 1262 OFFCURVE",
"588 1262 CURVE SMOOTH",
"644 1262 OFFCURVE",
"686 1228 OFFCURVE",
"676 1162 CURVE SMOOTH",
"664 1082 LINE",
"934 1082 LINE",
"946 1162 LINE SMOOTH",
"979 1384 OFFCURVE",
"849 1532 OFFCURVE",
"625 1532 CURVE SMOOTH",
"402 1532 OFFCURVE",
"235 1384 OFFCURVE",
"204 1162 CURVE SMOOTH",
"88 338 LINE SMOOTH",
"57 116 OFFCURVE",
"182 -32 OFFCURVE",
"407 -32 CURVE SMOOTH"
);
},
{
closed = 1;
nodes = (
"383 238 OFFCURVE",
"349 278 OFFCURVE",
"358 338 CURVE SMOOTH",
"398 618 LINE SMOOTH",
"407 678 OFFCURVE",
"452 718 OFFCURVE",
"513 718 CURVE SMOOTH",
"573 718 OFFCURVE",
"609 678 OFFCURVE",
"600 618 CURVE SMOOTH",
"560 338 LINE SMOOTH",
"551 278 OFFCURVE",
"506 238 OFFCURVE",
"444 238 CURVE SMOOTH"
);
}
);
width = 960;
},
{
hints = (
{
horizontal = 1;
origin = "{0, 30}";
target = "{1, 13}";
type = Stem;
},
{
horizontal = 1;
origin = "{1, 6}";
target = "{0, 6}";
type = Stem;
},
{
horizontal = 1;
origin = "{0, 23}";
target = "{0, 14}";
type = Stem;
}
);
layerId = "DDDB0B36-051A-43AE-9F30-611505482296";
paths = (
{
closed = 1;
nodes = (
"614 -32 OFFCURVE",
"773 116 OFFCURVE",
"804 338 CURVE SMOOTH",
"846 636 LINE SMOOTH",
"877 858 OFFCURVE",
"757 1006 OFFCURVE",
"560 1006 CURVE SMOOTH",
"443 1006 OFFCURVE",
"346 954 OFFCURVE",
"284 862 CURVE",
"298 840 LINE",
"344 1162 LINE SMOOTH",
"366 1318 OFFCURVE",
"474 1422 OFFCURVE",
"613 1422 CURVE SMOOTH",
"751 1422 OFFCURVE",
"833 1318 OFFCURVE",
"810 1162 CURVE SMOOTH",
"804 1122 LINE",
"914 1122 LINE",
"920 1162 LINE SMOOTH",
"953 1384 OFFCURVE",
"830 1532 OFFCURVE",
"628 1532 CURVE SMOOTH",
"424 1532 OFFCURVE",
"265 1384 OFFCURVE",
"234 1162 CURVE SMOOTH",
"118 338 LINE SMOOTH",
"87 116 OFFCURVE",
"205 -32 OFFCURVE",
"410 -32 CURVE SMOOTH"
);
},
{
closed = 1;
nodes = (
"285 78 OFFCURVE",
"206 182 OFFCURVE",
"228 338 CURVE SMOOTH",
"270 638 LINE SMOOTH",
"292 794 OFFCURVE",
"392 896 OFFCURVE",
"532 896 CURVE SMOOTH",
"674 896 OFFCURVE",
"758 792 OFFCURVE",
"736 636 CURVE SMOOTH",
"694 338 LINE SMOOTH",
"672 182 OFFCURVE",
"563 78 OFFCURVE",
"424 78 CURVE SMOOTH"
);
}
);
width = 960;
}
);
note = six;
},
{
glyphname = seven.tf;
lastChange = "2019-11-13 16:16:42 +0000";
layers = (
{
layerId = "60B18B06-8123-4D0C-85E3-2DE7B5C03586";
paths = (
{
closed = 1;
nodes = (
"384 0 LINE",
"986 1248 LINE",
"1022 1500 LINE",
"188 1500 LINE",
"150 1230 LINE",
"836 1230 LINE",
"770 1344 LINE",
"102 0 LINE"
);
}
);
width = 960;
},
{
hints = (
{
horizontal = 1;
origin = "{0, 7}";
target = up;
type = BottomGhost;
},
{
horizontal = 1;
origin = "{0, 3}";
target = "{0, 4}";
type = Stem;
}
);
layerId = "DDDB0B36-051A-43AE-9F30-611505482296";
paths = (
{
closed = 1;
nodes = (
"342 0 LINE",
"968 1408 LINE",
"982 1500 LINE",
"228 1500 LINE",
"212 1390 LINE",
"888 1390 LINE",
"858 1438 LINE",
"222 0 LINE"
);
}
);
width = 962;
}
);
note = seven;
},
{
glyphname = eight.tf;
lastChange = "2019-11-13 16:17:00 +0000";
layers = (
{
layerId = "60B18B06-8123-4D0C-85E3-2DE7B5C03586";
paths = (
{
closed = 1;
nodes = (
"624 -32 OFFCURVE",
"788 116 OFFCURVE",
"820 338 CURVE SMOOTH",
"848 532 LINE SMOOTH",
"866 656 OFFCURVE",
"831 756 OFFCURVE",
"766 822 CURVE",
"750 716 LINE",
"836 778 OFFCURVE",
"895 880 OFFCURVE",
"912 1002 CURVE SMOOTH",
"934 1162 LINE SMOOTH",
"965 1389 OFFCURVE",
"837 1532 OFFCURVE",
"616 1532 CURVE SMOOTH",
"388 1532 OFFCURVE",
"226 1380 OFFCURVE",
"196 1162 CURVE SMOOTH",
"174 1002 LINE SMOOTH",
"158 884 OFFCURVE",
"184 783 OFFCURVE",
"254 716 CURVE",
"270 822 LINE",
"186 758 OFFCURVE",
"126 656 OFFCURVE",
"108 532 CURVE SMOOTH",
"80 338 LINE SMOOTH",
"48 116 OFFCURVE",
"174 -32 OFFCURVE",
"398 -32 CURVE SMOOTH"
);
},
{
closed = 1;
nodes = (
"372 238 OFFCURVE",
"341 278 OFFCURVE",
"350 338 CURVE SMOOTH",
"378 532 LINE SMOOTH",
"387 592 OFFCURVE",
"430 632 OFFCURVE",
"492 632 CURVE SMOOTH",
"553 632 OFFCURVE",
"587 592 OFFCURVE",
"578 532 CURVE SMOOTH",
"550 338 LINE SMOOTH",
"541 278 OFFCURVE",
"498 238 OFFCURVE",
"436 238 CURVE SMOOTH"
);
},
{
closed = 1;
nodes = (
"470 902 OFFCURVE",
"432 938 OFFCURVE",
"442 1002 CURVE SMOOTH",
"466 1162 LINE SMOOTH",
"476 1228 OFFCURVE",
"522 1262 OFFCURVE",
"580 1262 CURVE SMOOTH",
"638 1262 OFFCURVE",
"676 1226 OFFCURVE",
"666 1162 CURVE SMOOTH",
"642 1002 LINE SMOOTH",
"632 936 OFFCURVE",
"586 902 OFFCURVE",
"528 902 CURVE SMOOTH"
);
}
);
width = 960;
},
{
hints = (
{
horizontal = 1;
origin = "{0, 29}";
target = "{1, 13}";
type = Stem;
},
{
horizontal = 1;
origin = "{1, 6}";
target = "{2, 13}";
type = Stem;
},
{
horizontal = 1;
origin = "{0, 14}";
target = "{2, 6}";
type = Stem;
}
);
layerId = "DDDB0B36-051A-43AE-9F30-611505482296";
paths = (
{
closed = 1;
nodes = (
"607 -32 OFFCURVE",
"766 116 OFFCURVE",
"798 338 CURVE SMOOTH",
"814 450 LINE SMOOTH",
"835 600 OFFCURVE",
"788 719 OFFCURVE",
"684 782 CURVE",
"678 750 LINE",
"792 804 OFFCURVE",
"879 920 OFFCURVE",
"902 1080 CURVE SMOOTH",
"914 1162 LINE SMOOTH",
"947 1388 OFFCURVE",
"820 1532 OFFCURVE",
"618 1532 CURVE SMOOTH",
"414 1532 OFFCURVE",
"255 1385 OFFCURVE",
"222 1162 CURVE SMOOTH",
"210 1080 LINE SMOOTH",
"186 918 OFFCURVE",
"244 803 OFFCURVE",
"342 750 CURVE",
"344 782 LINE",
"225 721 OFFCURVE",
"144 606 OFFCURVE",
"122 450 CURVE SMOOTH",
"106 338 LINE SMOOTH",
"74 116 OFFCURVE",
"196 -32 OFFCURVE",
"401 -32 CURVE SMOOTH"
);
},
{
closed = 1;
nodes = (
"275 78 OFFCURVE",
"194 182 OFFCURVE",
"216 338 CURVE SMOOTH",
"232 450 LINE SMOOTH",
"254 606 OFFCURVE",
"366 710 OFFCURVE",
"505 710 CURVE SMOOTH",
"645 710 OFFCURVE",
"726 606 OFFCURVE",
"704 450 CURVE SMOOTH",
"688 338 LINE SMOOTH",
"666 182 OFFCURVE",
"554 78 OFFCURVE",
"415 78 CURVE SMOOTH"
);
},
{
closed = 1;
nodes = (
"380 820 OFFCURVE",
"297 924 OFFCURVE",
"320 1080 CURVE SMOOTH",
"332 1162 LINE SMOOTH",
"355 1318 OFFCURVE",
"466 1422 OFFCURVE",
"604 1422 CURVE SMOOTH",
"744 1422 OFFCURVE",
"827 1318 OFFCURVE",
"804 1162 CURVE SMOOTH",
"792 1080 LINE SMOOTH",
"769 924 OFFCURVE",
"658 820 OFFCURVE",
"520 820 CURVE SMOOTH"
);
}
);
width = 960;
}
);
note = eight;
},
{
glyphname = nine.tf;
lastChange = "2019-11-13 16:17:00 +0000";
layers = (
{
layerId = "60B18B06-8123-4D0C-85E3-2DE7B5C03586";
paths = (
{
closed = 1;
nodes = (
"616 -32 OFFCURVE",
"781 116 OFFCURVE",
"812 338 CURVE SMOOTH",
"928 1162 LINE SMOOTH",
"959 1384 OFFCURVE",
"833 1532 OFFCURVE",
"608 1532 CURVE SMOOTH",
"384 1532 OFFCURVE",
"220 1384 OFFCURVE",
"188 1162 CURVE SMOOTH",
"148 882 LINE SMOOTH",
"116 660 OFFCURVE",
"244 512 OFFCURVE",
"441 512 CURVE SMOOTH",
"527 512 OFFCURVE",
"586 540 OFFCURVE",
"630 594 CURVE",
"588 664 LINE",
"542 338 LINE SMOOTH",
"534 280 OFFCURVE",
"492 238 OFFCURVE",
"427 238 CURVE SMOOTH",
"360 238 OFFCURVE",
"334 282 OFFCURVE",
"342 338 CURVE SMOOTH",
"354 418 LINE",
"84 418 LINE",
"72 338 LINE SMOOTH",
"39 116 OFFCURVE",
"166 -32 OFFCURVE",
"390 -32 CURVE SMOOTH"
);
},
{
closed = 1;
nodes = (
"441 782 OFFCURVE",
"409 822 OFFCURVE",
"418 882 CURVE SMOOTH",
"458 1162 LINE SMOOTH",
"467 1222 OFFCURVE",
"510 1262 OFFCURVE",
"573 1262 CURVE SMOOTH",
"635 1262 OFFCURVE",
"667 1222 OFFCURVE",
"658 1162 CURVE SMOOTH",
"618 882 LINE SMOOTH",
"609 822 OFFCURVE",
"566 782 OFFCURVE",
"504 782 CURVE SMOOTH"
);
}
);
width = 960;
},
{
hints = (
{
horizontal = 1;
origin = "{0, 30}";
target = "{0, 21}";
type = Stem;
},
{
horizontal = 1;
origin = "{0, 13}";
target = "{1, 13}";
type = Stem;
},
{
horizontal = 1;
origin = "{0, 6}";
target = "{1, 6}";
type = Stem;
}
);
layerId = "DDDB0B36-051A-43AE-9F30-611505482296";
paths = (
{
closed = 1;
nodes = (
"596 -32 OFFCURVE",
"755 116 OFFCURVE",
"786 338 CURVE SMOOTH",
"902 1162 LINE SMOOTH",
"933 1384 OFFCURVE",
"812 1532 OFFCURVE",
"610 1532 CURVE SMOOTH",
"406 1532 OFFCURVE",
"247 1384 OFFCURVE",
"216 1162 CURVE SMOOTH",
"174 864 LINE SMOOTH",
"143 642 OFFCURVE",
"263 494 OFFCURVE",
"460 494 CURVE SMOOTH",
"578 494 OFFCURVE",
"673 547 OFFCURVE",
"736 638 CURVE",
"722 660 LINE",
"676 338 LINE SMOOTH",
"654 182 OFFCURVE",
"544 78 OFFCURVE",
"408 78 CURVE SMOOTH",
"268 78 OFFCURVE",
"187 182 OFFCURVE",
"210 338 CURVE SMOOTH",
"216 378 LINE",
"106 378 LINE",
"100 338 LINE SMOOTH",
"67 116 OFFCURVE",
"188 -32 OFFCURVE",
"392 -32 CURVE SMOOTH"
);
},
{
closed = 1;
nodes = (
"345 604 OFFCURVE",
"262 708 OFFCURVE",
"284 864 CURVE SMOOTH",
"326 1162 LINE SMOOTH",
"348 1318 OFFCURVE",
"456 1422 OFFCURVE",
"596 1422 CURVE SMOOTH",
"732 1422 OFFCURVE",
"814 1318 OFFCURVE",
"792 1162 CURVE SMOOTH",
"750 862 LINE SMOOTH",
"728 706 OFFCURVE",
"627 604 OFFCURVE",
"487 604 CURVE SMOOTH"
);
}
);
width = 960;
}
);
note = nine;
},
{
glyphname = twoinferior;
lastChange = "2019-11-13 16:16:42 +0000";
layers = (
{
components = (
{
name = two.dnom;
transform = "{1, 0, 0, 1, -8, -60}";
}
);
layerId = "60B18B06-8123-4D0C-85E3-2DE7B5C03586";
width = 604;
},
{
associatedMasterId = "60B18B06-8123-4D0C-85E3-2DE7B5C03586";
layerId = "F92B29A1-039B-46AC-99A0-1FE44ADB51CB";
name = "Apr 25 18, 17:35";
paths = (
{
closed = 1;
nodes = (
"300 1164 LINE SMOOTH",
"300 1242 OFFCURVE",
"372 1310 OFFCURVE",
"452 1310 CURVE SMOOTH",
"530 1310 OFFCURVE",
"602 1246 OFFCURVE",
"604 1164 CURVE SMOOTH",
"608 1000 LINE SMOOTH",
"618 644 OFFCURVE",
"82 588 OFFCURVE",
"82 142 CURVE SMOOTH",
"82 0 LINE",
"828 0 LINE",
"828 190 LINE",
"284 190 LINE",
"284 568 OFFCURVE",
"798 550 OFFCURVE",
"798 1006 CURVE",
"796 1164 LINE SMOOTH",
"794 1344 OFFCURVE",
"640 1500 OFFCURVE",
"452 1500 CURVE SMOOTH",
"268 1500 OFFCURVE",
"108 1352 OFFCURVE",
"108 1164 CURVE SMOOTH",
"108 1040 LINE",
"300 1040 LINE"
);
}
);
width = 912;
},
{
components = (
{
name = two.dnom;
transform = "{1, 0, 0, 1, -8, -60}";
}
);
layerId = "DDDB0B36-051A-43AE-9F30-611505482296";
width = 544;
}
);
note = two;
unicode = 2082;
},
{
glyphname = fiveinferior;
lastChange = "2019-11-13 16:16:42 +0000";
layers = (
{
components = (
{
name = five.dnom;
transform = "{1, 0, 0, 1, -8, -60}";
}
);
layerId = "60B18B06-8123-4D0C-85E3-2DE7B5C03586";
width = 632;
},
{
components = (
{
name = five.dnom;
transform = "{1, 0, 0, 1, -8, -60}";
}
);
layerId = "DDDB0B36-051A-43AE-9F30-611505482296";
width = 610;
},
{
associatedMasterId = "DDDB0B36-051A-43AE-9F30-611505482296";
layerId = "2F00CE1A-B26B-4236-88BB-68A23E01396B";
name = "Apr 26 18, 16:09";
paths = (
{
closed = 1;
nodes = (
"722 -24 OFFCURVE",
"862 124 OFFCURVE",
"862 346 CURVE SMOOTH",
"862 450 LINE SMOOTH",
"862 672 OFFCURVE",
"722 820 OFFCURVE",
"512 820 CURVE SMOOTH",
"512 820 LINE",
"500 710 LINE",
"656 710 OFFCURVE",
"752 606 OFFCURVE",
"752 450 CURVE SMOOTH",
"752 346 LINE SMOOTH",
"752 190 OFFCURVE",
"656 86 OFFCURVE",
"512 86 CURVE SMOOTH",
"368 86 OFFCURVE",
"272 190 OFFCURVE",
"272 346 CURVE SMOOTH",
"272 386 LINE",
"162 386 LINE",
"162 346 LINE SMOOTH",
"162 124 OFFCURVE",
"302 -24 OFFCURVE",
"512 -24 CURVE SMOOTH"
);
},
{
closed = 1;
nodes = (
"512 820 LINE",
"322 820 OFFCURVE",
"206 674 OFFCURVE",
"206 452 CURVE SMOOTH",
"206 428 LINE",
"278 428 LINE",
"278 452 LINE SMOOTH",
"278 608 OFFCURVE",
"362 710 OFFCURVE",
"500 710 CURVE"
);
}
);
width = 1200;
}
);
note = five;
unicode = 2085;
},
{
glyphname = zero.dnom;
lastChange = "2019-11-13 16:17:00 +0000";
layers = (
{
layerId = "60B18B06-8123-4D0C-85E3-2DE7B5C03586";
paths = (
{
closed = 1;
nodes = (
"380 -20 OFFCURVE",
"481 70 OFFCURVE",
"500 202 CURVE SMOOTH",
"570 698 LINE SMOOTH",
"589 830 OFFCURVE",
"512 920 OFFCURVE",
"377 920 CURVE SMOOTH",
"241 920 OFFCURVE",
"143 830 OFFCURVE",
"124 698 CURVE SMOOTH",
"54 202 LINE SMOOTH",
"35 70 OFFCURVE",
"113 -20 OFFCURVE",
"246 -20 CURVE SMOOTH"
);
},
{
closed = 1;
nodes = (
"237 150 OFFCURVE",
"220 172 OFFCURVE",
"224 202 CURVE SMOOTH",
"294 698 LINE SMOOTH",
"298 728 OFFCURVE",
"322 750 OFFCURVE",
"354 750 CURVE SMOOTH",
"386 750 OFFCURVE",
"404 728 OFFCURVE",
"400 698 CURVE SMOOTH",
"330 202 LINE SMOOTH",
"326 172 OFFCURVE",
"301 150 OFFCURVE",
"269 150 CURVE SMOOTH"
);
},
{
closed = 1;
nodes = (
"142 150 LINE",
"234 150 LINE",
"482 750 LINE",
"388 750 LINE"
);
}
);
width = 652;
},
{
hints = (
{
horizontal = 1;
origin = "{0, 13}";
target = "{2, 0}";
type = Stem;
},
{
horizontal = 1;
origin = "{1, 6}";
target = "{0, 6}";
type = Stem;
}
);
layerId = "DDDB0B36-051A-43AE-9F30-611505482296";
paths = (
{
closed = 1;
nodes = (
"362 -20 OFFCURVE",
"461 70 OFFCURVE",
"480 202 CURVE SMOOTH",
"550 698 LINE SMOOTH",
"569 830 OFFCURVE",
"493 920 OFFCURVE",
"368 920 CURVE SMOOTH",
"242 920 OFFCURVE",
"143 830 OFFCURVE",
"124 698 CURVE SMOOTH",
"54 202 LINE SMOOTH",
"35 70 OFFCURVE",
"111 -20 OFFCURVE",
"236 -20 CURVE SMOOTH"
);
},
{
closed = 1;
nodes = (
"180 70 OFFCURVE",
"132 120 OFFCURVE",
"144 202 CURVE SMOOTH",
"214 698 LINE SMOOTH",
"226 782 OFFCURVE",
"288 830 OFFCURVE",
"357 830 CURVE SMOOTH",
"433 830 OFFCURVE",
"470 772 OFFCURVE",
"460 698 CURVE SMOOTH",
"390 202 LINE SMOOTH",
"378 120 OFFCURVE",
"319 70 OFFCURVE",
"250 70 CURVE SMOOTH"
);
},
{
closed = 1;
nodes = (
"108 70 LINE",
"174 70 LINE",
"498 830 LINE",
"430 830 LINE"
);
}
);
width = 630;
}
);
note = zero;
},
{
glyphname = one.dnom;
lastChange = "2019-11-13 16:16:42 +0000";
layers = (
{
layerId = "60B18B06-8123-4D0C-85E3-2DE7B5C03586";
paths = (
{
closed = 1;
nodes = (
"258 0 LINE",
"384 900 LINE",
"210 900 LINE",
"210 886 LINE SMOOTH",
"210 830 OFFCURVE",
"160 796 OFFCURVE",
"100 796 CURVE SMOOTH",
"58 796 LINE",
"34 626 LINE",
"176 626 LINE",
"88 0 LINE"
);
}
);
width = 456;
},
{
hints = (
{
horizontal = 1;
origin = "{0, 10}";
target = up;
type = BottomGhost;
},
{
horizontal = 1;
origin = "{0, 8}";
target = "{0, 7}";
type = Stem;
}
);
layerId = "DDDB0B36-051A-43AE-9F30-611505482296";
paths = (
{
closed = 1;
nodes = (
"162 0 LINE",
"288 900 LINE",
"198 900 LINE",
"196 886 LINE SMOOTH",
"188 830 OFFCURVE",
"144 796 OFFCURVE",
"82 796 CURVE SMOOTH",
"60 796 LINE",
"48 706 LINE",
"170 706 LINE",
"72 0 LINE"
);
}
);
width = 358;
}
);
note = one;
},
{
glyphname = two.dnom;
lastChange = "2019-11-13 16:17:00 +0000";
layers = (
{
layerId = "60B18B06-8123-4D0C-85E3-2DE7B5C03586";
paths = (
{
closed = 1;
nodes = (
"444 0 LINE",
"468 170 LINE",
"202 170 LINE",
"204 188 LINE SMOOTH",
"222 352 OFFCURVE",
"491 348 OFFCURVE",
"524 574 CURVE SMOOTH",
"542 698 LINE SMOOTH",
"561 830 OFFCURVE",
"483 920 OFFCURVE",
"348 920 CURVE SMOOTH",
"212 920 OFFCURVE",
"117 827 OFFCURVE",
"96 698 CURVE SMOOTH",
"88 648 LINE",
"258 648 LINE",
"266 698 LINE SMOOTH",
"271 728 OFFCURVE",
"295 750 OFFCURVE",
"327 750 CURVE SMOOTH",
"358 750 OFFCURVE",
"376 728 OFFCURVE",
"372 698 CURVE SMOOTH",
"354 574 LINE SMOOTH",
"334 438 OFFCURVE",
"60 448 OFFCURVE",
"20 158 CURVE SMOOTH",
"-2 0 LINE"
);
}
);
width = 604;
},
{
associatedMasterId = "60B18B06-8123-4D0C-85E3-2DE7B5C03586";
layerId = "F92B29A1-039B-46AC-99A0-1FE44ADB51CB";
name = "Apr 25 18, 17:35";
paths = (
{
closed = 1;
nodes = (
"300 1164 LINE SMOOTH",
"300 1242 OFFCURVE",
"372 1310 OFFCURVE",
"452 1310 CURVE SMOOTH",
"530 1310 OFFCURVE",
"602 1246 OFFCURVE",
"604 1164 CURVE SMOOTH",
"608 1000 LINE SMOOTH",
"618 644 OFFCURVE",
"82 588 OFFCURVE",
"82 142 CURVE SMOOTH",
"82 0 LINE",
"828 0 LINE",
"828 190 LINE",
"284 190 LINE",
"284 568 OFFCURVE",
"798 550 OFFCURVE",
"798 1006 CURVE",
"796 1164 LINE SMOOTH",
"794 1344 OFFCURVE",
"640 1500 OFFCURVE",
"452 1500 CURVE SMOOTH",
"268 1500 OFFCURVE",
"108 1352 OFFCURVE",
"108 1164 CURVE SMOOTH",
"108 1040 LINE",
"300 1040 LINE"
);
}
);
width = 912;
},
{
hints = (
{
horizontal = 1;
origin = "{0, 27}";
target = "{0, 2}";
type = Stem;
},
{
horizontal = 1;
origin = "{0, 19}";
target = "{0, 10}";
type = Stem;
}
);
layerId = "DDDB0B36-051A-43AE-9F30-611505482296";
paths = (
{
closed = 1;
nodes = (
"406 0 LINE",
"418 90 LINE",
"86 90 LINE",
"88 100 LINE SMOOTH",
"126 288 OFFCURVE",
"462 402 OFFCURVE",
"492 614 CURVE SMOOTH",
"504 698 LINE SMOOTH",
"523 830 OFFCURVE",
"448 920 OFFCURVE",
"322 920 CURVE SMOOTH",
"195 920 OFFCURVE",
"96 830 OFFCURVE",
"78 698 CURVE SMOOTH",
"74 668 LINE",
"164 668 LINE",
"168 698 LINE SMOOTH",
"178 776 OFFCURVE",
"238 830 OFFCURVE",
"308 830 CURVE SMOOTH",
"380 830 OFFCURVE",
"425 776 OFFCURVE",
"414 698 CURVE SMOOTH",
"402 614 LINE SMOOTH",
"376 434 OFFCURVE",
"25 344 OFFCURVE",
"-10 76 CURVE SMOOTH",
"-20 0 LINE"
);
}
);
width = 544;
}
);
note = two;
},
{
glyphname = three.dnom;
lastChange = "2019-11-13 16:17:00 +0000";
layers = (
{
layerId = "60B18B06-8123-4D0C-85E3-2DE7B5C03586";
paths = (
{
closed = 1;
nodes = (
"340 -20 OFFCURVE",
"443 70 OFFCURVE",
"462 202 CURVE SMOOTH",
"480 328 LINE SMOOTH",
"487 380 OFFCURVE",
"478 426 OFFCURVE",
"458 464 CURVE",
"490 500 OFFCURVE",
"508 544 OFFCURVE",
"517 602 CURVE SMOOTH",
"532 698 LINE SMOOTH",
"553 830 OFFCURVE",
"472 920 OFFCURVE",
"339 920 CURVE SMOOTH",
"204 920 OFFCURVE",
"107 828 OFFCURVE",
"86 698 CURVE SMOOTH",
"78 648 LINE",
"248 648 LINE",
"256 698 LINE SMOOTH",
"261 728 OFFCURVE",
"284 750 OFFCURVE",
"316 750 CURVE SMOOTH",
"349 750 OFFCURVE",
"366 728 OFFCURVE",
"362 698 CURVE SMOOTH",
"348 602 LINE SMOOTH",
"343 570 OFFCURVE",
"318 550 OFFCURVE",
"288 550 CURVE SMOOTH",
"190 550 LINE",
"166 380 LINE",
"264 380 LINE SMOOTH",
"296 380 OFFCURVE",
"314 358 OFFCURVE",
"310 328 CURVE SMOOTH",
"292 202 LINE SMOOTH",
"288 172 OFFCURVE",
"264 150 OFFCURVE",
"232 150 CURVE SMOOTH",
"200 150 OFFCURVE",
"182 172 OFFCURVE",
"186 202 CURVE SMOOTH",
"192 252 LINE",
"22 252 LINE",
"16 202 LINE SMOOTH",
"0 70 OFFCURVE",
"74 -20 OFFCURVE",
"208 -20 CURVE SMOOTH"
);
}
);
width = 610;
},
{
hints = (
{
horizontal = 1;
origin = "{0, 48}";
target = "{0, 39}";
type = Stem;
},
{
horizontal = 1;
origin = "{0, 31}";
target = "{0, 30}";
type = Stem;
},
{
horizontal = 1;
origin = "{0, 22}";
target = "{0, 13}";
type = Stem;
}
);
layerId = "DDDB0B36-051A-43AE-9F30-611505482296";
paths = (
{
closed = 1;
nodes = (
"316 -20 OFFCURVE",
"415 70 OFFCURVE",
"434 202 CURVE SMOOTH",
"446 284 LINE SMOOTH",
"458 368 OFFCURVE",
"430 423 OFFCURVE",
"390 460 CURVE",
"448 498 OFFCURVE",
"484 564 OFFCURVE",
"494 638 CURVE SMOOTH",
"502 698 LINE SMOOTH",
"520 830 OFFCURVE",
"448 920 OFFCURVE",
"321 920 CURVE SMOOTH",
"193 920 OFFCURVE",
"96 830 OFFCURVE",
"78 698 CURVE SMOOTH",
"74 668 LINE",
"164 668 LINE",
"168 698 LINE SMOOTH",
"178 776 OFFCURVE",
"239 830 OFFCURVE",
"310 830 CURVE SMOOTH",
"382 830 OFFCURVE",
"424 776 OFFCURVE",
"414 698 CURVE SMOOTH",
"406 638 LINE SMOOTH",
"395 558 OFFCURVE",
"334 506 OFFCURVE",
"264 506 CURVE SMOOTH",
"192 506 LINE",
"180 416 LINE",
"252 416 LINE SMOOTH",
"322 416 OFFCURVE",
"367 362 OFFCURVE",
"356 284 CURVE SMOOTH",
"344 202 LINE SMOOTH",
"333 124 OFFCURVE",
"276 70 OFFCURVE",
"203 70 CURVE SMOOTH",
"129 70 OFFCURVE",
"88 124 OFFCURVE",
"98 202 CURVE SMOOTH",
"102 232 LINE",
"12 232 LINE",
"8 202 LINE SMOOTH",
"-10 70 OFFCURVE",
"64 -20 OFFCURVE",
"190 -20 CURVE SMOOTH"
);
}
);
width = 576;
}
);
note = three;
},
{
glyphname = four.dnom;
lastChange = "2019-11-13 16:16:42 +0000";
layers = (
{
layerId = "60B18B06-8123-4D0C-85E3-2DE7B5C03586";
paths = (
{
closed = 1;
nodes = (
"414 0 LINE",
"434 148 LINE",
"500 148 LINE",
"524 320 LINE",
"458 320 LINE",
"540 900 LINE",
"392 900 LINE",
"-10 294 LINE",
"-30 148 LINE",
"264 148 LINE",
"244 0 LINE"
);
},
{
closed = 1;
nodes = (
"322 560 LINE",
"288 320 LINE",
"172 320 LINE"
);
}
);
width = 626;
},
{
hints = (
{
horizontal = 1;
origin = "{0, 10}";
target = "{1, 2}";
type = Stem;
},
{
horizontal = 1;
origin = "{1, 2}";
target = "{0, 8}";
type = Stem;
}
);
layerId = "DDDB0B36-051A-43AE-9F30-611505482296";
paths = (
{
closed = 1;
nodes = (
"364 0 LINE",
"392 196 LINE",
"476 196 LINE",
"488 286 LINE",
"404 286 LINE",
"490 900 LINE",
"400 900 LINE",
"-22 280 LINE",
"-34 196 LINE",
"302 196 LINE",
"274 0 LINE"
);
},
{
closed = 1;
nodes = (
"378 740 LINE",
"314 286 LINE",
"72 286 LINE"
);
}
);
width = 574;
}
);
note = four;
},
{
glyphname = five.dnom;
lastChange = "2019-11-13 16:17:00 +0000";
layers = (
{
layerId = "60B18B06-8123-4D0C-85E3-2DE7B5C03586";
paths = (
{
closed = 1;
nodes = (
"382 -20 OFFCURVE",
"485 70 OFFCURVE",
"504 202 CURVE SMOOTH",
"528 370 LINE SMOOTH",
"547 502 OFFCURVE",
"471 592 OFFCURVE",
"352 592 CURVE SMOOTH",
"327 592 OFFCURVE",
"300 588 OFFCURVE",
"280 578 CURVE",
"302 730 LINE",
"540 730 LINE",
"564 900 LINE",
"156 900 LINE",
"80 362 LINE",
"252 362 LINE",
"252 370 LINE SMOOTH",
"252 400 OFFCURVE",
"278 422 OFFCURVE",
"312 422 CURVE SMOOTH",
"346 422 OFFCURVE",
"362 400 OFFCURVE",
"358 370 CURVE SMOOTH",
"334 202 LINE SMOOTH",
"330 172 OFFCURVE",
"306 150 OFFCURVE",
"274 150 CURVE SMOOTH",
"242 150 OFFCURVE",
"224 172 OFFCURVE",
"228 202 CURVE SMOOTH",
"234 252 LINE",
"64 252 LINE",
"58 202 LINE SMOOTH",
"42 70 OFFCURVE",
"116 -20 OFFCURVE",
"250 -20 CURVE SMOOTH"
);
}
);
width = 632;
},
{
hints = (
{
horizontal = 1;
origin = "{0, 35}";
target = "{0, 26}";
type = Stem;
},
{
horizontal = 1;
origin = "{0, 19}";
target = "{0, 6}";
type = Stem;
},
{
horizontal = 1;
origin = "{0, 10}";
target = "{0, 13}";
type = Stem;
}
);
layerId = "DDDB0B36-051A-43AE-9F30-611505482296";
paths = (
{
closed = 1;
nodes = (
"366 -20 OFFCURVE",
"466 70 OFFCURVE",
"484 202 CURVE SMOOTH",
"508 378 LINE SMOOTH",
"526 512 OFFCURVE",
"454 600 OFFCURVE",
"330 600 CURVE SMOOTH",
"278 600 OFFCURVE",
"232 582 OFFCURVE",
"196 544 CURVE",
"234 810 LINE",
"562 810 LINE",
"574 900 LINE",
"156 900 LINE",
"80 366 LINE",
"170 366 LINE",
"172 380 LINE SMOOTH",
"183 458 OFFCURVE",
"236 510 OFFCURVE",
"311 510 CURVE SMOOTH",
"385 510 OFFCURVE",
"429 460 OFFCURVE",
"418 378 CURVE SMOOTH",
"394 202 LINE SMOOTH",
"383 124 OFFCURVE",
"325 70 OFFCURVE",
"253 70 CURVE SMOOTH",
"180 70 OFFCURVE",
"138 124 OFFCURVE",
"148 202 CURVE SMOOTH",
"152 232 LINE",
"62 232 LINE",
"58 202 LINE SMOOTH",
"40 70 OFFCURVE",
"114 -20 OFFCURVE",
"240 -20 CURVE SMOOTH"
);
}
);
width = 610;
},
{
associatedMasterId = "DDDB0B36-051A-43AE-9F30-611505482296";
layerId = "2F00CE1A-B26B-4236-88BB-68A23E01396B";
name = "Apr 26 18, 16:09";
paths = (
{
closed = 1;
nodes = (
"722 -24 OFFCURVE",
"862 124 OFFCURVE",
"862 346 CURVE SMOOTH",
"862 450 LINE SMOOTH",
"862 672 OFFCURVE",
"722 820 OFFCURVE",
"512 820 CURVE SMOOTH",
"512 820 LINE",
"500 710 LINE",
"656 710 OFFCURVE",
"752 606 OFFCURVE",
"752 450 CURVE SMOOTH",
"752 346 LINE SMOOTH",
"752 190 OFFCURVE",
"656 86 OFFCURVE",
"512 86 CURVE SMOOTH",
"368 86 OFFCURVE",
"272 190 OFFCURVE",
"272 346 CURVE SMOOTH",
"272 386 LINE",
"162 386 LINE",
"162 346 LINE SMOOTH",
"162 124 OFFCURVE",
"302 -24 OFFCURVE",
"512 -24 CURVE SMOOTH"
);
},
{
closed = 1;
nodes = (
"512 820 LINE",
"322 820 OFFCURVE",
"206 674 OFFCURVE",
"206 452 CURVE SMOOTH",
"206 428 LINE",
"278 428 LINE",
"278 452 LINE SMOOTH",
"278 608 OFFCURVE",
"362 710 OFFCURVE",
"500 710 CURVE"
);
}
);
width = 1200;
}
);
note = five;
},
{
glyphname = six.dnom;
lastChange = "2019-11-13 16:17:00 +0000";
layers = (
{
layerId = "60B18B06-8123-4D0C-85E3-2DE7B5C03586";
paths = (
{
closed = 1;
nodes = (
"378 -20 OFFCURVE",
"481 70 OFFCURVE",
"500 202 CURVE SMOOTH",
"524 370 LINE SMOOTH",
"543 502 OFFCURVE",
"467 592 OFFCURVE",
"348 592 CURVE SMOOTH",
"323 592 OFFCURVE",
"296 588 OFFCURVE",
"276 578 CURVE",
"294 698 LINE SMOOTH",
"299 731 OFFCURVE",
"325 750 OFFCURVE",
"354 750 CURVE SMOOTH",
"386 750 OFFCURVE",
"405 728 OFFCURVE",
"400 698 CURVE SMOOTH",
"392 648 LINE",
"562 648 LINE",
"570 698 LINE SMOOTH",
"590 824 OFFCURVE",
"518 920 OFFCURVE",
"378 920 CURVE SMOOTH",
"241 920 OFFCURVE",
"143 830 OFFCURVE",
"124 698 CURVE SMOOTH",
"54 202 LINE SMOOTH",
"35 70 OFFCURVE",
"112 -20 OFFCURVE",
"246 -20 CURVE SMOOTH"
);
},
{
closed = 1;
nodes = (
"238 150 OFFCURVE",
"220 172 OFFCURVE",
"224 202 CURVE SMOOTH",
"248 370 LINE SMOOTH",
"252 400 OFFCURVE",
"275 422 OFFCURVE",
"308 422 CURVE SMOOTH",
"342 422 OFFCURVE",
"358 400 OFFCURVE",
"354 370 CURVE SMOOTH",
"330 202 LINE SMOOTH",
"326 172 OFFCURVE",
"301 150 OFFCURVE",
"270 150 CURVE SMOOTH"
);
}
);
width = 642;
},
{
hints = (
{
horizontal = 1;
origin = "{0, 29}";
target = "{1, 13}";
type = Stem;
},
{
horizontal = 1;
origin = "{1, 6}";
target = "{0, 6}";
type = Stem;
},
{
horizontal = 1;
origin = "{0, 13}";
target = "{0, 22}";
type = Stem;
}
);
layerId = "DDDB0B36-051A-43AE-9F30-611505482296";
paths = (
{
closed = 1;
nodes = (
"362 -20 OFFCURVE",
"462 70 OFFCURVE",
"480 202 CURVE SMOOTH",
"504 378 LINE SMOOTH",
"522 512 OFFCURVE",
"450 600 OFFCURVE",
"326 600 CURVE SMOOTH",
"274 600 OFFCURVE",
"228 582 OFFCURVE",
"192 544 CURVE",
"214 698 LINE SMOOTH",
"225 776 OFFCURVE",
"282 830 OFFCURVE",
"356 830 CURVE SMOOTH",
"428 830 OFFCURVE",
"470 776 OFFCURVE",
"460 698 CURVE SMOOTH",
"456 668 LINE",
"546 668 LINE",
"550 698 LINE SMOOTH",
"568 830 OFFCURVE",
"492 920 OFFCURVE",
"367 920 CURVE SMOOTH",
"241 920 OFFCURVE",
"143 830 OFFCURVE",
"124 698 CURVE SMOOTH",
"54 202 LINE SMOOTH",
"35 70 OFFCURVE",
"110 -20 OFFCURVE",
"236 -20 CURVE SMOOTH"
);
},
{
closed = 1;
nodes = (
"173 70 OFFCURVE",
"134 128 OFFCURVE",
"144 202 CURVE SMOOTH",
"168 380 LINE SMOOTH",
"178 456 OFFCURVE",
"232 510 OFFCURVE",
"307 510 CURVE SMOOTH",
"380 510 OFFCURVE",
"425 460 OFFCURVE",
"414 378 CURVE SMOOTH",
"390 202 LINE SMOOTH",
"379 124 OFFCURVE",
"321 70 OFFCURVE",
"248 70 CURVE SMOOTH"
);
}
);
width = 618;
}
);
note = six;
},
{
glyphname = seven.dnom;
lastChange = "2019-11-13 16:16:42 +0000";
layers = (
{
layerId = "60B18B06-8123-4D0C-85E3-2DE7B5C03586";
paths = (
{
closed = 1;
nodes = (
"174 0 LINE",
"494 740 LINE",
"516 900 LINE",
"76 900 LINE",
"52 730 LINE",
"326 730 LINE",
"-2 0 LINE"
);
}
);
width = 504;
},
{
hints = (
{
horizontal = 1;
origin = "{0, 6}";
target = up;
type = BottomGhost;
},
{
horizontal = 1;
origin = "{0, 4}";
target = "{0, 3}";
type = Stem;
}
);
layerId = "DDDB0B36-051A-43AE-9F30-611505482296";
paths = (
{
closed = 1;
nodes = (
"110 0 LINE",
"452 820 LINE",
"464 900 LINE",
"48 900 LINE",
"36 810 LINE",
"356 810 LINE",
"14 0 LINE"
);
}
);
width = 438;
}
);
note = seven;
},
{
glyphname = eight.dnom;
lastChange = "2019-11-13 16:17:00 +0000";
layers = (
{
layerId = "60B18B06-8123-4D0C-85E3-2DE7B5C03586";
paths = (
{
closed = 1;
nodes = (
"373 -20 OFFCURVE",
"476 67 OFFCURVE",
"496 202 CURVE SMOOTH",
"514 324 LINE SMOOTH",
"522 376 OFFCURVE",
"511 425 OFFCURVE",
"492 460 CURVE",
"524 498 OFFCURVE",
"545 546 OFFCURVE",
"552 598 CURVE SMOOTH",
"566 698 LINE SMOOTH",
"584 828 OFFCURVE",
"510 920 OFFCURVE",
"374 920 CURVE SMOOTH",
"243 920 OFFCURVE",
"139 833 OFFCURVE",
"120 698 CURVE SMOOTH",
"106 598 LINE SMOOTH",
"98 544 OFFCURVE",
"107 495 OFFCURVE",
"126 460 CURVE",
"94 422 OFFCURVE",
"76 376 OFFCURVE",
"68 324 CURVE SMOOTH",
"50 202 LINE SMOOTH",
"30 66 OFFCURVE",
"112 -20 OFFCURVE",
"242 -20 CURVE SMOOTH"
);
},
{
closed = 1;
nodes = (
"234 150 OFFCURVE",
"216 172 OFFCURVE",
"220 202 CURVE SMOOTH",
"238 324 LINE SMOOTH",
"242 354 OFFCURVE",
"267 376 OFFCURVE",
"298 376 CURVE SMOOTH",
"330 376 OFFCURVE",
"348 354 OFFCURVE",
"344 324 CURVE SMOOTH",
"326 202 LINE SMOOTH",
"322 172 OFFCURVE",
"297 150 OFFCURVE",
"266 150 CURVE SMOOTH"
);
},
{
closed = 1;
nodes = (
"285 546 OFFCURVE",
"272 570 OFFCURVE",
"276 598 CURVE SMOOTH",
"290 698 LINE SMOOTH",
"294 728 OFFCURVE",
"319 750 OFFCURVE",
"350 750 CURVE SMOOTH",
"382 750 OFFCURVE",
"400 728 OFFCURVE",
"396 698 CURVE SMOOTH",
"382 598 LINE SMOOTH",
"378 567 OFFCURVE",
"353 546 OFFCURVE",
"320 546 CURVE SMOOTH"
);
}
);
width = 644;
},
{
hints = (
{
horizontal = 1;
origin = "{0, 27}";
target = "{1, 13}";
type = Stem;
},
{
horizontal = 1;
origin = "{1, 6}";
target = "{2, 13}";
type = Stem;
},
{
horizontal = 1;
origin = "{2, 6}";
target = "{0, 13}";
type = Stem;
}
);
layerId = "DDDB0B36-051A-43AE-9F30-611505482296";
paths = (
{
closed = 1;
nodes = (
"357 -20 OFFCURVE",
"454 70 OFFCURVE",
"474 202 CURVE SMOOTH",
"486 282 LINE SMOOTH",
"498 364 OFFCURVE",
"472 421 OFFCURVE",
"430 460 CURVE",
"488 498 OFFCURVE",
"522 564 OFFCURVE",
"534 636 CURVE SMOOTH",
"544 698 LINE SMOOTH",
"566 836 OFFCURVE",
"482 920 OFFCURVE",
"361 920 CURVE SMOOTH",
"231 920 OFFCURVE",
"138 824 OFFCURVE",
"118 698 CURVE SMOOTH",
"108 636 LINE SMOOTH",
"95 558 OFFCURVE",
"118 497 OFFCURVE",
"164 460 CURVE",
"110 424 OFFCURVE",
"72 360 OFFCURVE",
"60 282 CURVE SMOOTH",
"48 202 LINE SMOOTH",
"28 70 OFFCURVE",
"105 -20 OFFCURVE",
"231 -20 CURVE SMOOTH"
);
},
{
closed = 1;
nodes = (
"172 70 OFFCURVE",
"126 124 OFFCURVE",
"138 202 CURVE SMOOTH",
"150 282 LINE SMOOTH",
"162 362 OFFCURVE",
"218 414 OFFCURVE",
"292 414 CURVE SMOOTH",
"362 414 OFFCURVE",
"408 362 OFFCURVE",
"396 282 CURVE SMOOTH",
"384 202 LINE SMOOTH",
"372 124 OFFCURVE",
"317 70 OFFCURVE",
"244 70 CURVE SMOOTH"
);
},
{
closed = 1;
nodes = (
"229 504 OFFCURVE",
"185 558 OFFCURVE",
"198 636 CURVE SMOOTH",
"208 698 LINE SMOOTH",
"221 776 OFFCURVE",
"278 830 OFFCURVE",
"350 830 CURVE SMOOTH",
"421 830 OFFCURVE",
"467 776 OFFCURVE",
"454 698 CURVE SMOOTH",
"444 636 LINE SMOOTH",
"431 558 OFFCURVE",
"377 504 OFFCURVE",
"303 504 CURVE SMOOTH"
);
}
);
width = 616;
}
);
note = eight;
},
{
glyphname = nine.dnom;
lastChange = "2019-11-13 16:17:00 +0000";
layers = (
{
layerId = "60B18B06-8123-4D0C-85E3-2DE7B5C03586";
paths = (
{
closed = 1;
nodes = (
"370 -20 OFFCURVE",
"471 70 OFFCURVE",
"490 202 CURVE SMOOTH",
"560 698 LINE SMOOTH",
"579 830 OFFCURVE",
"502 920 OFFCURVE",
"368 920 CURVE SMOOTH",
"234 920 OFFCURVE",
"133 830 OFFCURVE",
"114 698 CURVE SMOOTH",
"90 530 LINE SMOOTH",
"71 398 OFFCURVE",
"145 308 OFFCURVE",
"264 308 CURVE SMOOTH",
"289 308 OFFCURVE",
"318 312 OFFCURVE",
"336 322 CURVE",
"320 202 LINE SMOOTH",
"316 172 OFFCURVE",
"292 150 OFFCURVE",
"260 150 CURVE SMOOTH",
"228 150 OFFCURVE",
"210 172 OFFCURVE",
"214 202 CURVE SMOOTH",
"220 252 LINE",
"50 252 LINE",
"44 202 LINE SMOOTH",
"28 70 OFFCURVE",
"102 -20 OFFCURVE",
"236 -20 CURVE SMOOTH"
);
},
{
closed = 1;
nodes = (
"271 478 OFFCURVE",
"256 500 OFFCURVE",
"260 530 CURVE SMOOTH",
"284 698 LINE SMOOTH",
"288 728 OFFCURVE",
"310 750 OFFCURVE",
"344 750 CURVE SMOOTH",
"376 750 OFFCURVE",
"394 728 OFFCURVE",
"390 698 CURVE SMOOTH",
"366 530 LINE SMOOTH",
"362 500 OFFCURVE",
"339 478 OFFCURVE",
"305 478 CURVE SMOOTH"
);
}
);
width = 642;
},
{
hints = (
{
horizontal = 1;
origin = "{0, 29}";
target = "{0, 20}";
type = Stem;
},
{
horizontal = 1;
origin = "{0, 13}";
target = "{1, 13}";
type = Stem;
},
{
horizontal = 1;
origin = "{1, 6}";
target = "{0, 6}";
type = Stem;
}
);
layerId = "DDDB0B36-051A-43AE-9F30-611505482296";
paths = (
{
closed = 1;
nodes = (
"352 -20 OFFCURVE",
"451 70 OFFCURVE",
"470 202 CURVE SMOOTH",
"540 698 LINE SMOOTH",
"559 830 OFFCURVE",
"484 920 OFFCURVE",
"358 920 CURVE SMOOTH",
"234 920 OFFCURVE",
"134 834 OFFCURVE",
"114 698 CURVE SMOOTH",
"88 522 LINE SMOOTH",
"68 388 OFFCURVE",
"147 300 OFFCURVE",
"265 300 CURVE SMOOTH",
"319 300 OFFCURVE",
"366 318 OFFCURVE",
"402 356 CURVE",
"380 202 LINE SMOOTH",
"369 124 OFFCURVE",
"312 70 OFFCURVE",
"239 70 CURVE SMOOTH",
"165 70 OFFCURVE",
"124 124 OFFCURVE",
"134 202 CURVE SMOOTH",
"138 232 LINE",
"48 232 LINE",
"44 202 LINE SMOOTH",
"26 70 OFFCURVE",
"100 -20 OFFCURVE",
"226 -20 CURVE SMOOTH"
);
},
{
closed = 1;
nodes = (
"212 390 OFFCURVE",
"166 442 OFFCURVE",
"178 522 CURVE SMOOTH",
"204 698 LINE SMOOTH",
"216 779 OFFCURVE",
"275 830 OFFCURVE",
"346 830 CURVE SMOOTH",
"419 830 OFFCURVE",
"461 776 OFFCURVE",
"450 698 CURVE SMOOTH",
"424 520 LINE SMOOTH",
"413 442 OFFCURVE",
"360 390 OFFCURVE",
"288 390 CURVE SMOOTH"
);
}
);
width = 620;
}
);
note = nine;
},
{
glyphname = zero.numr;
lastChange = "2019-11-13 16:17:00 +0000";
layers = (
{
layerId = "60B18B06-8123-4D0C-85E3-2DE7B5C03586";
paths = (
{
closed = 1;
nodes = (
"464 580 OFFCURVE",
"565 670 OFFCURVE",
"584 802 CURVE SMOOTH",
"654 1298 LINE SMOOTH",
"673 1430 OFFCURVE",
"595 1520 OFFCURVE",
"462 1520 CURVE SMOOTH",
"328 1520 OFFCURVE",
"227 1430 OFFCURVE",
"208 1298 CURVE SMOOTH",
"138 802 LINE SMOOTH",
"119 670 OFFCURVE",
"197 580 OFFCURVE",
"330 580 CURVE SMOOTH"
);
},
{
closed = 1;
nodes = (
"322 750 OFFCURVE",
"304 772 OFFCURVE",
"308 802 CURVE SMOOTH",
"378 1298 LINE SMOOTH",
"382 1328 OFFCURVE",
"407 1350 OFFCURVE",
"438 1350 CURVE SMOOTH",
"470 1350 OFFCURVE",
"488 1328 OFFCURVE",
"484 1298 CURVE SMOOTH",
"414 802 LINE SMOOTH",
"410 772 OFFCURVE",
"386 750 OFFCURVE",
"354 750 CURVE SMOOTH"
);
},
{
closed = 1;
nodes = (
"226 750 LINE",
"318 750 LINE",
"566 1350 LINE",
"472 1350 LINE"
);
}
);
width = 650;
},
{
hints = (
{
horizontal = 1;
origin = "{0, 13}";
target = "{2, 0}";
type = Stem;
},
{
horizontal = 1;
origin = "{0, 6}";
target = "{1, 6}";
type = Stem;
}
);
layerId = "DDDB0B36-051A-43AE-9F30-611505482296";
paths = (
{
closed = 1;
nodes = (
"447 580 OFFCURVE",
"545 670 OFFCURVE",
"564 802 CURVE SMOOTH",
"634 1298 LINE SMOOTH",
"653 1430 OFFCURVE",
"577 1520 OFFCURVE",
"452 1520 CURVE SMOOTH",
"326 1520 OFFCURVE",
"227 1430 OFFCURVE",
"208 1298 CURVE SMOOTH",
"138 802 LINE SMOOTH",
"119 670 OFFCURVE",
"195 580 OFFCURVE",
"321 580 CURVE SMOOTH"
);
},
{
closed = 1;
nodes = (
"264 670 OFFCURVE",
"216 720 OFFCURVE",
"228 802 CURVE SMOOTH",
"298 1298 LINE SMOOTH",
"310 1382 OFFCURVE",
"372 1430 OFFCURVE",
"441 1430 CURVE SMOOTH",
"517 1430 OFFCURVE",
"554 1372 OFFCURVE",
"544 1298 CURVE SMOOTH",
"474 802 LINE SMOOTH",
"462 720 OFFCURVE",
"403 670 OFFCURVE",
"334 670 CURVE SMOOTH"
);
},
{
closed = 1;
nodes = (
"192 670 LINE",
"258 670 LINE",
"582 1430 LINE",
"514 1430 LINE"
);
}
);
width = 630;
}
);
note = zero;
},
{
glyphname = one.numr;
lastChange = "2019-11-13 16:16:42 +0000";
layers = (
{
layerId = "60B18B06-8123-4D0C-85E3-2DE7B5C03586";
paths = (
{
closed = 1;
nodes = (
"344 600 LINE",
"470 1500 LINE",
"296 1500 LINE",
"296 1486 LINE SMOOTH",
"296 1430 OFFCURVE",
"246 1396 OFFCURVE",
"186 1396 CURVE SMOOTH",
"144 1396 LINE",
"120 1226 LINE",
"262 1226 LINE",
"174 600 LINE"
);
}
);
width = 456;
},
{
hints = (
{
horizontal = 1;
origin = "{0, 2}";
target = "{0, 8}";
type = Stem;
},
{
horizontal = 1;
origin = "{0, 8}";
target = "{0, 7}";
type = Stem;
}
);
layerId = "DDDB0B36-051A-43AE-9F30-611505482296";
paths = (
{
closed = 1;
nodes = (
"246 600 LINE",
"376 1520 LINE",
"286 1520 LINE",
"284 1506 LINE SMOOTH",
"276 1450 OFFCURVE",
"232 1416 OFFCURVE",
"170 1416 CURVE SMOOTH",
"148 1416 LINE",
"136 1326 LINE",
"258 1326 LINE",
"156 600 LINE"
);
}
);
width = 358;
}
);
note = one;
},
{
glyphname = two.numr;
lastChange = "2019-11-13 16:17:00 +0000";
layers = (
{
layerId = "60B18B06-8123-4D0C-85E3-2DE7B5C03586";
paths = (
{
closed = 1;
nodes = (
"528 600 LINE",
"552 770 LINE",
"286 770 LINE",
"288 788 LINE SMOOTH",
"306 952 OFFCURVE",
"575 948 OFFCURVE",
"608 1174 CURVE SMOOTH",
"626 1298 LINE SMOOTH",
"645 1430 OFFCURVE",
"567 1520 OFFCURVE",
"432 1520 CURVE SMOOTH",
"296 1520 OFFCURVE",
"201 1427 OFFCURVE",
"180 1298 CURVE SMOOTH",
"172 1248 LINE",
"342 1248 LINE",
"350 1298 LINE SMOOTH",
"355 1328 OFFCURVE",
"379 1350 OFFCURVE",
"411 1350 CURVE SMOOTH",
"442 1350 OFFCURVE",
"460 1328 OFFCURVE",
"456 1298 CURVE SMOOTH",
"438 1174 LINE SMOOTH",
"418 1038 OFFCURVE",
"144 1048 OFFCURVE",
"104 758 CURVE SMOOTH",
"82 600 LINE"
);
}
);
width = 604;
},
{
associatedMasterId = "60B18B06-8123-4D0C-85E3-2DE7B5C03586";
layerId = "F92B29A1-039B-46AC-99A0-1FE44ADB51CB";
name = "Apr 25 18, 17:35";
paths = (
{
closed = 1;
nodes = (
"300 1164 LINE SMOOTH",
"300 1242 OFFCURVE",
"372 1310 OFFCURVE",
"452 1310 CURVE SMOOTH",
"530 1310 OFFCURVE",
"602 1246 OFFCURVE",
"604 1164 CURVE SMOOTH",
"608 1000 LINE SMOOTH",
"618 644 OFFCURVE",
"82 588 OFFCURVE",
"82 142 CURVE SMOOTH",
"82 0 LINE",
"828 0 LINE",
"828 190 LINE",
"284 190 LINE",
"284 568 OFFCURVE",
"798 550 OFFCURVE",
"798 1006 CURVE",
"796 1164 LINE SMOOTH",
"794 1344 OFFCURVE",
"640 1500 OFFCURVE",
"452 1500 CURVE SMOOTH",
"268 1500 OFFCURVE",
"108 1352 OFFCURVE",
"108 1164 CURVE SMOOTH",
"108 1040 LINE",
"300 1040 LINE"
);
}
);
width = 912;
},
{
hints = (
{
horizontal = 1;
origin = "{0, 27}";
target = "{0, 2}";
type = Stem;
},
{
horizontal = 1;
origin = "{0, 10}";
target = "{0, 19}";
type = Stem;
}
);
layerId = "DDDB0B36-051A-43AE-9F30-611505482296";
paths = (
{
closed = 1;
nodes = (
"492 600 LINE",
"504 690 LINE",
"172 690 LINE",
"174 700 LINE SMOOTH",
"212 888 OFFCURVE",
"548 1002 OFFCURVE",
"578 1214 CURVE SMOOTH",
"590 1298 LINE SMOOTH",
"609 1430 OFFCURVE",
"534 1520 OFFCURVE",
"408 1520 CURVE SMOOTH",
"281 1520 OFFCURVE",
"182 1430 OFFCURVE",
"164 1298 CURVE SMOOTH",
"160 1268 LINE",
"250 1268 LINE",
"254 1298 LINE SMOOTH",
"264 1376 OFFCURVE",
"324 1430 OFFCURVE",
"394 1430 CURVE SMOOTH",
"466 1430 OFFCURVE",
"511 1376 OFFCURVE",
"500 1298 CURVE SMOOTH",
"488 1214 LINE SMOOTH",
"462 1034 OFFCURVE",
"111 944 OFFCURVE",
"76 676 CURVE SMOOTH",
"66 600 LINE"
);
}
);
width = 546;
}
);
note = two;
},
